<?xml version="1.0" encoding="UTF-8" standalone="no"?>
<!DOCTYPE svg PUBLIC "-//W3C//DTD SVG 1.1//EN" "http://www.w3.org/Graphics/SVG/1.1/DTD/svg11.dtd">
<svg width="49cm" height="40cm" viewBox="579 -561 962 782" xmlns="http://www.w3.org/2000/svg" xmlns:xlink="http://www.w3.org/1999/xlink">
  <defs/>
  <g id="Background"/>
  <g id="Background">
    <rect style="fill: none; stroke-opacity: 1; stroke-width: 2; stroke: #000000" x="580" y="-560" width="960" height="780" rx="0" ry="0"/>
    <rect style="fill: #ffbe6f; fill-opacity: 1; stroke-opacity: 1; stroke-width: 2; stroke: #000000" x="620" y="-400" width="260" height="560" rx="0" ry="0"/>
    <rect style="fill: #8ff0a4; fill-opacity: 1; stroke-opacity: 1; stroke-width: 2; stroke: #000000" x="1240" y="-400" width="260" height="560" rx="0" ry="0"/>
    <g>
      <rect style="fill: #ffffff; fill-opacity: 1; stroke-opacity: 1; stroke-width: 2; stroke: #000000" x="680" y="-360.878" width="140" height="41.7556" rx="0" ry="0"/>
      <text font-size="15.8044" style="fill: #000000; fill-opacity: 1; stroke: none;text-anchor:middle;font-family:sans-serif;font-style:normal;font-weight:normal" x="750" y="-332.978">
        <tspan x="750" y="-332.978">ros_encoding</tspan>
      </text>
    </g>
    <text font-size="12.8" style="fill: #000000; fill-opacity: 1; stroke: none;text-anchor:start;font-family:sans-serif;font-style:normal;font-weight:normal" x="930" y="-230">
      <tspan x="930" y="-230"></tspan>
    </text>
    <g>
      <rect style="fill: #ffffff; fill-opacity: 1; stroke-opacity: 1; stroke-width: 2; stroke: #000000" x="648.3" y="-200.878" width="203.4" height="41.7556" rx="0" ry="0"/>
      <text font-size="15.8044" style="fill: #000000; fill-opacity: 1; stroke: none;text-anchor:middle;font-family:sans-serif;font-style:normal;font-weight:normal" x="750" y="-172.978">
        <tspan x="750" y="-172.978">cv_bridge_target_format</tspan>
      </text>
    </g>
    <g>
      <rect style="fill: #ffffff; fill-opacity: 1; stroke-opacity: 1; stroke-width: 2; stroke: #000000" x="650.3" y="-40.8778" width="199.4" height="41.7556" rx="0" ry="0"/>
      <text font-size="15.8044" style="fill: #000000; fill-opacity: 1; stroke: none;text-anchor:middle;font-family:sans-serif;font-style:normal;font-weight:normal" x="750" y="-12.9778">
        <tspan x="750" y="-12.9778">av_source_pixeL_format</tspan>
      </text>
    </g>
    <g>
      <ellipse style="fill: #deddda; fill-opacity: 1; stroke-opacity: 1; stroke-width: 2; stroke: #000000" cx="749.999" cy="100" rx="108.635" ry="48.2824"/>
      <text font-size="27.0933" style="fill: #000000; fill-opacity: 1; stroke: none;text-anchor:middle;font-family:sans-serif;font-style:normal;font-weight:normal" x="749.999" y="112.067">
        <tspan x="749.999" y="112.067">libav encoder</tspan>
      </text>
    </g>
    <g>
      <line style="fill: none; stroke-opacity: 1; stroke-width: 2; stroke: #000000" x1="750" y1="0.877778" x2="750" y2="41.9815"/>
      <polygon style="fill: #000000; fill-opacity: 1; stroke-opacity: 1; stroke-width: 2; stroke: #000000" fill-rule="evenodd" points="750,49.4815 745,39.4815 750,41.9815 755,39.4815 "/>
    </g>
    <g>
      <line style="fill: none; stroke-opacity: 1; stroke-width: 2; stroke: #000000" x1="858.636" y1="100" x2="919.382" y2="100"/>
      <polygon style="fill: #000000; fill-opacity: 1; stroke-opacity: 1; stroke-width: 2; stroke: #000000" fill-rule="evenodd" points="926.882,100 916.882,105 919.382,100 916.882,95 "/>
    </g>
    <g>
      <polygon style="fill: #f9f06b; fill-opacity: 1; stroke-opacity: 1; stroke-width: 2; stroke: #000000" fill-rule="evenodd" points="958.235,20 1224.38,20 1166.15,180 900,180 "/>
      <text font-size="27.0933" style="fill: #000000; fill-opacity: 1; stroke: none;text-anchor:middle;font-family:sans-serif;font-style:normal;font-weight:normal" x="1062.19" y="61.2667">
        <tspan x="1062.19" y="61.2667">FFMPEGPacket</tspan>
        <tspan x="1062.19" y="95.1333"></tspan>
        <tspan x="1062.19" y="129"></tspan>
        <tspan x="1062.19" y="162.867"></tspan>
      </text>
    </g>
    <g>
      <ellipse style="fill: #deddda; fill-opacity: 1; stroke-opacity: 1; stroke-width: 2; stroke: #000000" cx="1370" cy="100" rx="108.592" ry="48.263"/>
      <text font-size="27.0933" style="fill: #000000; fill-opacity: 1; stroke: none;text-anchor:middle;font-family:sans-serif;font-style:normal;font-weight:normal" x="1370" y="112.067">
        <tspan x="1370" y="112.067">libav decoder</tspan>
      </text>
    </g>
    <g>
      <rect style="fill: #ffffff; fill-opacity: 1; stroke-opacity: 1; stroke-width: 2; stroke: #000000" x="1260" y="-40.8778" width="220" height="41.7556" rx="0" ry="0"/>
      <text font-size="15.8044" style="fill: #000000; fill-opacity: 1; stroke: none;text-anchor:middle;font-family:sans-serif;font-style:normal;font-weight:normal" x="1370" y="-12.9778">
        <tspan x="1370" y="-12.9778">av_source_pixeL_format</tspan>
      </text>
    </g>
    <g>
      <rect style="fill: #ffffff; fill-opacity: 1; stroke-opacity: 1; stroke-width: 2; stroke: #000000" x="1260" y="-360.878" width="220" height="41.7556" rx="0" ry="0"/>
      <text font-size="15.8044" style="fill: #000000; fill-opacity: 1; stroke: none;text-anchor:middle;font-family:sans-serif;font-style:normal;font-weight:normal" x="1370" y="-332.978">
        <tspan x="1370" y="-332.978">output_message_format</tspan>
      </text>
    </g>
    <g>
      <ellipse style="fill: #dc8add; fill-opacity: 1; stroke-opacity: 1; stroke-width: 2; stroke: #000000" cx="1370" cy="-200.001" rx="90.6413" ry="40.285"/>
      <text font-size="27.0933" style="fill: #000000; fill-opacity: 1; stroke: none;text-anchor:middle;font-family:sans-serif;font-style:normal;font-weight:normal" x="1370" y="-187.934">
        <tspan x="1370" y="-187.934">libswscale</tspan>
      </text>
    </g>
    <g>
      <line style="fill: none; stroke-opacity: 1; stroke-width: 2; stroke: #000000" x1="1370" y1="51.737" x2="1370" y2="10.6138"/>
      <polygon style="fill: #000000; fill-opacity: 1; stroke-opacity: 1; stroke-width: 2; stroke: #000000" fill-rule="evenodd" points="1370,3.11385 1375,13.1138 1370,10.6138 1365,13.1138 "/>
    </g>
    <g>
      <line style="fill: none; stroke-opacity: 1; stroke-width: 2; stroke: #000000" x1="1370" y1="-40.8778" x2="1370" y2="-149.979"/>
      <polygon style="fill: #000000; fill-opacity: 1; stroke-opacity: 1; stroke-width: 2; stroke: #000000" fill-rule="evenodd" points="1370,-157.479 1375,-147.479 1370,-149.979 1365,-147.479 "/>
    </g>
    <g>
      <line style="fill: none; stroke-opacity: 1; stroke-width: 2; stroke: #000000" x1="1370" y1="-240.286" x2="1370" y2="-309.386"/>
      <polygon style="fill: #000000; fill-opacity: 1; stroke-opacity: 1; stroke-width: 2; stroke: #000000" fill-rule="evenodd" points="1370,-316.886 1375,-306.886 1370,-309.386 1365,-306.886 "/>
    </g>
    <g>
      <polygon style="fill: #f9f06b; fill-opacity: 1; stroke-opacity: 1; stroke-width: 2; stroke: #000000" fill-rule="evenodd" points="1321.84,-520 1460,-520 1438.16,-460 1300,-460 "/>
      <text font-size="27.0933" style="fill: #000000; fill-opacity: 1; stroke: none;text-anchor:middle;font-family:sans-serif;font-style:normal;font-weight:normal" x="1380" y="-477.933">
        <tspan x="1380" y="-477.933">Image</tspan>
      </text>
    </g>
    <g>
      <ellipse style="fill: #dc8add; fill-opacity: 1; stroke-opacity: 1; stroke-width: 2; stroke: #000000" cx="749.999" cy="-100" rx="90.6413" ry="40.285"/>
      <text font-size="27.0933" style="fill: #000000; fill-opacity: 1; stroke: none;text-anchor:middle;font-family:sans-serif;font-style:normal;font-weight:normal" x="749.999" y="-87.9333">
        <tspan x="749.999" y="-87.9333">libswscale</tspan>
      </text>
    </g>
    <g>
      <line style="fill: none; stroke-opacity: 1; stroke-width: 2; stroke: #000000" x1="750" y1="-158.116" x2="750" y2="-150.021"/>
      <polygon style="fill: #000000; fill-opacity: 1; stroke-opacity: 1; stroke-width: 2; stroke: #000000" fill-rule="evenodd" points="750,-142.521 745,-152.521 750,-150.021 755,-152.521 "/>
    </g>
    <g>
      <line style="fill: none; stroke-opacity: 1; stroke-width: 2; stroke: #000000" x1="750" y1="-59.715" x2="750" y2="-50.6139"/>
      <polygon style="fill: #000000; fill-opacity: 1; stroke-opacity: 1; stroke-width: 2; stroke: #000000" fill-rule="evenodd" points="750,-43.1139 745,-53.1139 750,-50.6139 755,-53.1139 "/>
    </g>
    <g>
      <ellipse style="fill: #cdab8f; fill-opacity: 1; stroke-opacity: 1; stroke-width: 2; stroke: #000000" cx="750" cy="-260" rx="90" ry="40"/>
      <text font-size="27.0933" style="fill: #000000; fill-opacity: 1; stroke: none;text-anchor:middle;font-family:sans-serif;font-style:normal;font-weight:normal" x="750" y="-247.933">
        <tspan x="750" y="-247.933">cv_bridge</tspan>
      </text>
    </g>
    <g>
      <line style="fill: none; stroke-opacity: 1; stroke-width: 2; stroke: #000000" x1="750" y1="-319.122" x2="750" y2="-310.736"/>
      <polygon style="fill: #000000; fill-opacity: 1; stroke-opacity: 1; stroke-width: 2; stroke: #000000" fill-rule="evenodd" points="750,-303.236 745,-313.236 750,-310.736 755,-313.236 "/>
    </g>
    <g>
      <line style="fill: none; stroke-opacity: 1; stroke-width: 2; stroke: #000000" x1="750" y1="-220" x2="750" y2="-210.614"/>
      <polygon style="fill: #000000; fill-opacity: 1; stroke-opacity: 1; stroke-width: 2; stroke: #000000" fill-rule="evenodd" points="750,-203.114 745,-213.114 750,-210.614 755,-213.114 "/>
    </g>
    <g>
      <line style="fill: none; stroke-opacity: 1; stroke-width: 2; stroke: #000000" x1="749.08" y1="-460" x2="749.91" y2="-370.614"/>
      <polygon style="fill: #000000; fill-opacity: 1; stroke-opacity: 1; stroke-width: 2; stroke: #000000" fill-rule="evenodd" points="749.979,-363.114 744.887,-373.067 749.91,-370.614 754.886,-373.16 "/>
    </g>
    <g>
      <line style="fill: none; stroke-opacity: 1; stroke-width: 2; stroke: #000000" x1="1369.83" y1="-361.87" x2="1369.15" y2="-450.264"/>
      <polygon style="fill: #000000; fill-opacity: 1; stroke-opacity: 1; stroke-width: 2; stroke: #000000" fill-rule="evenodd" points="1369.1,-457.764 1374.17,-447.803 1369.15,-450.264 1364.17,-447.726 "/>
    </g>
    <g>
      <polygon style="fill: #f9f06b; fill-opacity: 1; stroke-opacity: 1; stroke-width: 2; stroke: #000000" fill-rule="evenodd" points="701.838,-520 840,-520 818.162,-460 680,-460 "/>
      <text font-size="27.0933" style="fill: #000000; fill-opacity: 1; stroke: none;text-anchor:middle;font-family:sans-serif;font-style:normal;font-weight:normal" x="760" y="-477.933">
        <tspan x="760" y="-477.933">Image</tspan>
      </text>
    </g>
    <text font-size="27.0933" style="fill: #000000; fill-opacity: 1; stroke: none;text-anchor:start;font-family:sans-serif;font-style:normal;font-weight:normal" x="620" y="-420">
      <tspan x="620" y="-420">Encoder</tspan>
    </text>
    <text font-size="27.0933" style="fill: #000000; fill-opacity: 1; stroke: none;text-anchor:start;font-family:sans-serif;font-style:normal;font-weight:normal" x="1240" y="-420">
      <tspan x="1240" y="-420">Decoder</tspan>
    </text>
    <text font-size="15.8044" style="fill: #000000; fill-opacity: 1; stroke: none;text-anchor:start;font-family:sans-serif;font-style:normal;font-weight:normal" x="980" y="100">
      <tspan x="980" y="100">codec;</tspan>
      <tspan x="980" y="119.756">av_source_pixel_format;</tspan>
      <tspan x="980" y="139.511">cv_bridge_target_format;</tspan>
      <tspan x="980" y="159.267">ros_encoding</tspan>
    </text>
    <g>
      <line style="fill: none; stroke-opacity: 1; stroke-width: 2; stroke: #000000" x1="1195.27" y1="100" x2="1250.69" y2="100"/>
      <polygon style="fill: #000000; fill-opacity: 1; stroke-opacity: 1; stroke-width: 2; stroke: #000000" fill-rule="evenodd" points="1258.19,100 1248.19,105 1250.69,100 1248.19,95 "/>
    </g>
  </g>
</svg>
