# File produced by Open Asset Import Library (http://www.assimp.sf.net)
# (assimp v5.2.0)

mtllib mrRM_right_gripper_7_respondable_coll_1.mtl

# 8 vertex positions
v  0.00509049464 0.00756456889 -0.0135058695
v  0.00509047695 0.00756400451 0.0136746867
v  -0.00497855991 0.00756392442 0.0133584747
v  -0.00509057287 0.00756442547 -0.0136744399
v  0.00509062409 -0.00756386295 -0.0135061508
v  -0.00509044388 -0.00756394677 -0.0136747211
v  -0.00497843185 -0.00756444782 0.0133581925
v  0.00509060919 -0.00756436773 0.0136744035

# 0 UV coordinates

# 8 vertex normals
vn -0.707099617 -0.707113922 -1.43395328e-05
vn -0.56516695 -0.583481073 -0.583211958
vn 0.588543952 -0.570615113 -0.572725296
vn 0.707108736 -0.707098603 -0.00294306525
vn -0.44722122 0.894423366 1.63649365e-05
vn 0.894415796 0.447221339 -0.003697776
vn 0.41858083 0.811715245 -0.407318622
vn -0.654944956 0.338090062 -0.675827086

# Mesh 'mesh_0' with 10 faces
g mesh_0
usemtl material_0
f  1//1 2//2 3//3
f  4//4 1//1 3//3
f  5//5 6//6 7//7
f  8//8 5//5 7//7
f  8//8 7//7 3//3
f  2//2 8//8 3//3
f  8//8 2//2 1//1
f  5//5 8//8 1//1
f  6//6 4//4 3//3
f  7//7 6//6 3//3

