# File produced by Open Asset Import Library (http://www.assimp.sf.net)
# (assimp v5.2.0)

mtllib mrRM_right_gripper_4_respondable_coll_1.mtl

# 16 vertex positions
v  -0.00763094751 0.00885367766 -0.0144488867
v  0.00763082597 0.00885281712 0.0252418723
v  -0.00763094518 0.00885280315 0.0252418742
v  0.00763088325 0.00885367673 -0.0144488299
v  0.00763083575 -0.00159035984 0.0246718731
v  -0.0076309354 -0.00159037428 0.0246718731
v  0.00763089443 -0.00198634993 -0.00253402698
v  -0.00763093634 -0.00198637019 -0.00253402791
v  0.00763090048 -0.00885376986 -0.0141144581
v  -0.00763093028 -0.00885378476 -0.0141144572
v  0.00763089396 -0.00208670134 -0.0152685661
v  -0.0076309368 -0.00208671601 -0.0152685652
v  -0.00763094751 0.0083168624 -0.0250544455
v  0.00763088325 0.00831687637 -0.0250544455
v  0.00763089303 -0.00159467908 -0.0252418928
v  -0.00763093773 -0.00159469352 -0.0252418909

# 0 UV coordinates

# 16 vertex normals
vn 0.800082326 -0.599805176 0.0101025989
vn -0.674886107 -0.656496942 -0.336957663
vn 0.6748873 -0.300661534 -0.673891485
vn -0.707206726 -0.706605136 0.0238278508
vn -0.399167329 0.44263348 -0.802957654
vn 0.399166286 0.82000494 -0.410192877
vn -0.808620393 0.578145623 -0.108998954
vn 0.808619082 0.549893618 -0.209170118
vn -0.467926294 0.883620977 -0.0160878953
vn 0.467924803 0.559812725 0.683853745
vn -0.85541302 0.285498679 0.432156056
vn 0.778080583 0.561695158 0.281228155
vn 0.399116725 -0.804758608 0.439396501
vn -0.656613111 -0.340303242 0.673092008
vn -0.404176623 0.799727142 0.443934351
vn 0.662210763 0.318182558 0.67840755

# Mesh 'mesh_0' with 28 faces
g mesh_0
usemtl material_0
f  1//1 2//2 3//3
f  4//4 2//2 1//1
f  2//2 5//5 3//3
f  5//5 6//6 3//3
f  5//5 7//7 6//6
f  7//7 8//8 6//6
f  7//7 9//9 8//8
f  9//9 10//10 8//8
f  7//7 11//11 9//9
f  4//4 11//11 7//7
f  2//2 4//4 7//7
f  5//5 2//2 7//7
f  10//10 9//9 11//11
f  12//12 10//10 11//11
f  6//6 8//8 3//3
f  3//3 8//8 1//1
f  8//8 12//12 1//1
f  10//10 12//12 8//8
f  13//13 14//14 4//4
f  1//1 13//13 4//4
f  14//14 15//15 11//11
f  4//4 14//14 11//11
f  16//16 13//13 1//1
f  12//12 16//16 1//1
f  15//15 16//16 12//12
f  11//11 15//15 12//12
f  14//14 13//13 16//16
f  15//15 14//14 16//16

