# File produced by Open Asset Import Library (http://www.assimp.sf.net)
# (assimp v5.2.0)

mtllib mrRM_arm_2_link_respondable_coll_1.mtl

# 96 vertex positions
v  0.0189216733 -0.0218221843 -0.0667115226
v  0.0189217906 0.0218016375 -0.0667603612
v  0.0189217553 0.0217947513 0.0573157258
v  0.018921636 -0.0216642134 0.0573643781
v  0.0155266412 -0.0180165432 -0.0694893822
v  0.0153613659 -0.0180115718 0.0615614653
v  0.0153614646 0.0180874653 0.0615210496
v  0.0155267389 0.0178630948 -0.0695295483
v  -0.0150226187 0.01885744 0.0883824751
v  -0.0170192719 0.0188635737 0.0842281431
v  -0.0105723049 0.0188396387 0.0897498801
v  -0.00733120134 0.0188254137 0.0885475054
v  -0.0163566116 0.018858986 0.080765605
v  -0.00419206405 0.0188003927 0.0660429597
v  -0.00390233961 0.018770365 0.0117537091
v  0.00487964321 0.0187277682 0.000559152511
v  0.00385610922 0.0187222231 -0.0179206003
v  -0.00698789023 0.0187521167 -0.0468320288
v  -0.0156739969 0.018797487 -0.0296470411
v  -0.00688962545 0.0187423714 -0.0644248128
v  -0.0145307938 0.0187856387 -0.0429990031
v  -0.0180229824 0.0188057739 -0.0325238556
v  -0.0171412546 0.0187977143 -0.0407845005
v  -0.0187913515 0.0188067388 -0.0367722809
v  -0.00871067215 0.018736871 -0.0894677341
v  -0.0179644898 0.018783452 -0.0741335899
v  -0.0187947862 0.0187860876 -0.0757752582
v  -0.0189216901 0.0187853258 -0.0780553296
v  -0.0124931522 0.0187523179 -0.0897919983
v  -0.0163360368 0.0187697709 -0.0869841054
v  -0.0150225302 0.0218328983 0.0883791745
v  -0.0105724297 0.0218338761 0.0897465348
v  -0.0170191135 0.0218284335 0.0842248797
v  -0.0073314379 0.0218321625 0.0885440707
v  -0.016356498 0.0218245555 0.0807622299
v  -0.00419221679 0.0218069106 0.0660395473
v  -0.00390267931 0.0217468422 0.0117503563
v  0.00487922318 0.0217334554 0.00055574131
v  0.00385577185 0.0217131209 -0.0179239605
v  -0.00698801689 0.0216822736 -0.0468353033
v  -0.0068898052 0.0216628183 -0.0644280538
v  -0.0145307584 0.0216873661 -0.0430021994
v  -0.0156735871 0.0217022561 -0.0296502989
v  -0.0180224869 0.0216993429 -0.0325270817
v  -0.0171409827 0.021690093 -0.0407877527
v  -0.0187909696 0.0216947086 -0.03677544
v  -0.00843890756 0.0216353498 -0.089398168
v  -0.0179641861 0.021653289 -0.0741367564
v  -0.018794436 0.0216515753 -0.0757784545
v  -0.0189213324 0.0216490235 -0.0780585185
v  -0.0124930609 0.0216353964 -0.089795202
v  -0.0163359474 0.0216385499 -0.0869872868
v  -0.0150226485 -0.0216325037 0.0884278342
v  -0.0170192309 -0.0216373894 0.0842735395
v  -0.010572548 -0.0216304455 0.0897951871
v  -0.00733155571 -0.0216314998 0.088592723
v  -0.0163565874 -0.0216411483 0.0808109418
v  -0.0041923346 -0.021656584 0.0660881996
v  -0.00390279735 -0.0217180792 0.0117990151
v  0.00487910537 -0.0217298567 0.000604398258
v  0.00385565404 -0.0217509028 -0.0178753026
v  -0.00698813517 -0.0217847284 -0.0467866436
v  -0.0156736523 -0.0217661262 -0.0296016634
v  -0.00688992301 -0.0218046028 -0.0643793866
v  -0.0145308767 -0.021781195 -0.0429535359
v  -0.0180226136 -0.0217696913 -0.0324784145
v  -0.0171411 -0.0217789412 -0.0407390893
v  -0.018791087 -0.0217745639 -0.0367267765
v  -0.00843902584 -0.0218330324 -0.0893495083
v  -0.0179643054 -0.0218168125 -0.0740880966
v  -0.0189214498 -0.0218213201 -0.0780098513
v  -0.0187945534 -0.0218187682 -0.0757297948
v  -0.0163360666 -0.0218307823 -0.0869386271
v  -0.0124931261 -0.0218339358 -0.0897465646
v  -0.0150227202 -0.0186570957 0.088424474
v  -0.0105724065 -0.018636208 0.0897918344
v  -0.0170193464 -0.0186725315 0.0842702165
v  -0.00733130286 -0.0186248124 0.0885894373
v  -0.0163567122 -0.0186756998 0.0808076262
v  -0.00419216556 -0.0186501257 0.0660848841
v  -0.00390244136 -0.0187416021 0.0117957033
v  0.00487954123 -0.018724177 0.000601079781
v  0.00385600794 -0.018760005 -0.0178786367
v  -0.00698799221 -0.0188545696 -0.0467899293
v  -0.0156740975 -0.0188614074 -0.029604882
v  -0.00688972743 -0.0188842155 -0.0643826872
v  -0.0145308962 -0.0188794583 -0.0429568402
v  -0.0180230439 -0.0188761335 -0.0324816927
v  -0.0171413552 -0.0188865736 -0.0407423116
v  -0.0187914539 -0.0188866071 -0.0367300808
v  -0.00839694496 -0.0189335681 -0.0893549547
v  -0.0179645922 -0.0189469736 -0.0740913525
v  -0.0189217925 -0.0189576726 -0.0780130774
v  -0.0187948886 -0.0189532209 -0.0757330135
v  -0.0163361393 -0.0189621355 -0.0869418606
v  -0.0124932546 -0.018950928 -0.0897497907

# 0 UV coordinates

# 96 vertex normals
vn 0.530092835 -0.810351789 -0.249662936
vn 0.529593408 0.733270645 -0.426432967
vn 0.563995004 0.799719095 0.205813348
vn 0.595581234 -0.722408831 0.351295292
vn 0.0527350828 0.849403143 -0.525102913
vn 0.250018924 0.873533905 0.417647094
vn 0.142664015 -0.879934847 0.453168452
vn 0.155072823 -0.858485878 -0.488829583
vn -0.710891426 -0.337728322 0.616905987
vn -0.533009887 -0.843259156 0.0693862364
vn -0.071063228 -0.572300673 0.816958904
vn 0.286406904 -0.810833812 0.510411203
vn -0.774301708 -0.564725578 -0.285555363
vn -0.626080513 -0.716998279 -0.306490898
vn -0.804044425 -0.56665802 -0.180030897
vn -0.848578513 -0.460839748 -0.25988692
vn -0.384116113 -0.899198234 0.209516749
vn -0.562884569 -0.754974425 -0.336414307
vn -0.522655547 -0.60437113 0.601304173
vn -0.490847796 -0.845177889 0.21152465
vn -0.415347397 -0.708832145 -0.570125818
vn -0.657454133 -0.715501368 0.236245319
vn -0.705760479 -0.563889444 -0.428871542
vn -0.882385015 -0.461224854 -0.0931040794
vn 0.131677553 -0.869016945 -0.476938814
vn -0.621669412 -0.559634566 0.548029482
vn -0.860746562 -0.453864634 0.230482593
vn -0.548134744 -0.834131122 -0.061429102
vn -0.187005028 -0.730017364 -0.65734607
vn -0.79235059 -0.255737305 -0.553876221
vn -0.504255474 0.339636773 0.793960512
vn 0.115259901 0.574072957 0.810651183
vn -0.778172731 0.619935989 0.100630701
vn 0.380246252 0.808562398 0.449043006
vn -0.713649571 0.56507951 -0.413992137
vn -0.670106888 0.725375354 -0.157439858
vn -0.73802495 0.573099554 -0.356196791
vn -0.651758909 0.729920089 -0.205977932
vn -0.495410234 0.816167653 0.297387302
vn -0.423268527 0.867863894 -0.260107577
vn -0.704806387 0.635437965 0.315383136
vn -0.311196834 0.801196694 -0.511116683
vn -0.459177375 0.713031411 0.529851258
vn -0.605474651 0.717617571 0.344129801
vn -0.626156151 0.563934565 -0.538429558
vn -0.962285817 0.252076179 -0.102291748
vn 0.237449288 0.864620805 -0.442773759
vn -0.685442805 0.561571181 0.463471562
vn -0.675554693 0.714920938 0.180316433
vn -0.790714622 0.605454266 -0.0905295685
vn -0.23458004 0.473367304 -0.849055707
vn -0.724296689 0.466579765 -0.507639289
vn -0.504255831 -0.337854385 0.794720411
vn -0.778176129 -0.619704664 0.102019675
vn 0.115251094 -0.572253466 0.811937809
vn 0.380246282 -0.807552457 0.450856805
vn -0.713644922 -0.566004395 -0.412734658
vn -0.67011404 -0.725719273 -0.155816182
vn -0.73802948 -0.573890209 -0.354911774
vn -0.505190909 -0.848442495 -0.1578843
vn -0.652996361 -0.646533966 0.3944484
vn -0.334257126 -0.919880152 -0.205164894
vn -0.359139085 -0.835429847 0.416024148
vn -0.703774989 -0.635669887 0.317213625
vn -0.367087424 -0.70994699 -0.601017475
vn -0.60547787 -0.716840982 0.345738918
vn -0.626160145 -0.565134764 -0.537164986
vn -0.962288499 -0.252295077 -0.10172537
vn 0.237846807 -0.867009342 -0.437862605
vn -0.580652177 -0.712485492 0.393963724
vn -0.790705919 -0.60566628 -0.0891765207
vn -0.860108733 -0.454764277 0.231089473
vn -0.61367327 -0.574064434 -0.542084098
vn -0.132223159 -0.335296571 -0.932787836
vn -0.710891187 0.339111447 0.616146922
vn -0.0710575879 0.574132681 0.815672994
vn -0.533001065 0.843418598 0.0674911365
vn 0.287028372 0.811782718 0.508550406
vn -0.774300098 0.564086974 -0.286819309
vn -0.625106156 0.717079997 -0.308283001
vn -0.803620279 0.566875935 -0.18123503
vn -0.756993175 0.611225426 -0.231008425
vn -0.455427676 0.851129353 0.261083096
vn -0.562879682 0.75422281 -0.338104188
vn -0.522653222 0.605716169 0.599951327
vn -0.49087441 0.845663846 0.209511712
vn -0.41534546 0.707555473 -0.571711123
vn -0.657448411 0.716034532 0.234640181
vn -0.705758274 0.56293118 -0.4301323
vn -0.882382691 0.46102038 -0.0941320434
vn 0.135126427 0.866350651 -0.480809212
vn -0.527573824 0.712404191 0.462759286
vn -0.548128366 0.833994269 -0.0633157268
vn -0.936037421 0.247426197 0.250228435
vn -0.721007884 0.571910679 -0.391236305
vn -0.362697631 0.332348496 -0.870628953

# Mesh 'mesh_0' with 188 faces
g mesh_0
usemtl material_0
f  1//1 2//2 3//3
f  4//4 1//1 3//3
f  5//5 6//6 7//7
f  8//8 5//5 7//7
f  9//9 10//10 11//11
f  11//11 10//10 12//12
f  10//10 13//13 12//12
f  12//12 13//13 14//14
f  7//7 12//12 14//14
f  15//15 7//7 14//14
f  16//16 7//7 15//15
f  7//7 16//16 17//17
f  8//8 7//7 17//17
f  8//8 17//17 18//18
f  18//18 17//17 19//19
f  20//20 8//8 18//18
f  21//21 18//18 19//19
f  21//21 19//19 22//22
f  23//23 21//21 22//22
f  24//24 23//23 22//22
f  25//25 8//8 20//20
f  26//26 25//25 20//20
f  25//25 26//26 27//27
f  27//27 28//28 25//25
f  28//28 29//29 25//25
f  30//30 29//29 28//28
f  31//31 32//32 33//33
f  32//32 34//34 33//33
f  34//34 35//35 33//33
f  35//35 34//34 36//36
f  34//34 3//3 36//36
f  37//37 36//36 3//3
f  38//38 37//37 3//3
f  39//39 38//38 3//3
f  2//2 39//39 3//3
f  40//40 39//39 2//2
f  41//41 40//40 2//2
f  39//39 40//40 42//42
f  43//43 39//39 42//42
f  44//44 43//43 42//42
f  45//45 44//44 42//42
f  46//46 44//44 45//45
f  47//47 41//41 2//2
f  48//48 41//41 47//47
f  49//49 48//48 47//47
f  47//47 50//50 49//49
f  47//47 51//51 50//50
f  52//52 50//50 51//51
f  53//53 54//54 55//55
f  55//55 54//54 56//56
f  54//54 57//57 56//56
f  57//57 58//58 56//56
f  58//58 4//4 56//56
f  58//58 59//59 4//4
f  59//59 60//60 4//4
f  4//4 60//60 1//1
f  60//60 61//61 1//1
f  61//61 62//62 1//1
f  62//62 61//61 63//63
f  62//62 64//64 1//1
f  65//65 62//62 63//63
f  65//65 63//63 66//66
f  67//67 65//65 66//66
f  68//68 67//67 66//66
f  64//64 69//69 1//1
f  70//70 69//69 64//64
f  71//71 69//69 70//70
f  72//72 71//71 70//70
f  73//73 69//69 71//71
f  74//74 69//69 73//73
f  75//75 76//76 77//77
f  76//76 78//78 77//77
f  78//78 79//79 77//77
f  79//79 78//78 80//80
f  78//78 6//6 80//80
f  80//80 6//6 81//81
f  81//81 6//6 82//82
f  82//82 6//6 5//5
f  83//83 82//82 5//5
f  84//84 83//83 5//5
f  85//85 83//83 84//84
f  86//86 84//84 5//5
f  87//87 85//85 84//84
f  88//88 85//85 87//87
f  89//89 88//88 87//87
f  90//90 88//88 89//89
f  91//91 86//86 5//5
f  92//92 86//86 91//91
f  92//92 91//91 93//93
f  94//94 92//92 93//93
f  95//95 93//93 91//91
f  96//96 95//95 91//91
f  60//60 59//59 82//82
f  60//60 82//82 61//61
f  59//59 81//81 82//82
f  82//82 83//83 61//61
f  81//81 59//59 58//58
f  80//80 81//81 58//58
f  80//80 58//58 57//57
f  79//79 80//80 57//57
f  83//83 85//85 61//61
f  85//85 63//63 61//61
f  63//63 85//85 66//66
f  85//85 88//88 66//66
f  57//57 54//54 79//79
f  54//54 77//77 79//79
f  75//75 77//77 54//54
f  53//53 75//75 54//54
f  76//76 75//75 53//53
f  55//55 76//76 53//53
f  78//78 76//76 55//55
f  56//56 78//78 55//55
f  6//6 78//78 56//56
f  4//4 6//6 56//56
f  66//66 88//88 68//68
f  88//88 90//90 68//68
f  68//68 90//90 89//89
f  67//67 68//68 89//89
f  89//89 87//87 67//67
f  87//87 65//65 67//67
f  4//4 7//7 6//6
f  3//3 7//7 4//4
f  3//3 34//34 7//7
f  34//34 12//12 7//7
f  34//34 32//32 12//12
f  32//32 11//11 12//12
f  32//32 31//31 11//11
f  31//31 9//9 11//11
f  87//87 84//84 65//65
f  84//84 62//62 65//65
f  9//9 31//31 33//33
f  10//10 9//9 33//33
f  13//13 10//10 33//33
f  35//35 13//13 33//33
f  13//13 35//35 14//14
f  35//35 36//36 14//14
f  14//14 36//36 15//15
f  36//36 37//37 15//15
f  62//62 84//84 64//64
f  84//84 86//86 64//64
f  86//86 92//92 64//64
f  92//92 70//70 64//64
f  16//16 15//15 37//37
f  38//38 16//16 37//37
f  92//92 94//94 70//70
f  94//94 72//72 70//70
f  16//16 38//38 39//39
f  17//17 16//16 39//39
f  71//71 72//72 94//94
f  93//93 71//71 94//94
f  93//93 95//95 71//71
f  95//95 73//73 71//71
f  95//95 96//96 73//73
f  96//96 74//74 73//73
f  74//74 96//96 91//91
f  69//69 74//74 91//91
f  19//19 17//17 39//39
f  43//43 19//19 39//39
f  19//19 43//43 44//44
f  22//22 19//19 44//44
f  69//69 91//91 5//5
f  1//1 69//69 5//5
f  2//2 1//1 5//5
f  8//8 2//2 5//5
f  47//47 2//2 8//8
f  25//25 47//47 8//8
f  22//22 44//44 46//46
f  24//24 22//22 46//46
f  23//23 24//24 46//46
f  45//45 23//23 46//46
f  23//23 45//45 21//21
f  45//45 42//42 21//21
f  51//51 47//47 25//25
f  29//29 51//51 25//25
f  21//21 42//42 18//18
f  42//42 40//40 18//18
f  51//51 29//29 30//30
f  52//52 51//51 30//30
f  18//18 40//40 41//41
f  20//20 18//18 41//41
f  20//20 41//41 26//26
f  41//41 48//48 26//26
f  50//50 52//52 30//30
f  28//28 50//50 30//30
f  26//26 48//48 27//27
f  50//50 28//28 27//27
f  48//48 49//49 27//27
f  49//49 50//50 27//27

