# File produced by Open Asset Import Library (http://www.assimp.sf.net)
# (assimp v5.2.0)

mtllib mrRM_rod_3_link_respondable_coll_1.mtl

# 30 vertex positions
v  0.0014771726 0.00849987101 -0.0651422665
v  0.00147741276 0.00993478484 -0.0607320331
v  0.00147698645 0.00450603338 -0.0675461441
v  0.00147700636 -0.000837022089 -0.0673261955
v  0.0014772265 -0.00392203731 -0.0634016916
v  0.001477991 0.00896681938 -0.0502357595
v  0.00147842232 -0.0108882822 -0.0418221802
v  0.001478786 -2.99570893e-05 -0.0360048711
v  0.00148300058 -0.0108887432 0.041503001
v  0.00148269872 4.75547968e-05 0.0363011397
v  0.00148351619 0.00929980073 0.0503355488
v  0.00148420362 -0.00460251607 0.063567169
v  0.00148403749 0.010888746 0.060955584
v  0.00148441806 -0.00173976563 0.0675460249
v  0.00148446567 0.00661584968 0.0675434098
v  -0.00148434332 0.00849986728 -0.0651421025
v  -0.00148446951 0.00450602919 -0.0675459802
v  -0.00148410304 0.00993478112 -0.0607318692
v  -0.0014844496 -0.000837026455 -0.0673260316
v  -0.00148422946 -0.00392204197 -0.0634015352
v  -0.00148352492 0.00896681473 -0.0502355993
v  -0.00148272992 -2.99614276e-05 -0.0360047109
v  -0.00148303364 -0.0108882859 -0.0418220162
v  -0.00147839542 -0.0108887479 0.0415031612
v  -0.00147869729 4.75504567e-05 0.0363013037
v  -0.00147719239 -0.00460252026 0.0635673329
v  -0.00147793978 0.00929979607 0.0503357127
v  -0.00147735851 0.0108887414 0.060955748
v  -0.00147697795 -0.00173977006 0.0675461888
v  -0.00147699029 0.00661584502 0.0675435737

# 0 UV coordinates

# 30 vertex normals
vn 0.4708049 0.690531373 -0.549098492
vn 0.805263162 0.58334142 -0.106131911
vn 0.569313228 0.281897932 -0.772279739
vn 0.587194979 -0.254989147 -0.768233418
vn 0.712007403 -0.599051058 -0.366310388
vn 0.715859532 0.676907361 0.171293721
vn 0.710928202 -0.688018024 -0.145644054
vn 0.719649434 0.645393491 0.256070316
vn 0.710519612 -0.696917832 0.0973000675
vn 0.462681442 0.849000454 -0.255194277
vn 0.714505136 0.669950366 -0.201615691
vn 0.711832225 -0.613389432 0.342123002
vn 0.848587394 0.51706022 0.11201892
vn 0.59408617 -0.240916789 0.767476857
vn 0.349731922 0.586875975 0.730249345
vn -0.257857382 0.756258428 -0.601317465
vn -0.569400787 0.123386808 -0.812747478
vn -0.805269599 0.592370152 -0.0252683535
vn -0.587273896 -0.473749608 -0.656255007
vn -0.804009676 -0.54058063 -0.247671157
vn -0.564248443 0.757885575 0.327464879
vn -0.810124695 0.576254308 0.107837558
vn -0.558876932 -0.824798167 -0.0858170465
vn -0.834505618 -0.545695782 0.0762641877
vn -0.842793345 0.515472233 -0.154879764
vn -0.803809762 -0.549652994 0.227533787
vn -0.562818468 0.748177707 -0.351376563
vn -0.625620008 0.762418389 0.165281326
vn -0.594005585 -0.482109725 0.643993378
vn -0.349642009 0.293601304 0.88969028

# Mesh 'mesh_0' with 56 faces
g mesh_0
usemtl material_0
f  1//1 2//2 3//3
f  2//2 4//4 3//3
f  4//4 2//2 5//5
f  2//2 6//6 5//5
f  7//7 5//5 6//6
f  8//8 7//7 6//6
f  9//9 7//7 8//8
f  10//10 9//9 8//8
f  9//9 10//10 11//11
f  12//12 9//9 11//11
f  12//12 11//11 13//13
f  14//14 12//12 13//13
f  15//15 14//14 13//13
f  16//16 17//17 18//18
f  17//17 19//19 18//18
f  19//19 20//20 18//18
f  20//20 21//21 18//18
f  22//22 21//21 20//20
f  23//23 22//22 20//20
f  22//22 23//23 24//24
f  25//25 22//22 24//24
f  25//25 24//24 26//26
f  27//27 25//25 26//26
f  28//28 27//27 26//26
f  29//29 28//28 26//26
f  30//30 28//28 29//29
f  25//25 10//10 22//22
f  25//25 27//27 10//10
f  10//10 8//8 22//22
f  27//27 11//11 10//10
f  22//22 8//8 21//21
f  8//8 6//6 21//21
f  21//21 6//6 18//18
f  6//6 2//2 18//18
f  11//11 27//27 28//28
f  13//13 11//11 28//28
f  15//15 13//13 28//28
f  30//30 15//15 28//28
f  14//14 15//15 30//30
f  29//29 14//14 30//30
f  12//12 14//14 29//29
f  26//26 12//12 29//29
f  18//18 2//2 16//16
f  2//2 1//1 16//16
f  16//16 1//1 3//3
f  17//17 16//16 3//3
f  17//17 3//3 4//4
f  19//19 17//17 4//4
f  19//19 4//4 5//5
f  20//20 19//19 5//5
f  20//20 5//5 7//7
f  23//23 20//20 7//7
f  9//9 12//12 26//26
f  23//23 7//7 9//9
f  24//24 9//9 26//26
f  24//24 23//23 9//9

