# File produced by Open Asset Import Library (http://www.assimp.sf.net)
# (assimp v5.2.0)

mtllib mrRM_rod_1_link_respondable_coll_1.mtl

# 30 vertex positions
v  -0.00148090255 -0.000793268031 -0.0678438544
v  -0.00148087461 -0.00692337938 -0.0664837956
v  -0.00148091104 0.00296005304 -0.0646387786
v  -0.00148085447 -0.00944856275 -0.0619488582
v  -0.0014808327 -0.00806084182 -0.0490445122
v  -0.00148088671 0.0105489595 -0.0386379771
v  -0.00148083956 0.000394039322 -0.0360381864
v  -0.00148068299 -0.000115468261 0.0362778455
v  -0.00148065446 0.0105491523 0.0420208126
v  -0.00148061418 -0.00950201415 0.0505164117
v  -0.00148058217 0.00427424209 0.0638485774
v  -0.00148058753 -0.0105492612 0.0609833486
v  -0.00148062105 0.0008190347 0.0670531616
v  -0.00148052536 -0.00901722815 0.0649557784
v  -0.00148059672 -0.00471647456 0.0678438544
v  0.00148061337 -0.000793255866 -0.0678438544
v  0.00148060487 0.00296006515 -0.064638786
v  0.00148064131 -0.00692336727 -0.0664838031
v  0.00148066145 -0.00944855064 -0.0619488657
v  0.00148068322 -0.00806080084 -0.0490444675
v  0.0014806292 0.0105490005 -0.0386379287
v  0.00148067635 0.000394022587 -0.0360382423
v  0.00148083293 -0.000115456132 0.0362778381
v  0.00148074154 0.0105491644 0.0420208052
v  0.00148090173 -0.00950200204 0.0505164079
v  0.00148081384 0.0042742542 0.06384857
v  0.00148092839 -0.0105492491 0.0609833412
v  0.00148083491 0.000819046807 0.0670531541
v  0.0014809306 -0.00901721604 0.064955771
v  0.00148091919 -0.00471651461 0.0678438768

# 0 UV coordinates

# 30 vertex normals
vn -0.344889998 0.0745588988 -0.935677171
vn -0.585788608 -0.575238228 -0.570922732
vn -0.810680509 0.457768321 -0.365027696
vn -0.723888814 -0.676100016 -0.137382209
vn -0.7157529 -0.674474537 0.18105723
vn -0.710677505 0.696437776 -0.0995578468
vn -0.462786257 -0.850789309 0.248970807
vn -0.72012496 -0.640861452 -0.265925825
vn -0.710185826 0.691754758 0.130810291
vn -0.716273069 -0.674485147 -0.178948969
vn -0.718690574 0.556051791 0.417480797
vn -0.715699196 -0.682559907 0.14794156
vn -0.721523404 0.231563076 0.65252012
vn -0.723675966 -0.539332271 0.430597246
vn -0.333858341 -0.325037092 0.884810448
vn 0.344886273 0.373228014 -0.861251593
vn 0.810674906 0.520717323 -0.267693251
vn 0.585789979 -0.382775962 -0.714375794
vn 0.464577585 -0.867797434 -0.176338464
vn 0.715760946 -0.637284398 0.285578191
vn 0.896220803 0.439143568 -0.0627788007
vn 0.722201169 -0.663842916 0.194262877
vn 0.720128417 -0.680480957 -0.135501713
vn 0.710179567 0.700976074 0.0654027387
vn 0.71627754 -0.636247158 -0.286594093
vn 0.718686521 0.623387933 0.308021337
vn 0.715707004 -0.697347343 0.03834185
vn 0.721521556 0.361114532 0.590764642
vn 0.464353532 -0.692118943 0.552582204
vn 0.333849579 -0.0917011052 0.938155353

# Mesh 'mesh_0' with 56 faces
g mesh_0
usemtl material_0
f  1//1 2//2 3//3
f  2//2 4//4 3//3
f  4//4 5//5 3//3
f  3//3 5//5 6//6
f  5//5 7//7 6//6
f  7//7 8//8 6//6
f  8//8 9//9 6//6
f  10//10 9//9 8//8
f  11//11 9//9 10//10
f  12//12 11//11 10//10
f  13//13 11//11 12//12
f  14//14 13//13 12//12
f  15//15 13//13 14//14
f  16//16 17//17 18//18
f  17//17 19//19 18//18
f  19//19 17//17 20//20
f  17//17 21//21 20//20
f  20//20 21//21 22//22
f  23//23 22//22 21//21
f  24//24 23//23 21//21
f  25//25 23//23 24//24
f  26//26 25//25 24//24
f  27//27 25//25 26//26
f  27//27 26//26 28//28
f  29//29 27//27 28//28
f  30//30 29//29 28//28
f  7//7 22//22 23//23
f  20//20 22//22 7//7
f  8//8 7//7 23//23
f  5//5 20//20 7//7
f  8//8 23//23 25//25
f  10//10 8//8 25//25
f  10//10 25//25 27//27
f  12//12 10//10 27//27
f  20//20 5//5 19//19
f  5//5 4//4 19//19
f  4//4 2//2 19//19
f  2//2 18//18 19//19
f  2//2 1//1 18//18
f  1//1 16//16 18//18
f  1//1 3//3 16//16
f  3//3 17//17 16//16
f  12//12 27//27 29//29
f  14//14 12//12 29//29
f  14//14 29//29 15//15
f  29//29 30//30 15//15
f  15//15 30//30 13//13
f  30//30 28//28 13//13
f  13//13 28//28 11//11
f  28//28 26//26 11//11
f  11//11 26//26 9//9
f  26//26 24//24 9//9
f  3//3 6//6 17//17
f  9//9 24//24 6//6
f  6//6 21//21 17//17
f  24//24 21//21 6//6

