# File produced by Open Asset Import Library (http://www.assimp.sf.net)
# (assimp v5.2.0)

mtllib mrRM_intelligent_controller_link_visual_vis_3.mtl

# 140 vertex positions
v  0.00223752251 0.0047029485 0.0412716717
v  -0.00291172252 0.0047029499 0.041271966
v  -0.00291172485 -0.00471865898 0.0412701778
v  0.00223751995 -0.00471865991 0.0412698872
v  -0.00273090322 -0.00567965163 -0.031773705
v  -0.00449588802 -0.00568075106 -0.0260103028
v  -0.00449621398 -0.00567965116 -0.0317736045
v  -0.00449643377 -0.00392407645 -0.0356664062
v  -0.00272802403 -0.00392407691 -0.035666503
v  -0.00449650642 -0.00132946949 -0.0369636789
v  -0.00272809668 -0.00132946996 -0.0369637795
v  -0.00449650595 0.0013438639 -0.0369631574
v  -0.00273119519 0.00134386343 -0.0369632542
v  -0.00449643191 0.00393797224 -0.0356650054
v  -0.00273112115 0.00393797178 -0.0356651023
v  -0.00449621119 0.00569210667 -0.0317715146
v  -0.00272780145 0.00569210621 -0.0317716151
v  -0.00449588522 0.00569106685 -0.0260082092
v  0.00449527754 0.0049617053 -0.0315955542
v  0.00449559325 0.00496066827 -0.0260088574
v  0.00449559093 -0.00495136948 -0.0260106698
v  0.00449527474 -0.00495033152 -0.031597361
v  0.00449507963 0.0033913767 -0.0350816511
v  0.00449507823 -0.00337763969 -0.0350829288
v  0.00449501676 0.00118055695 -0.0361875854
v  0.0044950163 -0.00116542645 -0.036187984
v  0.00251079071 0.00569210527 -0.0317719094
v  0.00381192751 0.00569106499 -0.0260086786
v  0.00381160155 0.00569210481 -0.031771984
v  0.00381138083 0.00393797038 -0.0356654748
v  0.00251259608 0.00393797085 -0.0356654003
v  0.00381130679 0.00134380301 -0.0369636267
v  0.00251252204 0.00134386227 -0.0369635522
v  0.00381130632 -0.00132947147 -0.0369641483
v  0.00251252134 -0.00132947124 -0.0369640738
v  0.00251259422 -0.00392407831 -0.035666801
v  0.00381137896 -0.00392407831 -0.0356669351
v  0.00251078792 -0.00567965303 -0.0317739993
v  0.00381159876 -0.00567965303 -0.0317740738
v  0.00381192472 -0.00568075338 -0.0260107722
v  0.00292111095 0.004948413 0.0399147198
v  0.00292114355 0.00440175319 0.040495418
v  0.00292114145 -0.0044151051 0.0404937752
v  0.00292110839 -0.00496362383 0.0399128981
v  0.00291834702 0.00495745288 -0.00894428045
v  0.00291834446 -0.0049545248 -0.00894609559
v  -0.00291178073 0.00567874452 0.0402372889
v  -0.00291178352 -0.00569200097 0.0402351953
v  -0.00291451905 0.00568774343 -0.00816763844
v  -0.00291452184 -0.00568407401 -0.008169787
v  0.00449644448 -0.00495414669 -0.010920288
v  0.00449644728 0.00495783146 -0.0109184766
v  -0.00337384851 0.00568801025 -0.0095162252
v  -0.00449497299 0.00568823004 -0.0109178284
v  -0.00449497579 -0.00568352826 -0.0109199211
v  -0.0033738513 -0.00568380766 -0.00951837841
v  -0.00449547404 -0.00568206888 -0.0186967999
v  0.00381233846 -0.00568207121 -0.018697273
v  0.00381277851 -0.00568353012 -0.0109203914
v  0.00223467918 -0.0056839087 -0.0089461999
v  -0.00223298697 -0.00568390731 -0.00894594751
v  0.00223746127 -0.00569200236 0.0402349047
v  0.0038127813 0.00568822818 -0.0109182978
v  0.00381234125 0.00568968756 -0.0186951589
v  -0.00449547125 0.00568968942 -0.0186946876
v  0.00223468198 0.00568790874 -0.0089441007
v  -0.00223298394 0.00568790967 -0.00894384831
v  0.00223746407 0.00567874312 0.0402369983
v  -0.00361642521 -0.00474490272 -0.0186966769
v  -0.00361648598 -0.0047447402 -0.019771006
v  0.00293537509 -0.00474474207 -0.0197713785
v  0.00293543586 -0.00474490412 -0.0186970495
v  0.00293543818 0.00475043524 -0.0186952837
v  0.00293537742 0.00475065736 -0.0197696146
v  -0.00361648365 0.00475065922 -0.019769242
v  -0.00361642288 0.0047504371 -0.0186949112
v  -0.00449553505 -0.00568190683 -0.0197711308
v  -0.00449565053 -0.00568154128 -0.0218116827
v  0.00381216221 -0.00568154315 -0.0218121521
v  0.00381227769 -0.00568190869 -0.0197716039
v  0.00381228048 0.00568990968 -0.0197694898
v  0.00381216523 0.00569027429 -0.0218100585
v  -0.00449564774 0.00569027616 -0.0218095873
v  -0.00449553225 0.00568991154 -0.0197690148
v  0.00449600443 -0.00495274691 -0.0186971761
v  0.00449600723 0.00495928945 -0.0186953377
v  0.0036191009 -0.00401349459 -0.0186969526
v  0.00361904013 -0.00401327247 -0.0197712816
v  0.00361904223 0.00401918776 -0.0197697897
v  0.00361910299 0.00401896425 -0.0186954588
v  0.0044959439 -0.00495252479 -0.019771507
v  0.00449582841 -0.00495215924 -0.0218120478
v  0.00449583074 0.00495987711 -0.0218102355
v  0.00449594622 0.00495951204 -0.0197696649
v  -0.00361660146 -0.00474431599 -0.0218115915
v  -0.00361666176 -0.00474413577 -0.0228775628
v  0.0029351993 -0.00474413764 -0.0228779335
v  0.0029352596 -0.00474431785 -0.0218119621
v  0.00361892465 -0.00401290692 -0.0218118634
v  0.00361886434 -0.00401272811 -0.0228778347
v  0.00361886644 0.00401979126 -0.0228763539
v  0.00361892674 0.00401955191 -0.0218103807
v  0.00293526216 0.00475102197 -0.0218102038
v  0.00293520186 0.00475120218 -0.022876177
v  -0.0036166592 0.00475120405 -0.0228758063
v  -0.0036165989 0.00475102384 -0.0218097754
v  -0.0044957106 -0.0056813024 -0.0228777137
v  -0.00449583307 -0.00568089308 -0.0250440482
v  0.00381197943 -0.00568089541 -0.0250445195
v  0.0038121019 -0.00568130426 -0.0228781831
v  0.00449576834 -0.00495192083 -0.0228780806
v  0.00449564541 -0.00495151151 -0.025044417
v  0.0044956482 0.00496046618 -0.0250425451
v  0.00449577067 0.00496005593 -0.0228762683
v  0.00381210493 0.00569045404 -0.0228760894
v  0.00381198223 0.00569086336 -0.0250423662
v  -0.00449583028 0.00569086522 -0.0250418968
v  -0.00449570781 0.00569045637 -0.0228756201
v  -0.0036168443 -0.00474372692 -0.0250438973
v  -0.00361689902 -0.00474352529 -0.026010152
v  0.00293502212 -0.00474352669 -0.0260105226
v  0.00293507683 -0.00474372832 -0.025044268
v  0.00361874187 -0.00401231786 -0.0250441711
v  0.00361868716 -0.00401211716 -0.0260104239
v  0.00361868925 0.00402034307 -0.0260089431
v  0.00361874374 0.00402020058 -0.0250426903
v  0.00293507916 0.0047516115 -0.0250425134
v  0.00293502444 0.00475181313 -0.0260087661
v  -0.00361683639 0.00475181453 -0.0260083955
v  -0.00361678191 0.0047516129 -0.0250421427
v  0.00251030037 0.00412900653 -0.0404333249
v  -0.00272829179 0.00412900746 -0.0404330269
v  -0.00273149833 0.00287508569 -0.0412706956
v  0.00251227873 0.00287508452 -0.0412709936
v  -0.0027314967 6.43125941e-06 -0.0412307121
v  0.00251228036 6.42921123e-06 -0.0412310101
v  -0.00272834091 -0.00286115799 -0.041271735
v  0.00251227734 -0.00286115916 -0.0412720293
v  -0.00273145246 -0.00397199672 -0.0404344983
v  0.00251029828 -0.00397199811 -0.0404347926

# 0 UV coordinates

# 140 vertex normals
vn 0.291164339 0.379767835 0.878065884
vn -0.478213221 0.347845227 0.806421578
vn -0.478295296 -0.348545909 0.806070328
vn 0.520635486 -0.283085465 0.80548203
vn -0.143659413 -0.974268973 -0.17367208
vn -0.577322304 -0.577460408 0.577268064
vn -0.837768972 -0.533818305 -0.114809297
vn -0.72546792 -0.54901129 -0.415069729
vn -0.726087213 -0.43551895 -0.532090843
vn -0.323180318 -0.288947642 -0.901145756
vn -0.715645313 -0.107121669 -0.690200388
vn -0.56398648 0.126296937 -0.816068828
vn -0.71568048 0.213277385 -0.665066898
vn -0.72547549 0.436905891 -0.531788111
vn -0.724830806 0.550086379 -0.41475907
vn -0.714161694 0.672130644 -0.195482895
vn -0.166223094 0.977836013 -0.127304956
vn -0.267233163 0.534380198 0.801887989
vn 0.932861984 0.356730133 -0.0501225553
vn 0.490187734 0.193444088 0.849879563
vn 0.558185816 -0.139988333 0.817821443
vn 0.932744563 -0.357008308 -0.0503246523
vn 0.920262396 0.28323397 -0.269991934
vn 0.920249224 -0.283153445 -0.270121217
vn 0.938105047 0.0798833817 -0.33701241
vn 0.858483553 -0.0785009637 -0.506797433
vn 0.19947198 0.959417999 -0.199318781
vn 0.265729308 0.794510186 0.546023309
vn 0.485727966 0.847477794 -0.214125693
vn 0.338940591 0.730214 -0.593217373
vn 0.725063205 0.437601537 -0.531778395
vn 0.477603614 0.237880141 -0.845758677
vn 0.715518534 0.106833473 -0.690376699
vn 0.3589288 -0.238196269 -0.902459145
vn 0.838866115 -0.124998592 -0.529791474
vn 0.725011706 -0.437490284 -0.531940103
vn 0.338934988 -0.729998291 -0.593485951
vn 0.199450299 -0.958701789 -0.202757046
vn 0.485492885 -0.847518504 -0.214497164
vn 0.265528709 -0.794816077 0.545675695
vn 0.938537538 0.335008085 0.0831680819
vn 0.851789355 0.209435031 0.480199724
vn 0.915250361 -0.211919859 0.342646718
vn 0.938383937 -0.335390002 0.0833616033
vn 0.887532949 0.346540093 0.303636551
vn 0.841094196 -0.344717056 0.416810006
vn -0.541153848 0.803627431 0.247660235
vn -0.620554805 -0.771263778 0.141647816
vn -0.879993558 0.452034444 0.145863399
vn -0.692852139 -0.71190691 0.114649765
vn 0.907095134 -0.364792198 0.210012227
vn 0.87536639 0.284115285 0.3911677
vn -0.702155948 0.559759915 0.440052152
vn -0.566191554 0.814378619 0.12733689
vn -0.445117831 -0.86880362 0.216910735
vn -0.748532474 -0.559913754 0.355240345
vn -0.534569681 -0.267113119 -0.801801682
vn 0.307783335 -0.710327864 -0.633011639
vn 0.445935041 -0.866166174 0.225606337
vn 0.329770416 -0.940720439 0.0793508142
vn 1.85614099e-05 -1 -0.000187723301
vn 0.424188554 -0.79133749 0.440282971
vn 0.434690207 0.886039436 0.161179349
vn 0.20755744 0.478845656 -0.853010416
vn -0.33337158 0.666792154 -0.666522026
vn 0.330127418 0.94056201 0.0797432587
vn -5.85755333e-06 1 0.000176173955
vn 0.507517636 0.778427064 0.369428217
vn -0.267311275 -0.534381568 -0.801860929
vn -0.4363828 -0.21837911 0.87285763
vn 0.308320284 -0.710248172 0.632839859
vn 0.207703874 -0.47841081 -0.853218794
vn 0.308260441 0.710258007 -0.6328578
vn 0.207804725 0.478391975 0.853204727
vn -0.267212361 0.534368396 0.801902711
vn -0.436487138 0.218380868 -0.872805119
vn -0.33329466 -0.666788697 0.666563988
vn -0.53456825 -0.267120183 -0.801800251
vn 0.307792008 -0.710333109 -0.633001506
vn 0.207511246 -0.478968352 0.852952778
vn 0.308091164 0.710175633 0.63303268
vn 0.207557812 0.478844196 -0.853011131
vn -0.333361179 0.666783988 -0.666535437
vn -0.534477293 0.267112255 0.801863492
vn 0.489951432 -0.193595827 -0.849981248
vn 0.633377135 0.250331849 -0.732234538
vn 0.724111557 -0.285617948 -0.627761781
vn 0.633604527 -0.250119746 0.732110262
vn 0.724183798 0.285608619 0.627682686
vn 0.633520067 0.250119209 -0.732183516
vn 0.633327305 -0.250532359 0.732209027
vn 0.489976734 -0.193594158 -0.849967122
vn 0.633386195 0.250331968 -0.732226729
vn 0.49017036 0.193435729 0.849891543
vn -0.267316937 -0.534388185 -0.80185467
vn -0.436397076 -0.218388781 0.872848153
vn 0.308315814 -0.710259378 0.632829368
vn 0.207713753 -0.478420556 -0.853210866
vn 0.724117279 -0.285625726 -0.627751589
vn 0.633599281 -0.250131547 0.732110798
vn 0.724189043 0.285616726 0.627672911
vn 0.6335302 0.2501221 -0.7321738
vn 0.308250874 0.710258663 -0.632861793
vn 0.207810402 0.478421956 0.853186488
vn -0.267225087 0.534391284 0.80188328
vn -0.436486065 0.218378231 -0.872806311
vn -0.333303809 -0.666793883 0.666554272
vn -0.53456676 -0.267104715 -0.80180639
vn 0.307791024 -0.710314929 -0.633022368
vn 0.207512408 -0.478985488 0.852942944
vn 0.63333714 -0.250534564 0.732199728
vn 0.489948392 -0.193578631 -0.84998703
vn 0.633380115 0.250335634 -0.732230663
vn 0.490187645 0.193443775 0.849879801
vn 0.308089495 0.710181773 0.6330266
vn 0.207559347 0.47885862 -0.853002667
vn -0.333375543 0.666794837 -0.666517377
vn -0.534489274 0.267120034 0.801852942
vn -0.267298847 -0.534357309 -0.801881313
vn -0.436400652 -0.218387783 0.872846663
vn 0.308321327 -0.710272074 0.63281244
vn 0.207694218 -0.47838679 -0.853234589
vn 0.724103868 -0.285620928 -0.627769411
vn 0.63360393 -0.250133395 0.732106149
vn 0.724191427 0.285617709 0.627669632
vn 0.633513689 0.250130206 -0.732185245
vn 0.308254868 0.710263014 -0.632854998
vn 0.207815334 0.478407055 0.8531937
vn -0.267220318 0.534383416 0.801890135
vn -0.43648383 0.218394175 -0.87280339
vn 0.476963967 0.735274315 -0.481536329
vn -0.734797657 0.56777072 -0.371091247
vn -0.721226752 0.264416307 -0.640246987
vn 0.721257985 0.127300709 -0.680868208
vn -0.707269192 -0.00373297534 -0.706934333
vn 0.707098126 0.00345783308 -0.707107008
vn -0.724427879 -0.137892634 -0.675418377
vn 0.724029362 -0.287599206 -0.626951575
vn -0.578651428 -0.630240321 -0.51764816
vn 0.577248871 -0.741297603 -0.342434675

# Mesh 'mesh_0' with 276 faces
g mesh_0
usemtl material_0
f  1//1 2//2 3//3
f  4//4 1//1 3//3
f  5//5 6//6 7//7
f  7//7 8//8 5//5
f  8//8 9//9 5//5
f  8//8 10//10 9//9
f  10//10 11//11 9//9
f  10//10 12//12 11//11
f  12//12 13//13 11//11
f  12//12 14//14 13//13
f  14//14 15//15 13//13
f  14//14 16//16 15//15
f  16//16 17//17 15//15
f  16//16 18//18 17//17
f  19//19 20//20 21//21
f  21//21 22//22 19//19
f  22//22 23//23 19//19
f  22//22 24//24 23//23
f  24//24 25//25 23//23
f  24//24 26//26 25//25
f  27//27 28//28 29//29
f  29//29 30//30 27//27
f  30//30 31//31 27//27
f  30//30 32//32 31//31
f  32//32 33//33 31//31
f  32//32 34//34 33//33
f  34//34 35//35 33//33
f  36//36 35//35 34//34
f  37//37 36//36 34//34
f  38//38 36//36 37//37
f  39//39 38//38 37//37
f  39//39 40//40 38//38
f  6//6 18//18 16//16
f  16//16 7//7 6//6
f  16//16 14//14 7//7
f  14//14 8//8 7//7
f  14//14 12//12 8//8
f  12//12 10//10 8//8
f  41//41 42//42 43//43
f  43//43 44//44 41//41
f  44//44 45//45 41//41
f  44//44 46//46 45//45
f  3//3 2//2 47//47
f  47//47 48//48 3//3
f  47//47 49//49 48//48
f  49//49 50//50 48//48
f  46//46 51//51 52//52
f  45//45 46//46 52//52
f  53//53 54//54 55//55
f  56//56 53//53 55//55
f  49//49 53//53 56//56
f  50//50 49//49 56//56
f  55//55 57//57 58//58
f  59//59 55//55 58//58
f  55//55 59//59 60//60
f  60//60 61//61 55//55
f  61//61 56//56 55//55
f  50//50 56//56 61//61
f  48//48 50//50 61//61
f  48//48 61//61 60//60
f  60//60 62//62 48//48
f  48//48 62//62 3//3
f  62//62 4//4 3//3
f  63//63 64//64 65//65
f  54//54 63//63 65//65
f  66//66 63//63 54//54
f  54//54 67//67 66//66
f  54//54 53//53 67//67
f  67//67 53//53 49//49
f  67//67 49//49 47//47
f  66//66 67//67 47//47
f  47//47 68//68 66//66
f  68//68 47//47 1//1
f  47//47 2//2 1//1
f  69//69 70//70 71//71
f  72//72 69//69 71//71
f  73//73 74//74 75//75
f  76//76 73//73 75//75
f  77//77 78//78 79//79
f  80//80 77//77 79//79
f  81//81 82//82 83//83
f  84//84 81//81 83//83
f  54//54 65//65 57//57
f  55//55 54//54 57//57
f  76//76 75//75 70//70
f  69//69 76//76 70//70
f  84//84 83//83 78//78
f  77//77 84//84 78//78
f  51//51 85//85 86//86
f  52//52 51//51 86//86
f  87//87 88//88 89//89
f  90//90 87//87 89//89
f  91//91 92//92 93//93
f  94//94 91//91 93//93
f  95//95 96//96 97//97
f  98//98 95//95 97//97
f  99//99 100//100 101//101
f  102//102 99//99 101//101
f  103//103 104//104 105//105
f  106//106 103//103 105//105
f  106//106 105//105 96//96
f  95//95 106//106 96//96
f  107//107 108//108 109//109
f  110//110 107//107 109//109
f  111//111 112//112 113//113
f  114//114 111//111 113//113
f  115//115 116//116 117//117
f  118//118 115//115 117//117
f  118//118 117//117 108//108
f  107//107 118//118 108//108
f  119//119 120//120 121//121
f  122//122 119//119 121//121
f  123//123 124//124 125//125
f  126//126 123//123 125//125
f  127//127 128//128 129//129
f  130//130 127//127 129//129
f  130//130 129//129 120//120
f  119//119 130//130 120//120
f  21//21 40//40 22//22
f  40//40 39//39 22//22
f  22//22 39//39 24//24
f  39//39 37//37 24//24
f  24//24 37//37 34//34
f  26//26 24//24 34//34
f  26//26 34//34 32//32
f  25//25 26//26 32//32
f  25//25 32//32 23//23
f  32//32 30//30 23//23
f  23//23 30//30 29//29
f  19//19 23//23 29//29
f  29//29 28//28 19//19
f  28//28 20//20 19//19
f  85//85 51//51 58//58
f  51//51 59//59 58//58
f  51//51 46//46 59//59
f  46//46 60//60 59//59
f  46//46 44//44 60//60
f  44//44 62//62 60//60
f  44//44 43//43 62//62
f  43//43 4//4 62//62
f  43//43 42//42 4//4
f  42//42 1//1 4//4
f  68//68 1//1 42//42
f  41//41 68//68 42//42
f  68//68 41//41 66//66
f  41//41 45//45 66//66
f  66//66 45//45 63//63
f  45//45 52//52 63//63
f  63//63 52//52 86//86
f  64//64 63//63 86//86
f  87//87 72//72 71//71
f  88//88 87//87 71//71
f  73//73 90//90 89//89
f  74//74 73//73 89//89
f  91//91 80//80 79//79
f  92//92 91//91 79//79
f  81//81 94//94 93//93
f  82//82 81//81 93//93
f  99//99 98//98 97//97
f  100//100 99//99 97//97
f  103//103 102//102 101//101
f  104//104 103//103 101//101
f  111//111 110//110 109//109
f  112//112 111//111 109//109
f  115//115 114//114 113//113
f  116//116 115//115 113//113
f  123//123 122//122 121//121
f  124//124 123//123 121//121
f  127//127 126//126 125//125
f  128//128 127//127 125//125
f  18//18 28//28 17//17
f  28//28 27//27 17//17
f  27//27 131//131 17//17
f  131//131 132//132 17//17
f  132//132 131//131 133//133
f  131//131 134//134 133//133
f  133//133 134//134 135//135
f  134//134 136//136 135//135
f  135//135 136//136 137//137
f  136//136 138//138 137//137
f  137//137 138//138 139//139
f  138//138 140//140 139//139
f  139//139 140//140 5//5
f  140//140 38//38 5//5
f  38//38 40//40 5//5
f  40//40 6//6 5//5
f  139//139 5//5 9//9
f  137//137 139//139 9//9
f  137//137 9//9 11//11
f  135//135 137//137 11//11
f  13//13 135//135 11//11
f  133//133 135//135 13//13
f  15//15 133//133 13//13
f  132//132 133//133 15//15
f  17//17 132//132 15//15
f  38//38 140//140 36//36
f  140//140 138//138 36//36
f  36//36 138//138 35//35
f  138//138 136//136 35//35
f  35//35 136//136 33//33
f  136//136 134//134 33//33
f  134//134 31//31 33//33
f  134//134 131//131 31//31
f  131//131 27//27 31//31
f  65//65 76//76 57//57
f  76//76 65//65 64//64
f  76//76 69//69 57//57
f  73//73 76//76 64//64
f  58//58 57//57 69//69
f  72//72 58//58 69//69
f  85//85 58//58 72//72
f  87//87 85//85 72//72
f  73//73 64//64 86//86
f  85//85 87//87 86//86
f  90//90 73//73 86//86
f  87//87 90//90 86//86
f  70//70 77//77 80//80
f  77//77 70//70 84//84
f  71//71 70//70 80//80
f  70//70 75//75 84//84
f  81//81 84//84 75//75
f  74//74 81//81 75//75
f  94//94 81//81 74//74
f  89//89 94//94 74//74
f  71//71 80//80 91//91
f  94//94 89//89 91//91
f  88//88 71//71 91//91
f  89//89 88//88 91//91
f  83//83 106//106 78//78
f  106//106 83//83 82//82
f  106//106 95//95 78//78
f  103//103 106//106 82//82
f  79//79 78//78 95//95
f  98//98 79//79 95//95
f  79//79 98//98 92//92
f  98//98 99//99 92//92
f  103//103 82//82 93//93
f  92//92 99//99 93//93
f  102//102 103//103 93//93
f  99//99 102//102 93//93
f  96//96 107//107 110//110
f  107//107 96//96 118//118
f  97//97 96//96 110//110
f  96//96 105//105 118//118
f  115//115 118//118 105//105
f  104//104 115//115 105//105
f  114//114 115//115 104//104
f  101//101 114//114 104//104
f  97//97 110//110 111//111
f  114//114 101//101 111//111
f  100//100 97//97 111//111
f  101//101 100//100 111//111
f  117//117 130//130 108//108
f  130//130 117//117 116//116
f  130//130 119//119 108//108
f  127//127 130//130 116//116
f  109//109 108//108 119//119
f  122//122 109//109 119//119
f  112//112 109//109 122//122
f  123//123 112//112 122//122
f  127//127 116//116 113//113
f  112//112 123//123 113//113
f  126//126 127//127 113//113
f  123//123 126//126 113//113
f  120//120 6//6 40//40
f  6//6 120//120 18//18
f  121//121 120//120 40//40
f  120//120 129//129 18//18
f  28//28 18//18 129//129
f  128//128 28//28 129//129
f  20//20 28//28 128//128
f  125//125 20//20 128//128
f  40//40 21//21 121//121
f  20//20 125//125 21//21
f  21//21 124//124 121//121
f  125//125 124//124 21//21

