# File produced by Open Asset Import Library (http://www.assimp.sf.net)
# (assimp v5.2.0)

mtllib mrRM_triangle_link_respondable_coll_1.mtl

# 44 vertex positions
v  0.00154588104 0.0203164369 -0.0162815433
v  0.00154071953 0.0155143822 -0.0255017988
v  0.00154359511 0.0191422068 -0.0227250308
v  0.00154487079 0.0168554876 -0.011840486
v  0.00153741997 0.0103346901 -0.0261694063
v  0.00153556047 0.00596860424 -0.0229605157
v  0.00154244644 0.0122009488 -0.0102279447
v  0.00152871676 -0.00504623214 -0.0236715525
v  0.00153846666 -0.00516943075 0.0165236872
v  0.00153064297 -0.0164749827 0.0125232078
v  0.00152465352 -0.0163564831 -0.0122750392
v  0.00152205932 -0.0191899408 -0.0158691127
v  0.0015265696 -0.00764407543 -0.026020078
v  0.0015198139 -0.0203181412 -0.0222608317
v  0.00152377842 -0.0115462942 -0.0277722962
v  0.00152100774 -0.0165448058 -0.0267247185
v  0.00152968033 -0.0197554938 0.0167118032
v  0.00154007715 -0.00457417732 0.0216377992
v  0.00153916702 -0.00854326598 0.0277473219
v  0.00153100758 -0.0201985706 0.0232396275
v  0.00153501483 -0.0154101672 0.027771486
v  0.0015198139 -0.0203181971 -0.022260854
v  -0.00154469558 -0.0165429488 -0.0267239679
v  -0.00154588942 -0.0203163195 -0.0222601593
v  -0.00154192478 -0.0115444381 -0.0277715456
v  0.00152205932 -0.0191899966 -0.015869135
v  -0.001543644 -0.0191881396 -0.0158683844
v  -0.00153913361 -0.00764221884 -0.0260193292
v  -0.00154104969 -0.016354626 -0.0122742895
v  -0.00153698644 -0.00504437555 -0.0236708038
v  -0.00153506023 -0.0164731257 0.0125239575
v  -0.00153014285 0.00597046083 -0.0229597669
v  -0.00153602299 -0.0197536387 0.0167125519
v  -0.00152828335 0.0103365462 -0.0261686575
v  -0.00153469574 -0.0201967135 0.0232403763
v  -0.00152498367 0.0155162383 -0.0255010501
v  -0.00153068849 -0.015408311 0.0277722348
v  -0.00152210821 0.019144062 -0.022724282
v  -0.00152653619 -0.00854140986 0.0277480707
v  -0.00151982228 0.0203182921 -0.0162807945
v  -0.00152562605 -0.0045723212 0.0216385499
v  -0.00152083242 0.0168573428 -0.0118397372
v  -0.00152723654 -0.00516757462 0.016524436
v  -0.00152325677 0.0122028049 -0.010227195

# 0 UV coordinates

# 42 vertex normals
vn 0.58615762 0.749640107 0.307341754
vn 0.71797955 0.321065664 -0.617593825
vn 0.334479183 0.860116005 -0.385128826
vn 0.810806334 0.291996092 0.507278442
vn 0.579663813 -0.0979373753 -0.808948696
vn 0.725926101 -0.271573633 -0.63188535
vn 0.724692643 0.483564615 0.49090302
vn 0.903133214 0.119792059 -0.412310928
vn 0.815495193 0.575252235 0.0636580884
vn 0.723743975 -0.673271477 -0.151328221
vn 0.573903441 -0.738445997 0.354023218
vn 0.716305733 -0.658523083 0.230766907
vn 0.711067438 0.414496511 -0.567957699
vn 0.736780822 -0.617790818 -0.274751812
vn 0.57168138 0.175226852 -0.801545918
vn 0.330072224 -0.388209403 -0.860433459
vn 0.810911596 -0.522204995 -0.264053583
vn 0.57597208 0.767989755 0.280085564
vn 0.745846272 0.209701538 0.632248819
vn 0.588143766 -0.789874434 0.173739359
vn 0.335208118 -0.459962636 0.82223469
vn -0.331046343 -0.572428763 -0.750155628
vn -0.588758528 -0.803560734 -0.0874854401
vn -0.722791612 0.000289789808 -0.691065907
vn -0.807971776 -0.515524149 0.28533566
vn -0.558816373 0.416678429 -0.71701014
vn -0.574705482 -0.79939425 0.175164163
vn -0.868585587 0.244722947 -0.430894107
vn -0.868597686 -0.446556658 -0.214767903
vn -0.726478219 -0.111735329 -0.678044677
vn -0.570592105 -0.792803586 -0.214213222
vn -0.580290377 -0.306019992 -0.754728258
vn -0.73778069 -0.58279407 0.340632826
vn -0.717973053 0.207072571 -0.664556682
vn -0.335200548 -0.227907106 0.914165735
vn -0.333752126 0.734918237 -0.590342999
vn -0.597399414 0.502761304 0.624775946
vn -0.585121751 0.807456732 0.0751406774
vn -0.814776957 0.576220453 0.0640977323
vn -0.810163915 0.386471629 0.44076547
vn -0.574890316 0.768741488 0.28024596
vn -0.813541412 0.304345667 0.495503843

# Mesh 'mesh_0' with 80 faces
g mesh_0
usemtl material_0
f  1//1 2//2 3//3
f  1//1 4//4 2//2
f  5//5 2//2 4//4
f  5//5 4//4 6//6
f  7//7 6//6 4//4
f  8//8 6//6 7//7
f  9//9 8//8 7//7
f  10//10 8//8 9//9
f  11//11 8//8 10//10
f  11//11 12//12 8//8
f  13//13 8//8 12//12
f  12//12 14//14 13//13
f  15//15 13//13 14//14
f  16//16 15//15 14//14
f  10//10 9//9 17//17
f  18//18 17//17 9//9
f  18//18 19//19 17//17
f  20//20 17//17 19//19
f  21//21 20//20 19//19
f  16//16 22//14 23//22
f  24//23 23//22 22//14
f  23//22 25//24 16//16
f  22//14 26//12 24//23
f  15//15 16//16 25//24
f  27//25 24//23 26//12
f  25//24 28//26 15//15
f  26//12 11//11 27//25
f  13//13 15//15 28//26
f  29//27 27//25 11//11
f  28//26 30//28 13//13
f  11//11 10//10 29//27
f  8//8 13//13 30//28
f  31//29 29//27 10//10
f  30//28 32//30 8//8
f  10//10 17//17 31//29
f  6//6 8//8 32//30
f  33//31 31//29 17//17
f  32//30 34//32 6//6
f  17//17 20//20 33//31
f  5//5 6//6 34//32
f  35//33 33//31 20//20
f  34//32 36//34 5//5
f  20//20 21//21 35//33
f  2//2 5//5 36//34
f  37//35 35//33 21//21
f  36//34 38//36 2//2
f  21//21 19//19 37//35
f  3//3 2//2 38//36
f  39//37 37//35 19//19
f  38//36 40//38 3//3
f  19//19 18//18 39//37
f  1//1 3//3 40//38
f  41//39 39//37 18//18
f  40//38 42//40 1//1
f  18//18 9//9 41//39
f  4//4 1//1 42//40
f  43//41 41//39 9//9
f  42//40 44//42 4//4
f  9//9 7//7 43//41
f  7//7 4//4 44//42
f  44//42 43//41 7//7
f  40//38 38//36 36//34
f  40//38 36//34 42//40
f  34//32 42//40 36//34
f  34//32 32//30 42//40
f  44//42 42//40 32//30
f  30//28 44//42 32//30
f  31//29 44//42 30//28
f  43//41 44//42 31//29
f  43//41 31//29 41//39
f  29//27 31//29 30//28
f  33//31 41//39 31//29
f  33//31 35//33 41//39
f  39//37 41//39 35//33
f  37//35 39//37 35//33
f  29//27 30//28 27//25
f  28//26 27//25 30//28
f  28//26 25//24 27//25
f  24//23 27//25 25//24
f  23//22 24//23 25//24

