# File produced by Open Asset Import Library (http://www.assimp.sf.net)
# (assimp v5.2.0)

mtllib mrRM_intelligent_controller_link_visual_vis_2.mtl

# 140 vertex positions
v  -0.0634847581 -0.00568089215 -0.02600706
v  -0.0652503371 -0.00567985093 -0.0317702629
v  -0.063485086 -0.00567985186 -0.0317703635
v  -0.0717925727 0.00569086848 -0.0260044355
v  -0.0704920292 0.0056919679 -0.0317678675
v  -0.0717928335 0.00569196884 -0.0317677967
v  -0.0634847581 0.00569086522 -0.0260049067
v  -0.063485086 0.00569196558 -0.0317682661
v  -0.0652534366 0.00569196651 -0.0317681655
v  -0.0717925727 -0.00568088889 -0.0260065906
v  -0.071792841 -0.0056798486 -0.0317698941
v  -0.0704920292 -0.00567984907 -0.0317699686
v  -0.0724761784 -0.00495150499 -0.0260064099
v  -0.0724761784 0.00496047176 -0.0260045379
v  -0.0724764988 -0.0049504675 -0.031593103
v  -0.0724766925 0.00339118182 -0.0350773931
v  -0.0724764913 0.00496151065 -0.0315912254
v  -0.0724767521 -0.00116562215 -0.036183726
v  -0.0724766925 -0.0033778355 -0.0350786746
v  -0.0724767521 0.00118042144 -0.0361833163
v  -0.0634853095 -0.00392427761 -0.0356631652
v  -0.0634853765 0.0013436639 -0.0369599164
v  -0.063485302 0.00393783115 -0.0356616937
v  -0.0634853765 -0.00132961047 -0.0369603783
v  -0.0708942562 -0.00441530626 0.0404978655
v  -0.0708942562 0.00440161163 0.0404995568
v  -0.070894286 -0.00496376492 0.0399169885
v  -0.070896998 0.00495731458 -0.00894014165
v  -0.070896998 -0.00495472271 -0.00894200802
v  -0.070894286 0.00494821183 0.0399188548
v  -0.065061301 0.00470274547 0.0412753932
v  -0.065061301 -0.00471886341 0.041273661
v  -0.0650613606 0.00567853963 0.0402407199
v  -0.0650641099 -0.00568421511 -0.00816630945
v  -0.0650640428 0.00568754179 -0.00816422049
v  -0.0650613606 -0.00569220446 0.0402386151
v  -0.0724753812 -0.00495434273 -0.0109160272
v  -0.0724753812 0.00495769409 -0.0109141562
v  -0.0634839013 0.00568808755 -0.010914525
v  -0.0646049231 0.00568780908 -0.0095128594
v  -0.0634839013 -0.00568372989 -0.0109166782
v  -0.0646049306 -0.00568394922 -0.00951495953
v  -0.0634843484 -0.00568227097 -0.0186935533
v  -0.071792163 -0.00568226771 -0.0186930839
v  -0.0717917159 -0.00568372663 -0.0109162079
v  -0.0702133328 -0.00568410661 -0.00894218963
v  -0.0657457262 -0.00568410801 -0.00894244201
v  -0.0702106059 -0.00569220306 0.0402389057
v  -0.0702105463 -0.00471886154 0.0412739515
v  -0.0702105463 0.00470274687 0.0412756838
v  -0.0702106059 0.00567854149 0.0402410105
v  -0.0702133328 0.00568771083 -0.0089400392
v  -0.0657457262 0.00568770943 -0.00894029252
v  -0.0717917159 0.00568809081 -0.0109140538
v  -0.0634843409 0.0056895474 -0.0186914597
v  -0.0717921555 0.00568955066 -0.0186909884
v  -0.0643633977 -0.00474488176 -0.0197676457
v  -0.0643633381 -0.00474510482 -0.0186933633
v  -0.0709152594 -0.00474487944 -0.0197672769
v  -0.0709151924 -0.00474510202 -0.0186929926
v  -0.070915252 0.00475045992 -0.0197655112
v  -0.0709151924 0.0047502378 -0.0186912362
v  -0.0643633902 0.00475045759 -0.01976588
v  -0.0643633306 0.00475023501 -0.0186916068
v  -0.0634845197 -0.00568168331 -0.0218084399
v  -0.063484408 -0.00568204885 -0.0197678693
v  -0.0717923343 -0.00568168005 -0.0218079686
v  -0.0717922226 -0.00568204559 -0.0197674036
v  -0.0717923343 0.00569007825 -0.021805875
v  -0.0717922151 0.00568971317 -0.0197652876
v  -0.0634845197 0.00569007499 -0.0218063444
v  -0.0634844005 0.00568970991 -0.0197657552
v  -0.0724758208 -0.00495288428 -0.0186929032
v  -0.0724758208 0.00495909387 -0.0186910909
v  -0.0715989247 -0.00401346851 -0.0197671019
v  -0.0715988576 -0.00401363242 -0.0186928157
v  -0.0715989172 0.00401905086 -0.0197656099
v  -0.0715988576 0.00401882734 -0.0186913349
v  -0.0724759996 -0.00495229615 -0.0218077898
v  -0.0724758878 -0.00495266169 -0.0197672285
v  -0.07247594 0.00495968014 -0.0218059756
v  -0.0724758208 0.00495931599 -0.0197653864
v  -0.064363569 -0.00474433741 -0.0228742212
v  -0.0643635094 -0.00474451669 -0.0218081884
v  -0.0709154308 -0.00474433461 -0.0228738505
v  -0.0709153712 -0.00474451389 -0.0218078177
v  -0.0715990961 -0.00401286501 -0.0228736736
v  -0.0715990365 -0.00401304429 -0.0218076408
v  -0.0715990961 0.00401959522 -0.0228721928
v  -0.0715990365 0.00401941501 -0.02180616
v  -0.0709154308 0.00475106481 -0.0228720922
v  -0.0709153712 0.00475082593 -0.0218060613
v  -0.064363569 0.00475106202 -0.0228724629
v  -0.0643635094 0.00475082314 -0.0218064319
v  -0.063484706 -0.00568109378 -0.0250407457
v  -0.0634845793 -0.0056815045 -0.0228744708
v  -0.0717925206 -0.00568109052 -0.0250402763
v  -0.0717923939 -0.00568150124 -0.0228740014
v  -0.0724761263 -0.00495170662 -0.0250400975
v  -0.0724759996 -0.00495211734 -0.0228738207
v  -0.0724761188 0.00496027013 -0.0250382833
v  -0.0724759996 0.00495991996 -0.0228719469
v  -0.0717925131 0.00569072692 -0.0250381827
v  -0.0717923939 0.0056903176 -0.0228718463
v  -0.0634846985 0.00569072366 -0.0250386521
v  -0.0634845793 0.00569031434 -0.0228723176
v  -0.0643637478 -0.00474372646 -0.0260068104
v  -0.0643636957 -0.00474392716 -0.0250405576
v  -0.0709156096 -0.00474372413 -0.0260064397
v  -0.0709155574 -0.00474392483 -0.0250401869
v  -0.0715992749 -0.00401231274 -0.0260062627
v  -0.0715992227 -0.0040124543 -0.0250400081
v  -0.0715992749 0.00402020663 -0.0260047801
v  -0.0715992153 0.00402000453 -0.0250385273
v  -0.0709156096 0.00475161569 -0.0260046814
v  -0.07091555 0.00475141499 -0.0250384286
v  -0.0643637478 0.0047516129 -0.026005052
v  -0.0643636882 0.0047514122 -0.0250387993
v  -0.071793057 0.00393783441 -0.0356612243
v  -0.0704943314 0.00393783394 -0.0356612951
v  -0.0717931315 0.00134366681 -0.036959447
v  -0.0704944059 0.00134366646 -0.0369595215
v  -0.0717931315 -0.00132960756 -0.0369599685
v  -0.0704944059 -0.00132960803 -0.036960043
v  -0.0704943389 -0.00392427528 -0.0356627665
v  -0.071793057 -0.00392427435 -0.0356626958
v  -0.0652536601 -0.00392427668 -0.0356630646
v  -0.0652537271 -0.00132960977 -0.0369602777
v  -0.0652506277 0.0013436646 -0.0369598158
v  -0.0652505532 0.00393783208 -0.0356615931
v  -0.0704925135 0.00412881048 -0.0404292308
v  -0.0652539283 0.00412880909 -0.0404295288
v  -0.0652508736 0.00287494599 -0.0412671976
v  -0.0704946518 0.00287494808 -0.0412668996
v  -0.0652508736 6.25878693e-06 -0.0412272066
v  -0.0704946518 6.26145993e-06 -0.0412269086
v  -0.065253973 -0.00286135776 -0.0412682854
v  -0.0704946518 -0.00286135566 -0.0412679873
v  -0.0652508289 -0.00397219649 -0.0404310487
v  -0.0704925209 -0.00397219462 -0.0404307507

# 0 UV coordinates

# 140 vertex normals
vn 0.727633774 -0.485164255 0.484937847
vn 0.14363876 -0.974269629 -0.173685044
vn 0.455319792 -0.870404124 -0.18729791
vn -0.265678734 0.794492424 0.546073914
vn -0.19949168 0.959418654 -0.199295998
vn -0.485771745 0.847467542 -0.214066476
vn 0.267307639 0.534367502 0.801871538
vn 0.805705488 0.568728566 -0.165489241
vn 0.166209251 0.977836192 -0.127322122
vn -0.265478283 -0.794807315 0.545712948
vn -0.48552832 -0.847512722 -0.214439794
vn -0.199475005 -0.958702147 -0.202731341
vn -0.392048478 -0.155196548 0.906759083
vn -0.771386385 0.141200826 0.620504141
vn -0.951290786 -0.305290669 -0.0429344401
vn -0.939675093 0.247646615 -0.235969931
vn -0.846893966 0.526606739 -0.0738634393
vn -0.937985897 -0.0530781373 -0.342585891
vn -0.842313886 -0.390048563 -0.371980399
vn -0.888340712 0.105937243 -0.44679746
vn 0.814757228 -0.462458313 -0.349718511
vn 0.715518534 0.106825918 -0.690377712
vn 0.331428856 0.598897576 -0.72902441
vn 0.323077202 -0.288937688 -0.901185989
vn -0.866314352 -0.262703657 0.424836874
vn -0.925420165 0.151468322 0.347354323
vn -0.938377857 -0.335383326 0.0834572539
vn -0.918904543 0.29665342 0.260021418
vn -0.841042101 -0.344716698 0.416915655
vn -0.858368218 0.497892678 0.123720728
vn 0.478304535 0.347847044 0.806366801
vn 0.632755339 -0.307361275 0.710738897
vn 0.541182876 0.803626597 0.247599468
vn 0.794434607 -0.60388881 0.0647457689
vn 0.809129775 0.559269786 0.180350348
vn 0.334960669 -0.91389811 0.229328632
vn -0.907073379 -0.364784867 0.210118666
vn -0.875318468 0.284113139 0.391276509
vn 0.672042489 0.724942803 0.151052743
vn 0.70220089 0.559752643 0.439989656
vn 0.619106174 -0.725029349 0.301728278
vn 0.537419379 -0.803875685 0.254880965
vn 0.534487665 -0.267119378 -0.801854193
vn -0.307863563 -0.71032989 -0.632970452
vn -0.371800005 -0.909050167 0.188128993
vn -0.286814541 -0.955496669 0.0690183714
vn 1.59649644e-05 -1 -0.000198783033
vn -0.424151748 -0.791342735 0.440309018
vn -0.52055043 -0.283091903 0.80553478
vn -0.291051418 0.379772633 0.87810117
vn -0.507463694 0.778436005 0.369483382
vn -0.386917979 0.91736275 0.0934883058
vn 1.17511718e-05 1 0.000195831395
vn -0.379978269 0.914189339 0.140976533
vn 0.333302587 0.666793108 -0.666555643
vn -0.207664028 0.478851825 -0.852981031
vn 0.436486453 -0.218381733 0.872805238
vn 0.267219871 -0.534381211 -0.801891685
vn -0.308253139 -0.710258305 0.632861078
vn -0.20781526 -0.478406042 -0.853194237
vn -0.207700029 0.478399456 0.853226066
vn -0.308320582 0.71027118 -0.632813692
vn 0.267304242 0.534368396 0.801872075
vn 0.436398983 0.218389079 -0.872847199
vn 0.534464836 -0.267108917 -0.801872909
vn 0.333369285 -0.666788578 0.666526675
vn -0.307864428 -0.710317731 -0.632983565
vn -0.207415015 -0.478968531 0.852976084
vn -0.207659453 0.47881484 -0.853002846
vn -0.308033586 0.710166276 0.633071244
vn 0.333285719 0.666783571 -0.666573584
vn 0.534568608 0.267112494 0.801802576
vn -0.490072221 -0.193592265 -0.849912465
vn -0.633473039 0.250326902 -0.732153237
vn -0.63350606 -0.25012818 0.732192516
vn -0.724191964 -0.285618335 -0.627668977
vn -0.724104345 0.285622805 0.627767861
vn -0.633603036 0.250132889 -0.732107103
vn -0.490043402 -0.193578318 -0.849932194
vn -0.63324523 -0.250530213 0.732280791
vn -0.63345623 0.250316828 -0.732171178
vn -0.490081519 0.193427742 0.849944592
vn 0.436482549 -0.218391448 0.872804761
vn 0.267211825 -0.534368038 -0.801903188
vn -0.308257431 -0.710250795 0.632867455
vn -0.207802802 -0.478387296 -0.853207827
vn -0.633524537 -0.250120014 0.732179523
vn -0.724180102 -0.285612851 -0.62768501
vn -0.724110246 0.285613775 0.627765179
vn -0.633578122 0.250126064 -0.732130945
vn -0.207702205 0.478378356 0.853237391
vn -0.308321446 0.710258007 -0.632828236
vn 0.267298162 0.534357011 0.801881671
vn 0.436378598 0.218366072 -0.872863173
vn 0.534487844 -0.267119646 -0.801853955
vn 0.333376735 -0.66679585 0.666515768
vn -0.307876468 -0.710321307 -0.632973731
vn -0.207425222 -0.47897765 0.852968454
vn -0.490078479 -0.193583816 -0.849910796
vn -0.633255541 -0.25052458 0.732273757
vn -0.633480191 0.25031352 -0.732151628
vn -0.490074873 0.193419755 0.849950194
vn -0.207673237 0.478843182 -0.852983594
vn -0.308040142 0.710155249 0.633080304
vn 0.333302945 0.666793525 -0.666554987
vn 0.534568846 0.267105669 0.801804543
vn 0.436486155 -0.218393385 0.872802496
vn 0.267220348 -0.534381986 -0.801891029
vn -0.308254838 -0.710263908 0.632853925
vn -0.207815036 -0.478405625 -0.853194654
vn -0.633514822 -0.250130832 0.732184052
vn -0.724190891 -0.285617352 -0.627670467
vn -0.724103749 0.285620391 0.627769709
vn -0.633604884 0.250133932 -0.732105136
vn -0.20769538 0.478388816 0.853233159
vn -0.308321357 0.710271895 -0.632812679
vn 0.267300427 0.534361482 0.801878035
vn 0.436399072 0.218388572 -0.872847259
vn -0.339004397 0.730216146 -0.593178272
vn -0.725108743 0.437630892 -0.531691968
vn -0.477697104 0.237889841 -0.845703244
vn -0.715595603 0.10683725 -0.690296173
vn -0.359030694 -0.238198355 -0.902418077
vn -0.838926315 -0.124995843 -0.529696703
vn -0.725067198 -0.437508106 -0.531849802
vn -0.339003682 -0.729997337 -0.593447924
vn 0.726019382 -0.435524285 -0.532178938
vn 0.71556294 -0.10712143 -0.690285861
vn 0.71560216 0.213276923 -0.665151417
vn 0.724785209 0.550080478 -0.414846629
vn -0.477005064 0.735289514 -0.481472045
vn 0.734759092 0.567765355 -0.371176034
vn 0.721153677 0.264414966 -0.640329719
vn -0.721333802 0.127318278 -0.680784583
vn 0.707184613 -0.00372483837 -0.707019031
vn -0.707178533 0.0034668725 -0.707026482
vn 0.724349022 -0.137893632 -0.675502658
vn -0.724097073 -0.287607163 -0.626869559
vn 0.578581333 -0.630253732 -0.517710209
vn -0.577271104 -0.741311729 -0.342366517

# Mesh 'mesh_0' with 276 faces
g mesh_0
usemtl material_0
f  1//1 2//2 3//3
f  4//4 5//5 6//6
f  7//7 8//8 9//9
f  10//10 11//11 12//12
f  13//13 14//14 15//15
f  14//14 16//16 15//15
f  17//17 16//16 14//14
f  16//16 18//18 15//15
f  18//18 19//19 15//15
f  20//20 18//18 16//16
f  7//7 1//1 8//8
f  1//1 21//21 8//8
f  3//3 21//21 1//1
f  21//21 22//22 8//8
f  22//22 23//23 8//8
f  24//24 22//22 21//21
f  25//25 26//26 27//27
f  26//26 28//28 27//27
f  28//28 29//29 27//27
f  30//30 28//28 26//26
f  31//31 32//32 33//33
f  32//32 34//34 33//33
f  34//34 35//35 33//33
f  36//36 34//34 32//32
f  37//37 29//29 38//38
f  28//28 38//38 29//29
f  39//39 40//40 41//41
f  42//42 41//41 40//40
f  40//40 35//35 42//42
f  34//34 42//42 35//35
f  43//43 41//41 44//44
f  45//45 44//44 41//41
f  45//45 41//41 42//42
f  46//46 45//45 42//42
f  47//47 46//46 42//42
f  42//42 34//34 47//47
f  47//47 34//34 46//46
f  34//34 36//36 46//46
f  36//36 48//48 46//46
f  36//36 32//32 48//48
f  49//49 48//48 32//32
f  49//49 32//32 50//50
f  31//31 50//50 32//32
f  31//31 33//33 50//50
f  51//51 50//50 33//33
f  51//51 33//33 52//52
f  33//33 53//53 52//52
f  35//35 53//53 33//33
f  40//40 53//53 35//35
f  40//40 39//39 53//53
f  52//52 53//53 54//54
f  53//53 39//39 54//54
f  39//39 55//55 54//54
f  56//56 54//54 55//55
f  57//57 58//58 59//59
f  60//60 59//59 58//58
f  61//61 62//62 63//63
f  64//64 63//63 62//62
f  65//65 66//66 67//67
f  68//68 67//67 66//66
f  69//69 70//70 71//71
f  72//72 71//71 70//70
f  55//55 39//39 43//43
f  41//41 43//43 39//39
f  63//63 64//64 57//57
f  58//58 57//57 64//64
f  71//71 72//72 65//65
f  66//66 65//65 72//72
f  73//73 37//37 74//74
f  38//38 74//74 37//37
f  75//75 76//76 77//77
f  78//78 77//77 76//76
f  79//79 80//80 81//81
f  82//82 81//81 80//80
f  83//83 84//84 85//85
f  86//86 85//85 84//84
f  87//87 88//88 89//89
f  90//90 89//89 88//88
f  91//91 92//92 93//93
f  94//94 93//93 92//92
f  93//93 94//94 83//83
f  84//84 83//83 94//94
f  95//95 96//96 97//97
f  98//98 97//97 96//96
f  99//99 100//100 101//101
f  102//102 101//101 100//100
f  103//103 104//104 105//105
f  106//106 105//105 104//104
f  105//105 106//106 95//95
f  96//96 95//95 106//106
f  107//107 108//108 109//109
f  110//110 109//109 108//108
f  111//111 112//112 113//113
f  114//114 113//113 112//112
f  115//115 116//116 117//117
f  118//118 117//117 116//116
f  117//117 118//118 107//107
f  108//108 107//107 118//118
f  6//6 5//5 119//119
f  120//120 119//119 5//5
f  119//119 120//120 121//121
f  122//122 121//121 120//120
f  121//121 122//122 123//123
f  124//124 123//123 122//122
f  124//124 125//125 123//123
f  126//126 123//123 125//125
f  125//125 12//12 126//126
f  11//11 126//126 12//12
f  13//13 15//15 10//10
f  11//11 10//10 15//15
f  15//15 19//19 11//11
f  126//126 11//11 19//19
f  126//126 19//19 123//123
f  18//18 123//123 19//19
f  123//123 18//18 121//121
f  20//20 121//121 18//18
f  20//20 16//16 121//121
f  119//119 121//121 16//16
f  119//119 16//16 6//6
f  17//17 6//6 16//16
f  6//6 17//17 4//4
f  14//14 4//4 17//17
f  73//73 44//44 37//37
f  45//45 37//37 44//44
f  37//37 45//45 29//29
f  46//46 29//29 45//45
f  29//29 46//46 27//27
f  48//48 27//27 46//46
f  27//27 48//48 25//25
f  49//49 25//25 48//48
f  25//25 49//49 26//26
f  50//50 26//26 49//49
f  50//50 51//51 26//26
f  30//30 26//26 51//51
f  51//51 52//52 30//30
f  28//28 30//30 52//52
f  52//52 54//54 28//28
f  38//38 28//28 54//54
f  38//38 54//54 74//74
f  56//56 74//74 54//54
f  60//60 76//76 59//59
f  75//75 59//59 76//76
f  78//78 62//62 77//77
f  61//61 77//77 62//62
f  68//68 80//80 67//67
f  79//79 67//67 80//80
f  82//82 70//70 81//81
f  69//69 81//81 70//70
f  86//86 88//88 85//85
f  87//87 85//85 88//88
f  90//90 92//92 89//89
f  91//91 89//89 92//92
f  98//98 100//100 97//97
f  99//99 97//97 100//100
f  102//102 104//104 101//101
f  103//103 101//101 104//104
f  110//110 112//112 109//109
f  111//111 109//109 112//112
f  114//114 116//116 113//113
f  115//115 113//113 116//116
f  3//3 2//2 21//21
f  127//127 21//21 2//2
f  21//21 127//127 24//24
f  128//128 24//24 127//127
f  24//24 128//128 22//22
f  129//129 22//22 128//128
f  22//22 129//129 23//23
f  130//130 23//23 129//129
f  23//23 130//130 8//8
f  9//9 8//8 130//130
f  7//7 9//9 4//4
f  5//5 4//4 9//9
f  5//5 9//9 131//131
f  132//132 131//131 9//9
f  132//132 133//133 131//131
f  134//134 131//131 133//133
f  133//133 135//135 134//134
f  136//136 134//134 135//135
f  135//135 137//137 136//136
f  138//138 136//136 137//137
f  137//137 139//139 138//138
f  140//140 138//138 139//139
f  139//139 2//2 140//140
f  12//12 140//140 2//2
f  12//12 2//2 10//10
f  1//1 10//10 2//2
f  2//2 139//139 127//127
f  137//137 127//127 139//139
f  127//127 137//137 128//128
f  135//135 128//128 137//137
f  135//135 129//129 128//128
f  135//135 133//133 129//129
f  130//130 129//129 133//133
f  133//133 132//132 130//130
f  9//9 130//130 132//132
f  12//12 125//125 140//140
f  138//138 140//140 125//125
f  125//125 124//124 138//138
f  136//136 138//138 124//124
f  136//136 124//124 122//122
f  136//136 122//122 134//134
f  120//120 134//134 122//122
f  134//134 120//120 131//131
f  5//5 131//131 120//120
f  55//55 43//43 64//64
f  55//55 64//64 56//56
f  58//58 64//64 43//43
f  62//62 56//56 64//64
f  43//43 44//44 58//58
f  60//60 58//58 44//44
f  44//44 73//73 60//60
f  76//76 60//60 73//73
f  56//56 62//62 74//74
f  73//73 74//74 76//76
f  78//78 74//74 62//62
f  78//78 76//76 74//74
f  66//66 57//57 68//68
f  66//66 72//72 57//57
f  59//59 68//68 57//57
f  63//63 57//57 72//72
f  72//72 70//70 63//63
f  61//61 63//63 70//70
f  70//70 82//82 61//61
f  77//77 61//61 82//82
f  68//68 59//59 80//80
f  82//82 80//80 77//77
f  75//75 80//80 59//59
f  75//75 77//77 80//80
f  71//71 65//65 94//94
f  71//71 94//94 69//69
f  84//84 94//94 65//65
f  92//92 69//69 94//94
f  65//65 67//67 84//84
f  86//86 84//84 67//67
f  67//67 79//79 86//86
f  88//88 86//86 79//79
f  69//69 92//92 81//81
f  79//79 81//81 88//88
f  90//90 81//81 92//92
f  90//90 88//88 81//81
f  96//96 83//83 98//98
f  96//96 106//106 83//83
f  85//85 98//98 83//83
f  93//93 83//83 106//106
f  106//106 104//104 93//93
f  91//91 93//93 104//104
f  104//104 102//102 91//91
f  89//89 91//91 102//102
f  98//98 85//85 100//100
f  102//102 100//100 89//89
f  87//87 100//100 85//85
f  87//87 89//89 100//100
f  105//105 95//95 118//118
f  105//105 118//118 103//103
f  108//108 118//118 95//95
f  116//116 103//103 118//118
f  95//95 97//97 108//108
f  110//110 108//108 97//97
f  97//97 99//99 110//110
f  112//112 110//110 99//99
f  103//103 116//116 101//101
f  99//99 101//101 112//112
f  114//114 101//101 116//116
f  114//114 112//112 101//101
f  1//1 107//107 10//10
f  1//1 7//7 107//107
f  109//109 10//10 107//107
f  117//117 107//107 7//7
f  7//7 4//4 117//117
f  115//115 117//117 4//4
f  4//4 14//14 115//115
f  113//113 115//115 14//14
f  10//10 109//109 13//13
f  14//14 13//13 113//113
f  111//111 13//13 109//109
f  111//111 113//113 13//13

