# File produced by Open Asset Import Library (http://www.assimp.sf.net)
# (assimp v5.2.0)

mtllib mrRM_front_led_link_visual_vis_1.mtl

# 100 vertex positions
v  7.56899972e-05 0.0138729578 0.0138302613
v  0.000243766306 0.0105888713 0.0134057971
v  0.000334152399 0.0106770713 0.0120335938
v  0.00017238484 0.0139892716 0.012033971
v  -0.000312054442 0.0112074092 0.0203152727
v  -0.00019707816 0.0085566761 0.0183574446
v  -0.000146614111 0.00925644953 0.0171717722
v  -0.000333954697 0.0121260062 0.0187619291
v  -0.000199436079 0.00538732857 0.0245820377
v  -8.39334243e-05 0.00411108322 0.0216166042
v  -0.000119472039 0.00534246909 0.0209325142
v  -0.000250104553 0.00699972175 0.0236863866
v  8.25212046e-05 -0.001868319 0.0254899655
v  0.000121037017 -0.00142964441 0.0223098528
v  6.40789731e-05 -7.61743013e-06 0.0223086886
v  -1.06359457e-05 -5.85896669e-06 0.0254883319
v  0.00018105589 -0.00862186868 0.0227920599
v  0.000294604135 -0.00658931583 0.0202496555
v  0.0002582421 -0.00535788573 0.0209315289
v  0.000230825681 -0.00701139541 0.0236850325
v  0.000225868658 -0.00539969653 0.0245809779
v  0.000221006703 -0.00412649475 0.0216158424
v  -0.000224810094 -0.0129561964 0.0172204617
v  0.000245178089 -0.00990646705 0.0159938782
v  0.000293864519 -0.00927187875 0.017170215
v  -0.000145385537 -0.0121261589 0.0187603552
v  -0.000230333506 -0.0138793979 -0.0138294455
v  0.000156694034 -0.010609149 -0.0134055167
v  0.000208924044 -0.0107013965 -0.0120342039
v  -0.000188973616 -0.0139998281 -0.0120339105
v  -0.00018783928 -0.0112062646 -0.0203161836
v  6.29656715e-05 -0.00856404752 -0.018358564
v  8.49704338e-06 -0.00926402025 -0.0171715673
v  -0.000291771226 -0.0121215759 -0.0187611468
v  0.000180161078 -0.00539758382 -0.0245817918
v  0.000257430569 -0.00412590243 -0.0216172524
v  0.000284150155 -0.00535748806 -0.0209326837
v  0.000179357128 -0.00700895023 -0.0236862618
v  9.63320708e-05 -0.00861888938 -0.0227934308
v  0.000241437665 -0.00658670906 -0.02025076
v  -0.000154903682 0.0018586542 -0.02548966
v  -7.06334249e-05 0.0014164825 -0.0223095827
v  -8.19077468e-06 -4.71526482e-06 -0.0223087147
v  -7.98112305e-05 -2.87290754e-06 -0.025488181
v  -0.000293682155 0.00861337222 -0.0227920655
v  -0.000183309457 0.00657578791 -0.0202497598
v  -0.000163953518 0.00534459809 -0.0209315512
v  -0.000286615657 0.00700180046 -0.0236849245
v  -0.000234464533 0.0129568316 -0.0172194503
v  -0.000168245708 0.0098934276 -0.0159939304
v  -0.000178464383 0.00925807282 -0.0171703119
v  -0.000235857602 0.0121245738 -0.0187598672
v  -0.00025689762 0.0112070553 -0.0203143228
v  -0.000189476981 0.00855727121 -0.0183575507
v  6.63355167e-05 -0.0106985187 0.0120327249
v  -0.000332241441 -0.0139969327 0.0120330192
v  -0.00010689802 0.0106885517 -0.0120326355
v  -0.000230955018 0.0139998244 -0.012032303
v  9.99426411e-05 0.0103100594 0.0147394855
v  -7.78993563e-05 0.0135067292 0.0155769661
v  -0.00022509243 0.0129565299 0.0172211826
v  -3.9326922e-05 0.00989061221 0.0159949604
v  -0.000191019019 0.00764302211 0.0193800889
v  -0.000311145093 0.0100112101 0.0216543451
v  -0.000314949779 0.00861294288 0.0227934327
v  -0.000165886828 0.00657441886 0.0202502906
v  -4.23048768e-05 0.00279256445 0.0220706128
v  -0.000144151971 0.0036607699 0.0251765456
v  -8.33903832e-05 0.00185591937 0.0254901927
v  8.01467831e-06 0.0014142748 0.0223100856
v  0.000174101413 -0.00280798925 0.0220701024
v  0.000164004057 -0.00367360306 0.0251757093
v  0.000312920718 -0.00765758567 0.0193799436
v  8.01823335e-05 -0.0100173242 0.0216539539
v  -3.41438135e-05 -0.0112111084 0.0203148816
v  0.000318332721 -0.00857129041 0.0183572471
v  0.00018045945 -0.0103276838 0.0147379413
v  -0.000275346421 -0.0135088069 0.0155754611
v  -0.000317423488 -0.0138780382 0.0138285989
v  0.000111708345 -0.0106087429 0.0134039372
v  8.73432873e-05 -0.0103246821 -0.0147394892
v  -0.000277926796 -0.0135076884 -0.0155764995
v  -0.000313623081 -0.0129528698 -0.0172212776
v  2.51922083e-05 -0.00990015827 -0.0159953218
v  0.000154312118 -0.00765225245 -0.0193813741
v  -4.25456601e-05 -0.0100134127 -0.0216553118
v  0.000175807465 -0.00280723488 -0.0220712721
v  0.000109122768 -0.00367141305 -0.0251762308
v  1.99333263e-05 -0.00186574389 -0.0254901946
v  8.32695878e-05 -0.0014279664 -0.0223107543
v  -0.00011034192 0.002794737 -0.0220698472
v  -0.000210329774 0.00366341718 -0.025175672
v  -0.000260491652 0.00538963964 -0.0245809648
v  -0.00014370805 0.00411320757 -0.0216156635
v  -0.000191085317 0.00764367962 -0.0193802286
v  -0.000279736792 0.010011212 -0.0216534939
v  -0.000152478504 0.0103159109 -0.0147377634
v  -0.00023917784 0.0135106714 -0.0155745037
v  -0.000240606547 0.0138809234 -0.0138275893
v  -0.000131710782 0.010598151 -0.013403642

# 0 UV coordinates

# 100 vertex normals
vn 0.995731652 0.03941603 0.0834558308
vn 0.995037198 0.0390986502 0.0915007889
vn 0.998277426 0.0465844087 0.0356670357
vn 0.998960674 0.0449974239 0.00727961538
vn 0.999176323 0.0299197827 0.0274095144
vn 0.999263823 0.01853057 0.0335943848
vn 0.997734725 0.0257828068 0.0621355809
vn 0.998051047 0.0375315286 0.0498545803
vn 0.998939633 0.0406419262 0.0216331296
vn 0.998966455 0.0399250686 0.0217267014
vn 0.998762369 0.0455620624 0.0199516304
vn 0.998729587 0.046514485 0.0193837266
vn 0.99895066 0.0419929661 0.0182855371
vn 0.999136448 0.0377710499 0.0173112582
vn 0.998872876 0.0420936123 0.021938784
vn 0.998734832 0.0444889925 0.0234435573
vn 0.99929285 -0.0299422517 0.0227423683
vn 0.999138057 -0.00415468588 0.0413017459
vn 0.999891818 -0.000174404544 0.0147110075
vn 0.99989301 -0.0145811206 0.00119972916
vn 0.999711514 0.0216071568 0.0104886573
vn 0.999544084 0.0283021722 0.0105137313
vn 0.989696205 -0.141988933 0.0184558965
vn 0.989198565 -0.145587713 0.0170461629
vn 0.990943491 -0.131313235 0.0280661788
vn 0.98972553 -0.141707897 0.019031629
vn 0.99267298 -0.1100761 -0.0498368703
vn 0.992162466 -0.109653413 -0.05991631
vn 0.992848575 -0.117055647 -0.0234420765
vn 0.992774069 -0.119829647 -0.0063565718
vn 0.995149553 -0.0982724279 0.00447082473
vn 0.995667517 -0.0929619968 -0.00209057704
vn 0.995453477 -0.0921435133 -0.0241250172
vn 0.995223224 -0.0965541601 -0.0144220898
vn 0.999311984 0.0166005548 -0.0331663564
vn 0.998973072 0.0259229932 -0.0371578522
vn 0.999403119 -0.027713187 -0.0206231028
vn 0.999233365 -0.0353505313 -0.0168263335
vn 0.997720659 -0.0674165264 -0.00288563222
vn 0.998065054 -0.061708428 -0.00763849169
vn 0.99904561 0.0378389768 -0.0218206365
vn 0.999044657 0.0382398292 -0.0211570878
vn 0.99845022 0.0504455604 -0.0235029012
vn 0.998647869 0.0468790084 -0.0224683154
vn 0.999437869 0.0217180233 -0.0255433824
vn 0.999402106 0.0266523529 -0.022027364
vn 0.999272108 0.0277195778 -0.0262101572
vn 0.99924314 0.0262271576 -0.0287304316
vn 0.999771118 0.017544087 -0.0122467298
vn 0.999744713 0.0147684915 -0.0171029978
vn 0.999795318 0.0130767105 -0.0154426973
vn 0.99982655 0.0122231236 -0.0140578113
vn 0.99973774 0.0120851435 -0.0194563325
vn 0.999780476 0.0137869921 -0.0157776624
vn 0.992373347 -0.123229258 -0.00312390109
vn 0.992774069 -0.119965561 0.00283748773
vn 0.999132693 0.0385520421 -0.0157404598
vn 0.999223471 0.0374371894 -0.0122904573
vn 0.994026005 0.0275997836 0.105596967
vn 0.994885921 0.0300884694 0.0964196697
vn 0.994858861 0.0208613947 0.0990987718
vn 0.993991792 0.0169798546 0.108129293
vn 0.999240875 0.0303102583 0.024473777
vn 0.999328613 0.0247145128 0.0270491987
vn 0.998907864 0.0407871939 0.0227975715
vn 0.998712659 0.0457823686 0.0218401495
vn 0.998984873 0.0391480438 0.0222893469
vn 0.999017 0.0384864435 0.0220007431
vn 0.998970568 0.0390912481 0.023015907
vn 0.998934209 0.0399230458 0.0231677238
vn 0.999279499 0.035275504 0.0140077341
vn 0.999220669 0.0370627157 0.0135791441
vn 0.997216463 -0.0675713345 0.0315169394
vn 0.995867908 -0.0904555321 0.00805856846
vn 0.993888319 -0.105470024 0.0325906985
vn 0.994268715 -0.0902070552 0.0573785231
vn 0.990029335 -0.140860796 -0.00031036287
vn 0.990228534 -0.139033511 0.0108286878
vn 0.99124217 -0.131647974 -0.0103848148
vn 0.990820765 -0.133115306 -0.0235493686
vn 0.993244767 -0.0970539153 -0.0636041537
vn 0.993596017 -0.100381292 -0.05187108
vn 0.994541705 -0.0879575983 -0.056128405
vn 0.994210064 -0.0828799903 -0.068391405
vn 0.995757759 -0.0915924013 0.00880371593
vn 0.995270133 -0.0961749926 0.0137021784
vn 0.998367369 0.0455744043 -0.0344356261
vn 0.998804808 0.0371323824 -0.031785924
vn 0.998042583 0.0557799339 -0.0282809883
vn 0.997600257 0.0630733222 -0.028557336
vn 0.99914825 0.0344037451 -0.0227887724
vn 0.999119639 0.0355926976 -0.0222102534
vn 0.999150157 0.0329959467 -0.0247059129
vn 0.999152899 0.0323619545 -0.0254196189
vn 0.999613643 0.0158830751 -0.0228122808
vn 0.999570251 0.0115606626 -0.0269406028
vn 0.999631524 0.0241157785 -0.0124678863
vn 0.999654531 0.0257621612 -0.00521720899
vn 0.999424636 0.0310532767 -0.0136488685
vn 0.9993155 0.0304327235 -0.0210345052

# Mesh 'mesh_0' with 100 faces
g mesh_0
usemtl material_0
f  1//1 2//2 3//3
f  4//4 1//1 3//3
f  5//5 6//6 7//7
f  8//8 5//5 7//7
f  9//9 10//10 11//11
f  12//12 9//9 11//11
f  13//13 14//14 15//15
f  16//16 13//13 15//15
f  17//17 18//18 19//19
f  20//20 17//17 19//19
f  20//20 19//19 21//21
f  19//19 22//22 21//21
f  23//23 24//24 25//25
f  26//26 23//23 25//25
f  27//27 28//28 29//29
f  30//30 27//27 29//29
f  31//31 32//32 33//33
f  34//34 31//31 33//33
f  35//35 36//36 37//37
f  38//38 35//35 37//37
f  38//38 37//37 39//39
f  37//37 40//40 39//39
f  41//41 42//42 43//43
f  44//44 41//41 43//43
f  45//45 46//46 47//47
f  48//48 45//45 47//47
f  49//49 50//50 51//51
f  52//52 49//49 51//51
f  52//52 51//51 53//53
f  51//51 54//54 53//53
f  30//30 29//29 55//55
f  56//56 30//30 55//55
f  57//57 58//58 4//4
f  3//3 57//57 4//4
f  59//59 60//60 61//61
f  62//62 59//59 61//61
f  63//63 64//64 65//65
f  66//66 63//63 65//65
f  67//67 68//68 69//69
f  70//70 67//67 69//69
f  71//71 72//72 21//21
f  22//22 71//71 21//21
f  73//73 74//74 75//75
f  76//76 73//73 75//75
f  77//77 78//78 79//79
f  80//80 77//77 79//79
f  81//81 82//82 83//83
f  84//84 81//81 83//83
f  85//85 86//86 39//39
f  40//40 85//85 39//39
f  87//87 88//88 89//89
f  90//90 87//87 89//89
f  91//91 92//92 93//93
f  94//94 91//91 93//93
f  95//95 96//96 53//53
f  54//54 95//95 53//53
f  97//97 98//98 99//99
f  100//100 97//97 99//99
f  59//59 2//2 1//1
f  60//60 59//59 1//1
f  63//63 6//6 5//5
f  64//64 63//63 5//5
f  67//67 10//10 9//9
f  68//68 67//67 9//9
f  71//71 14//14 13//13
f  72//72 71//71 13//13
f  73//73 18//18 17//17
f  74//74 73//73 17//17
f  77//77 24//24 23//23
f  78//78 77//77 23//23
f  81//81 28//28 27//27
f  82//82 81//81 27//27
f  85//85 32//32 31//31
f  86//86 85//85 31//31
f  87//87 36//36 35//35
f  88//88 87//87 35//35
f  91//91 42//42 41//41
f  92//92 91//91 41//41
f  95//95 46//46 45//45
f  96//96 95//95 45//45
f  97//97 50//50 49//49
f  98//98 97//97 49//49
f  7//7 62//62 61//61
f  8//8 7//7 61//61
f  11//11 66//66 65//65
f  12//12 11//11 65//65
f  15//15 70//70 69//69
f  16//16 15//15 69//69
f  25//25 76//76 75//75
f  26//26 25//25 75//75
f  55//55 80//80 79//79
f  56//56 55//55 79//79
f  33//33 84//84 83//83
f  34//34 33//33 83//83
f  43//43 90//90 89//89
f  44//44 43//43 89//89
f  47//47 94//94 93//93
f  48//48 47//47 93//93
f  57//57 100//100 99//99
f  58//58 57//57 99//99

