# File produced by Open Asset Import Library (http://www.assimp.sf.net)
# (assimp v5.2.0)

mtllib mrRM_left_gripper_2_visual_vis_1.mtl

# 142 vertex positions
v  -0.00406411197 0.000457400136 -0.0131829139
v  -0.00844088104 0.0010442324 -0.0144060254
v  -0.00320616295 0.0015174147 -0.0152552277
v  -0.00844088104 0.000893266581 -0.0104101002
v  0.000863521593 0.000893288583 -0.0104100443
v  0.000863580848 0.000934482145 -0.0138854375
v  0.000863521476 0.00248382473 -0.00829520915
v  -0.00844088104 0.00248380285 -0.00829526503
v  -0.00406417251 0.00367467082 -0.00774826342
v  0.000863521534 0.00367461611 -0.00774824107
v  -0.00844088104 0.00491868891 -0.00725898566
v  -0.00406417251 0.00446198136 -0.00735341106
v  -0.00844088104 0.00754551543 -0.00757890334
v  0.000863521709 0.00754473964 -0.0075784619
v  0.000863521534 0.00446121814 -0.00735291187
v  -0.00406685425 0.0093766069 -0.00877634808
v  0.000863521884 0.0095375469 -0.00907722488
v  -0.00844088104 0.00966031756 -0.00916949008
v  -0.00844088104 0.0106965955 -0.0116043761
v  -0.00320509006 0.0104016522 -0.010911365
v  0.00256857206 0.010398143 -0.0109030092
v  0.00844088104 0.0106965946 -0.0116043743
v  -0.00844088104 0.0103766341 -0.0142311528
v  0.00343754794 0.00963172596 -0.00914794486
v  0.00844088104 0.0103766322 -0.0142311547
v  0.00844088104 0.00966031663 -0.00916948821
v  -0.00844088104 0.00878609158 -0.0163460039
v  0.00844088104 0.00878609158 -0.0163460039
v  -0.00844088104 0.00635118457 -0.0173823386
v  0.00844088104 0.00635118363 -0.0173823368
v  0.00343766785 0.00754551496 -0.00757890241
v  0.00844088104 0.0075455145 -0.00757890195
v  0.00844088104 0.00491868844 -0.00725898473
v  0.00343766762 0.00491868844 -0.00725898519
v  0.00844088104 0.00248380192 -0.0082952641
v  0.00343766762 0.00248380215 -0.0082952641
v  0.00844088104 0.000893265009 -0.0104101012
v  0.00343766762 0.000893265649 -0.0104101002
v  0.00844088104 0.000573298079 -0.0130368927
v  0.00343754771 0.000934459968 -0.0138854925
v  0.00844088104 0.00160955521 -0.0154718338
v  0.00256958604 0.00151477288 -0.0152490223
v  -0.00844088104 0.00372444023 -0.0170623269
v  0.00844088104 0.00372443954 -0.0170623269
v  0.000863521069 0.00174692913 -0.00240855105
v  0.000863520952 -0.00218583806 -0.00377231603
v  0.000863521127 -0.00243874267 -0.00585850375
v  0.000863521185 -0.00404315209 -0.00779741677
v  0.000863521069 -0.00692555262 -0.00853817351
v  0.000863520545 0.010026739 0.0109018991
v  0.000863521185 0.00983219687 0.0012399113
v  0.000855294638 0.00737731624 0.00910876412
v  0.000861435081 0.00285049411 -0.000962449412
v  0.000847665477 0.00562010938 0.00891262572
v  0.000862388057 0.00163026038 -0.00143496378
v  0.000863520894 -0.00249319547 -0.00294584502
v  0.000852135418 0.00476625096 0.00980904978
v  0.00086352072 -0.00417684391 -0.00124430296
v  0.000867394265 0.00277448935 0.0108521022
v  0.000863520545 -0.00667191017 -0.000722936296
v  0.000863520487 -0.00839277171 -0.00120001473
v  0.000863520021 0.0019104227 0.012642974
v  -0.0040658419 0.0027601975 -0.00215975079
v  -0.00406417297 0.00174696208 -0.00240862975
v  -0.00406530499 0.00162709865 -0.00143388286
v  -0.00406625913 0.00285909418 -0.000966942986
v  -0.00406411244 0.00981666241 3.81891368e-05
v  -0.0040641129 0.00984076597 0.00123549846
v  -0.00407555746 0.00476311101 0.00981018599
v  -0.00408002874 0.0056287339 0.00890819076
v  -0.00406417297 -0.00249631633 -0.00294465246
v  -0.00406417297 -0.00218586042 -0.00377237215
v  -0.00406417297 -0.00376543077 -0.00372603792
v  -0.00406417297 -0.00436251983 -0.00269138487
v  -0.00406417344 -0.00417990796 -0.00124313193
v  -0.00406417297 -0.00382725266 -0.00530816847
v  -0.00406417297 -0.00243874243 -0.00585850375
v  -0.00406417297 -0.00404317444 -0.00779747264
v  -0.00406417297 -0.00561212143 -0.00667614071
v  -0.00406417297 -0.00653112261 -0.0084568318
v  -0.00406417344 -0.00600203406 -0.0020702451
v  -0.00406417344 -0.00667505339 -0.000721799559
v  -0.00406417344 -0.00791138224 -0.00101830822
v  -0.00406417297 -0.00739032542 -0.00651180791
v  -0.00406417297 -0.00806890428 -0.0077603939
v  -0.00406417297 -0.00902328733 -0.00693785865
v  -0.00406417344 -0.0079265805 -0.00286894245
v  -0.00406417344 -0.00953636412 -0.00273126573
v  -0.00406417344 -0.00987504516 -0.00463001477
v  -0.00406417344 -0.00835777633 -0.00509252679
v  -0.00406417344 -0.00961658917 -0.00587290712
v  -0.00321301958 0.0106872469 0.0141591979
v  -0.00406417344 0.0098877335 0.0107529135
v  -0.0040641739 0.00990328658 0.0139134889
v  0.00257584243 0.0106841885 0.0141583057
v  -0.00321403285 0.00884332787 0.0163856149
v  -0.0040641739 0.00837943889 0.0157234501
v  -0.0040641739 0.00600047223 0.0165635552
v  0.00257673603 0.00884158351 0.0163830407
v  0.00343766646 0.00990328658 0.0139134889
v  -0.00321266218 0.00597937591 0.0173823163
v  -0.0040641739 0.00442727096 0.0162365343
v  0.00343766646 0.0086198952 0.0120312888
v  0.00343766646 0.0077507291 0.0107066547
v  0.00343766646 0.00865584239 0.0133104436
v  0.00343766646 0.00653094565 0.0101494538
v  0.00343766646 0.00516804587 0.0103821782
v  0.00343766622 0.0076853605 0.0146655822
v  0.00343766715 -0.00806890521 -0.00776039436
v  0.00257173018 -0.00855671242 -0.00839629211
v  0.00343766646 0.00420740386 0.0111217108
v  0.00343766622 0.00837943796 0.0157234501
v  0.00343766599 0.00600047177 0.0165635552
v  0.00343766622 0.00573939737 0.0151920235
v  0.00257560401 0.00597949931 0.0173791219
v  0.00343766599 0.0044272705 0.0162365343
v  0.00343766622 0.00405059103 0.0140659697
v  0.00257745082 0.00404786225 0.0169826001
v  0.00343766599 0.0029431656 0.0148928594
v  0.00343766622 0.00359355146 0.0125326198
v  -0.00321486709 0.00404647784 0.0169853996
v  -0.00321045704 0.0023380348 0.0154295834
v  -0.0040641739 0.00294316583 0.0148928594
v  -0.0040641739 0.00207560998 0.0133403512
v  0.00257351692 0.00234057684 0.0154272765
v  0.00343766669 -0.00953636505 -0.00273126527
v  0.00257649855 -0.010297019 -0.00241289311
v  -0.00321379444 -0.0102999173 -0.00241166074
v  0.00257584266 -0.0106930425 -0.00464171683
v  -0.00321301934 -0.0106962742 -0.00464176387
v  0.00343766692 -0.00987504609 -0.0046300143
v  0.00257482985 -0.0103765875 -0.00615610369
v  -0.00321188616 -0.0103796814 -0.00615725527
v  0.00343766692 -0.0096165901 -0.00587290758
v  0.00343766692 -0.00902328826 -0.00693785911
v  0.0025754848 -0.00965511613 -0.00745287724
v  -0.00321254227 -0.00965754502 -0.00745492056
v  -0.00320854783 -0.00855889544 -0.00839914009
v  -0.00406035874 0.00277140178 0.0108532151
v  -0.00407239841 0.00738590304 0.00910439901
v  0.000863580266 0.009815895 3.86925603e-05
v  0.000861852139 0.00275945733 -0.00215919409

# 0 UV coordinates

# 139 vertex normals
vn -0.394169539 -0.915790737 0.0771865621
vn -0.058456175 -0.905577183 -0.420134366
vn -0.149859905 -0.662428319 -0.733982742
vn -0.0321056098 -0.937712193 0.345926434
vn -0.804779887 -0.573401034 0.153429806
vn -0.674383402 -0.347663313 0.651411712
vn -0.717979312 -0.436743647 0.541996837
vn -0.00290041533 -0.551903367 0.833903015
vn -0.43585521 -0.560133159 0.704472244
vn -0.397278011 -0.913154364 0.0912101567
vn -0.000662129489 -0.248206124 0.968706965
vn -0.201859787 0.349357098 0.914987624
vn 0.000297659513 0.34711498 0.93782264
vn -0.610545039 0.265958726 0.745989799
vn -0.51578182 0.52777034 0.674853802
vn -0.161006987 0.687239289 0.708363593
vn -0.493057609 -0.736288071 0.463437259
vn -0.00432353327 0.787448943 0.616364837
vn 0.00374279171 0.952720881 0.303823769
vn -0.390643567 0.909876943 0.139719486
vn 0.11904721 0.97180444 0.203528494
vn -0.000500149967 0.980874121 0.194642842
vn 6.36769428e-08 0.957110584 -0.289723039
vn 0.620014787 0.728181422 0.292118996
vn 4.00588114e-08 0.890612662 -0.454762667
vn -0.00122548651 0.729478598 0.684002519
vn 6.9978805e-09 0.684015453 -0.729467571
vn 4.2321421e-08 0.543920755 -0.8391366
vn 7.77492275e-08 0.22765097 -0.973742783
vn 7.60293304e-08 0.0514735207 -0.998674393
vn 0.719256341 0.25965184 0.644399941
vn -5.15445748e-08 0.373727351 0.927538693
vn -8.98700918e-08 -0.0514948331 0.998673201
vn 0.566497982 -0.187600315 0.802425146
vn -4.75850541e-08 -0.543911278 0.83914274
vn 0.80871433 -0.40233627 0.429076552
vn -4.39220926e-08 -0.890612006 0.454764038
vn 0.556919634 -0.804891944 0.204913184
vn -0.023933433 -0.995036781 -0.096586749
vn 0.480032593 -0.769135833 -0.421898812
vn -0.00709213689 -0.839134812 -0.543877304
vn 0.116435647 -0.665275395 -0.737462819
vn -0.0106557971 -0.462334156 -0.886641681
vn -0.00710792793 -0.467450112 -0.883990943
vn -0.664794087 -0.0948448628 -0.740981281
vn -0.609828532 0.705297887 -0.361474812
vn -0.719893098 0.607976019 -0.334841639
vn -0.570771456 0.364734054 -0.735655546
vn -0.774556398 0.565925181 0.282473087
vn -0.459068239 -0.4224841 -0.781513572
vn -0.777306795 -0.503261268 0.377521008
vn -0.715162039 0.188749418 -0.672991037
vn -0.766907394 0.140432164 0.626204312
vn -0.362902194 0.744469106 -0.560417533
vn -0.345904708 -0.786760449 0.51123184
vn -0.61257273 0.00682025123 0.790384769
vn -0.778334796 -0.492400587 -0.389533788
vn -0.720671177 0.389094025 0.573793471
vn -0.823671818 -0.468713045 -0.319175243
vn -0.564246833 0.0400303602 0.824635148
vn -0.814947128 0.127592698 0.565315306
vn -0.526494682 0.351067483 -0.774309397
vn -0.913757324 0.28183651 -0.292601764
vn -0.871443868 -0.339043736 -0.354450315
vn -0.828089595 -0.342470109 0.443826407
vn -0.948395431 0.30729118 0.0782185644
vn -0.961137354 -0.101689227 -0.256659687
vn -0.83736819 -0.101810277 0.537074566
vn -0.636562824 -0.763157189 -0.111260384
vn -0.364128351 0.43130219 -0.825462818
vn -0.888642609 0.191551089 0.416680425
vn -0.83852005 0.345469028 -0.421349406
vn -1 0 0
vn -1 3.73039022e-08 -2.19059118e-07
vn -0.720540583 0.268972427 0.639120758
vn -0.568737149 0.783691287 -0.249732003
vn -0.72222054 0.432624519 -0.539660394
vn -0.883797467 0.083147794 -0.460422158
vn -1 3.87034227e-08 -8.52634443e-08
vn -0.561180174 -0.0835737661 0.823463678
vn -0.980287135 -0.0331061631 0.194785118
vn -1 1.81693007e-08 -6.96390643e-08
vn -0.918045282 -0.213103771 -0.334334701
vn -0.894996047 -0.345511436 -0.282141626
vn -0.887002528 -0.430448413 0.1671547
vn -0.920832574 -0.388737261 -0.0308324173
vn -1 6.85404729e-08 -1.50891594e-07
vn -0.919974148 -0.367311537 -0.136857361
vn -0.373333931 0.895815611 0.241114318
vn -0.705560803 0.548319519 -0.448920548
vn -0.693403602 0.643217027 0.324751079
vn 0.449151814 0.859487951 0.244014621
vn -0.423114359 0.481201202 0.767736793
vn -0.689125955 0.412172794 0.596002519
vn -0.689246774 0.115915313 0.715193987
vn 0.419128716 0.551766276 0.721030533
vn 0.943244755 0.296799451 0.148994222
vn -0.376793027 -0.0225113314 0.92602396
vn -0.701296508 -0.323383152 0.635300338
vn 1 1.57009599e-05 -2.02685192e-06
vn 1 -7.67689983e-08 7.72597701e-08
vn 1 -3.08492254e-08 6.38139213e-08
vn 1 -3.34782086e-08 7.03724012e-08
vn 1 -3.76822129e-09 5.12213489e-08
vn 1 -4.58384903e-08 9.93872931e-08
vn 0.974408448 -0.13681373 -0.178354576
vn 0.365477085 -0.565887809 -0.739051819
vn 1 -5.06676159e-08 7.20644024e-08
vn 0.919038475 0.224201202 0.324194461
vn 0.918946743 0.0630944744 0.389301836
vn 1 -2.46493279e-08 1.53167605e-07
vn 0.374721169 0.0751477852 0.924086988
vn 0.897192597 -0.200352028 0.393579245
vn 1 -1.22691389e-07 9.99417011e-08
vn 0.303074896 -0.379193127 0.874275923
vn 0.917477012 -0.307002515 0.252953023
vn 1 -1.11938888e-07 8.44041992e-08
vn -0.305521339 -0.483384788 0.820363224
vn -0.49148199 -0.674153745 0.551327705
vn -0.687251508 -0.568647027 0.452024281
vn -0.56783241 -0.799931347 -0.194103792
vn 0.367843151 -0.67375952 0.640889645
vn 0.920274317 -0.371212691 0.123678215
vn 0.373491526 -0.826795399 0.420610845
vn -0.403135926 -0.843129158 0.355829448
vn 0.371993035 -0.927111566 0.0456653759
vn -0.375970513 -0.926333785 -0.0234951694
vn 0.88205117 -0.469678879 -0.0372473449
vn 0.421596676 -0.857503057 -0.294863939
vn -0.425502896 -0.839527488 -0.337847292
vn 0.91837889 -0.370800376 -0.138157055
vn 0.853283703 -0.403890461 -0.329817176
vn 0.296243876 -0.763340473 -0.574065328
vn -0.298580647 -0.714480937 -0.632745206
vn -0.557706773 -0.485393643 -0.673317254
vn 0.000260389468 -0.679581285 -0.733600259
vn 0.00427778391 0.417737484 -0.908557713
vn -0.72098428 -0.14582704 -0.67743355
vn -0.668733954 0.735143661 -0.111169301

# Mesh 'mesh_0' with 238 faces
g mesh_0
usemtl material_0
f  1//1 2//2 3//3
f  4//4 2//2 1//1
f  5//5 4//4 1//1
f  6//6 5//5 1//1
f  5//5 7//7 4//4
f  7//7 8//8 4//4
f  7//7 9//9 8//8
f  7//7 10//10 9//9
f  11//11 8//8 9//9
f  12//12 11//11 9//9
f  13//13 11//11 12//12
f  14//14 13//13 12//12
f  15//15 14//14 12//12
f  14//14 16//16 13//13
f  14//14 17//17 16//16
f  16//16 18//18 13//13
f  18//18 16//16 19//19
f  16//16 20//20 19//19
f  20//20 21//21 19//19
f  21//21 22//22 19//19
f  23//23 19//19 22//22
f  22//22 21//21 24//24
f  25//25 23//23 22//22
f  26//26 22//22 24//24
f  27//27 23//23 25//25
f  28//28 27//27 25//25
f  29//29 27//27 28//28
f  30//30 29//29 28//28
f  24//24 31//31 26//26
f  31//31 32//32 26//26
f  32//32 31//31 33//33
f  31//31 34//34 33//33
f  35//35 33//33 34//34
f  36//36 35//35 34//34
f  37//37 35//35 36//36
f  38//38 37//37 36//36
f  39//39 37//37 38//38
f  39//39 38//38 40//40
f  41//41 39//39 40//40
f  41//41 40//40 42//42
f  43//43 29//29 30//30
f  44//44 43//43 30//30
f  43//43 44//44 42//42
f  44//44 41//41 42//42
f  3//3 43//43 42//42
f  3//3 2//2 43//43
f  10//10 7//7 45//45
f  45//45 7//7 46//46
f  47//47 46//46 7//7
f  5//5 47//47 7//7
f  5//5 48//48 47//47
f  49//49 48//48 5//5
f  6//6 49//49 5//5
f  50//50 51//51 52//52
f  51//51 53//53 52//52
f  54//54 52//52 53//53
f  55//55 56//56 57//57
f  57//57 56//56 58//58
f  59//59 57//57 58//58
f  58//58 60//60 59//59
f  60//60 61//61 59//59
f  61//61 62//62 59//59
f  63//63 12//12 9//9
f  64//64 63//63 9//9
f  64//64 65//65 63//63
f  65//65 66//66 63//63
f  63//63 66//66 67//67
f  66//66 68//68 67//67
f  65//65 69//69 66//66
f  69//69 70//70 66//66
f  71//71 65//65 64//64
f  72//72 71//71 64//64
f  73//73 71//71 72//72
f  71//71 73//73 74//74
f  75//75 71//71 74//74
f  73//73 72//72 76//73
f  72//72 77//76 76//73
f  77//76 78//77 76//73
f  78//77 79//73 76//73
f  79//73 78//77 80//78
f  74//74 81//79 75//75
f  81//79 82//80 75//75
f  83//81 82//80 81//79
f  79//73 80//78 84//82
f  80//78 85//83 84//82
f  85//83 86//84 84//82
f  87//73 83//81 81//79
f  87//73 88//85 83//81
f  89//86 88//85 87//73
f  86//84 90//87 84//82
f  90//87 89//86 87//73
f  90//87 86//84 91//88
f  90//87 91//88 89//86
f  20//20 16//16 67//67
f  67//67 68//68 20//20
f  68//68 92//89 20//20
f  68//68 93//90 92//89
f  21//21 20//20 92//89
f  93//90 94//91 92//89
f  95//92 21//21 92//89
f  21//21 95//92 24//24
f  96//93 92//89 94//91
f  97//94 96//93 94//91
f  97//94 98//95 96//93
f  99//96 95//92 92//89
f  96//93 99//96 92//89
f  95//92 100//97 24//24
f  100//97 95//92 99//96
f  98//95 101//98 96//93
f  98//95 102//99 101//98
f  24//24 100//97 103//100
f  24//24 103//100 31//31
f  103//100 104//101 31//31
f  100//97 105//102 103//100
f  31//31 104//101 106//103
f  34//34 31//31 106//103
f  36//36 34//34 106//103
f  36//36 106//103 107//104
f  108//105 105//102 100//97
f  109//106 36//36 107//104
f  109//106 38//38 36//36
f  109//106 40//40 38//38
f  109//106 110//107 40//40
f  110//107 42//42 40//40
f  109//106 107//104 111//108
f  42//42 110//107 3//3
f  112//109 108//105 100//97
f  112//109 100//97 99//96
f  108//105 112//109 113//110
f  112//109 99//96 113//110
f  114//111 108//105 113//110
f  99//96 115//112 113//110
f  115//112 99//96 96//93
f  101//98 115//112 96//93
f  113//110 116//113 114//111
f  113//110 115//112 116//113
f  116//113 117//114 114//111
f  118//115 115//112 101//98
f  115//112 118//115 116//113
f  116//113 119//116 117//114
f  120//117 117//114 119//116
f  121//118 118//115 101//98
f  102//99 121//118 101//98
f  122//119 121//118 102//99
f  123//120 122//119 102//99
f  122//119 123//120 124//121
f  122//119 124//121 83//81
f  116//113 118//115 125//122
f  125//122 118//115 121//118
f  119//116 116//113 125//122
f  122//119 125//122 121//118
f  126//123 120//117 119//116
f  111//108 120//117 126//123
f  119//116 125//122 127//124
f  127//124 125//122 122//119
f  126//123 119//116 127//124
f  128//125 122//119 83//81
f  128//125 127//124 122//119
f  128//125 83//81 88//85
f  126//123 127//124 129//126
f  129//126 127//124 128//125
f  130//127 128//125 88//85
f  130//127 129//126 128//125
f  89//86 130//127 88//85
f  131//128 126//123 129//126
f  131//128 111//108 126//123
f  132//129 129//126 130//127
f  131//128 129//126 132//129
f  133//130 130//127 89//86
f  133//130 132//129 130//127
f  91//88 133//130 89//86
f  91//88 86//84 133//130
f  131//128 134//131 111//108
f  134//131 131//128 132//129
f  134//131 135//132 111//108
f  134//131 132//129 135//132
f  135//132 109//106 111//108
f  109//106 135//132 110//107
f  132//129 136//133 135//132
f  136//133 132//129 133//130
f  135//132 136//133 110//107
f  137//134 136//133 133//130
f  86//84 137//134 133//130
f  110//107 136//133 137//134
f  138//135 137//134 86//84
f  138//135 110//107 137//134
f  85//83 138//135 86//84
f  110//107 138//135 3//3
f  138//135 85//83 80//78
f  3//3 138//135 1//1
f  138//135 80//78 1//1
f  82//80 83//81 61//61
f  60//60 82//80 61//61
f  75//75 82//80 60//60
f  58//58 75//75 60//60
f  71//71 75//75 58//58
f  56//56 71//71 58//58
f  65//65 71//71 56//56
f  55//55 65//65 56//56
f  69//69 65//65 55//55
f  57//57 69//69 55//55
f  139//136 69//69 57//57
f  59//59 139//136 57//57
f  124//121 139//136 59//59
f  62//62 124//121 59//59
f  49//49 6//6 1//1
f  80//78 49//49 1//1
f  64//64 9//9 10//10
f  45//45 64//64 10//10
f  72//72 64//64 45//45
f  46//46 72//72 45//45
f  77//76 72//72 46//46
f  47//47 77//76 46//46
f  78//77 77//76 47//47
f  48//48 78//77 47//47
f  80//78 78//77 48//48
f  49//49 80//78 48//48
f  140//137 93//90 50//50
f  52//52 140//137 50//50
f  70//70 140//137 52//52
f  54//54 70//70 52//52
f  66//66 70//70 54//54
f  53//53 66//66 54//54
f  68//68 66//66 53//53
f  51//51 68//68 53//53
f  68//68 51//51 50//50
f  93//90 68//68 50//50
f  67//67 16//16 17//17
f  141//138 67//67 17//17
f  63//63 67//67 141//138
f  142//139 63//63 141//138
f  12//12 63//63 142//139
f  15//15 12//12 142//139
f  141//138 17//17 14//14
f  141//138 14//14 142//139
f  14//14 15//15 142//139
f  83//81 124//121 62//62
f  61//61 83//81 62//62

