# File produced by Open Asset Import Library (http://www.assimp.sf.net)
# (assimp v5.2.0)

mtllib mrRM_arm_2_link_visual_vis_1.mtl

# 44 vertex positions
v  -0.0151989097 -0.0487034991 0.0206680503
v  -0.0152085638 -0.0487068146 -0.0176275074
v  -0.0118687758 -0.0497586876 -0.0176282581
v  -0.0118591273 -0.0497553721 0.0206673015
v  -0.00928797014 -0.0473922715 -0.017629113
v  -0.00927831698 -0.047388956 0.0206664447
v  -0.010046904 -0.0439740978 -0.017629277
v  -0.0100372629 -0.0439707227 0.0206663404
v  -0.0133866696 -0.0429222211 -0.0176285282
v  -0.0133770332 -0.042918846 0.020667091
v  -0.0159674976 -0.045288641 -0.0176276714
v  -0.0159578566 -0.0452852659 0.0206679478
v  -0.0111519285 -0.0414920785 -0.0258899406
v  -0.0118358405 -0.0450492688 -0.02588946
v  -0.0141113773 -0.0415034927 -0.0258891936
v  -0.00879640691 -0.0431388952 -0.0258903913
v  -0.0133003732 -0.0449508317 -0.0258890986
v  -0.011209175 -0.0463261232 -0.025993159
v  -0.0164955668 -0.0429695733 -0.0258884653
v  -0.00781307835 -0.0462175794 -0.0259421673
v  -0.0140871638 -0.0461492278 -0.0258887969
v  -0.0174949169 -0.0460476652 -0.0259145889
v  -0.0168127529 -0.048991628 -0.0258878637
v  -0.0119819893 -0.0475287251 -0.0258892085
v  -0.00877853576 -0.0492373034 -0.0258898083
v  -0.0114150541 -0.0510258004 -0.0258890502
v  -0.0134270806 -0.0474532135 -0.0258888509
v  -0.0145572862 -0.0508255139 -0.0258882735
v  -0.0134268161 -0.0474531204 -0.024837425
v  -0.0140868993 -0.0461491384 -0.024837371
v  -0.0133001087 -0.0449507385 -0.0248376727
v  -0.0119817238 -0.0475286357 -0.0248377826
v  -0.0118355751 -0.0450491793 -0.0248380341
v  -0.0112096043 -0.0463247001 -0.0248380825
v  -0.0168119036 -0.0489913337 -0.0225206781
v  -0.0145564377 -0.0508252196 -0.0225210879
v  -0.0114142057 -0.0510255061 -0.0225218628
v  -0.00877768733 -0.0492370129 -0.0225226823
v  -0.0078363521 -0.0464575477 -0.022523161
v  -0.00879555754 -0.0431386046 -0.0225232057
v  -0.01115108 -0.0414917842 -0.022522755
v  -0.0141105289 -0.0415032022 -0.022522008
v  -0.0164947193 -0.0429692827 -0.0225212798
v  -0.017494075 -0.0460473746 -0.022570651

# 0 UV coordinates

# 44 vertex normals
vn -0.596063495 -0.80293715 0.000219763373
vn -0.851499915 -0.524354637 0.000260056899
vn 0.0283547658 -0.999597907 7.94146545e-05
vn 0.397337407 -0.917672575 -2.06903642e-05
vn 0.879856884 -0.4752388 -0.000180609728
vn 0.993396282 -0.114733696 -0.000240482725
vn 0.851500332 0.524353862 -0.000260570348
vn 0.596064985 0.802936077 -0.000220812828
vn -0.0283519756 0.999598026 -8.09772464e-05
vn -0.397335112 0.917673588 1.91357667e-05
vn -0.879855931 0.475240439 0.000179591225
vn -0.993396223 0.114734091 0.00023997722
vn 0.161233723 0.804899454 -0.571087241
vn -0.39757511 -0.379811078 -0.835270941
vn -0.252141654 0.647805035 -0.718869507
vn 0.497193962 0.485921681 -0.718803346
vn 0.175449431 -0.636820376 -0.750784397
vn -0.64601934 0.156151906 -0.747178376
vn -0.586240351 0.357544899 -0.726969063
vn 0.694985747 0.0447576009 -0.717629075
vn 0.536840916 -0.134817794 -0.832842052
vn -0.821199715 -0.0410180315 -0.569164693
vn -0.450792193 -0.284647733 -0.846027195
vn -0.153785914 0.512781024 -0.8446334
vn 0.701298475 -0.41974175 -0.576192021
vn 0.255497396 -0.640511155 -0.724200606
vn 0.382824808 0.396587342 -0.834364235
vn -0.322906584 -0.824524105 -0.464641213
vn 0.30045706 0.73864764 -0.603427887
vn 0.926815212 0.125351071 -0.353978515
vn 0.401439518 -0.524469733 -0.750851333
vn -0.408037484 0.519888282 -0.750480831
vn -0.311279535 -0.734581888 -0.602905095
vn -0.928212702 -0.120152056 -0.352114439
vn -0.848362565 -0.529415667 0.000260069588
vn -0.3645612 -0.931179464 0.00017324576
vn 0.151978582 -0.98838371 4.8090591e-05
vn 0.723343253 -0.690488636 -0.000122355035
vn 0.992672265 -0.120778665 0.00378395221
vn 0.87108469 0.491051376 0.00894795917
vn 0.397165149 0.91774714 -0.000180027957
vn -0.183225259 0.98307097 -3.90483001e-05
vn -0.704683602 0.709521711 0.000116190204
vn -0.990847826 0.134983733 0.000237775137

# Mesh 'mesh_0' with 64 faces
g mesh_0
usemtl material_0
f  1//1 2//2 3//3
f  4//4 1//1 3//3
f  4//4 3//3 5//5
f  6//6 4//4 5//5
f  6//6 5//5 7//7
f  8//8 6//6 7//7
f  8//8 7//7 9//9
f  10//10 8//8 9//9
f  10//10 9//9 11//11
f  12//12 10//10 11//11
f  12//12 11//11 2//2
f  1//1 12//12 2//2
f  13//13 14//14 15//15
f  16//16 14//14 13//13
f  14//14 17//17 15//15
f  18//18 14//14 16//16
f  15//15 17//17 19//19
f  20//20 18//18 16//16
f  17//17 21//21 19//19
f  21//21 22//22 19//19
f  22//22 21//21 23//23
f  24//24 18//18 20//20
f  25//25 24//24 20//20
f  26//26 24//24 25//25
f  21//21 27//27 23//23
f  27//27 24//24 26//26
f  23//23 27//27 28//28
f  28//28 27//27 26//26
f  29//29 30//30 31//31
f  32//32 29//29 31//31
f  33//33 32//32 31//31
f  34//34 32//32 33//33
f  18//18 34//34 14//14
f  34//34 33//33 14//14
f  14//14 33//33 17//17
f  33//33 31//31 17//17
f  17//17 31//31 21//21
f  31//31 30//30 21//21
f  21//21 30//30 27//27
f  30//30 29//29 27//27
f  27//27 29//29 24//24
f  29//29 32//32 24//24
f  24//24 32//32 18//18
f  32//32 34//34 18//18
f  23//23 28//28 35//35
f  28//28 36//36 35//35
f  36//36 28//28 37//37
f  28//28 26//26 37//37
f  37//37 26//26 38//38
f  26//26 25//25 38//38
f  38//38 25//25 39//39
f  25//25 20//20 39//39
f  39//39 20//20 40//40
f  20//20 16//16 40//40
f  40//40 16//16 41//41
f  16//16 13//13 41//41
f  41//41 13//13 42//42
f  13//13 15//15 42//42
f  42//42 15//15 43//43
f  15//15 19//19 43//43
f  43//43 19//19 44//44
f  19//19 22//22 44//44
f  44//44 22//22 35//35
f  22//22 23//23 35//35

