# File produced by Open Asset Import Library (http://www.assimp.sf.net)
# (assimp v5.2.0)

mtllib mrRM_rod_link_respondable_coll_1.mtl

# 34 vertex positions
v  0.00328617007 -0.00100727857 -0.0348414555
v  0.0032861745 0.00362347113 -0.0341398232
v  0.00328616449 -0.00558232516 -0.0336885229
v  0.00328613701 0.00636552693 0.0329232775
v  0.00328614539 -0.00384959835 0.00125617685
v  0.00328614889 0.00867195148 0.0170437023
v  0.0032861291 -1.3527243e-05 0.03484115
v  0.00328615913 -0.00903673377 -0.0305945296
v  0.00328617659 0.00828090869 -0.0297361985
v  0.00328615401 -0.0112125836 -0.0260390993
v  -0.00328607601 -0.0010072717 -0.0348414592
v  -0.0032860816 -0.00558231864 -0.0336885266
v  -0.00328607159 0.00362347811 -0.0341398306
v  -0.00328607694 0.007561679 -0.0184277575
v  -0.00328607159 0.00968845934 -0.0234972872
v  -0.00328609208 -0.0112125874 -0.0260391664
v  -0.0032860972 0.008671958 0.0170436986
v  -0.00328610069 -0.00384959136 0.00125617289
v  -0.00328610907 0.00636550551 0.0329232179
v  -0.00328611699 -1.35203582e-05 0.0348411463
v  0.00328614726 0.011216566 0.0244779047
v  -0.00328609883 0.0112165734 0.0244779009
v  -0.00328612304 -0.0067570731 0.0331665874
v  -0.00328612328 -0.0112165026 0.0257902406
v  0.00328616262 0.00312602264 -0.0152178146
v  0.00328615704 -0.00118035509 -0.0136991451
v  0.00328612281 -0.0112165092 0.0257902462
v  0.00328612304 -0.00675708009 0.0331665911
v  0.00328616914 0.00756167201 -0.0184277538
v  0.0032861745 0.00968845282 -0.0234972835
v  -0.00328608695 -0.00903675146 -0.0305944532
v  -0.00328606949 0.00828091614 -0.0297362022
v  -0.00328608346 0.00312602962 -0.0152178193
v  -0.00328608905 -0.00118034822 -0.0136991488

# 0 UV coordinates

# 34 vertex normals
vn 0.321271062 -0.108886376 -0.940706551
vn 0.721575856 0.237311244 -0.650393486
vn 0.564749837 -0.445795715 -0.69449532
vn 0.729611695 0.491803467 0.475180089
vn 0.875062108 0.481698394 -0.0472524837
vn 0.559673905 0.703253031 -0.438406646
vn 0.718365312 0.0801807418 0.691029787
vn 0.713227868 -0.58767277 -0.382029593
vn 0.720846593 0.56455195 -0.402071178
vn 0.922254443 -0.382387489 -0.0568036661
vn -0.32126984 0.0177495256 -0.946821332
vn -0.564751267 -0.326401711 -0.757969558
vn -0.721574247 0.366528749 -0.587356091
vn -0.567594051 0.594458997 0.56960994
vn -0.571251273 0.805397809 0.158133686
vn -0.92225498 -0.369520515 -0.113580436
vn -0.559671938 0.74876231 -0.35513708
vn -0.875061095 0.44653064 -0.186757907
vn -0.729614913 0.350937903 0.586945176
vn -0.718367398 -0.0464709736 0.694110096
vn 0.340278506 0.93894577 -0.0509047024
vn -0.340279192 0.912069559 0.228777677
vn -0.336462975 -0.656953275 0.674688876
vn -0.718722463 -0.684166908 0.123909585
vn 0.558233738 0.420098573 0.71546638
vn 0.603779674 0.497998208 0.622452974
vn 0.718721151 -0.649613857 0.247874781
vn 0.336460918 -0.450108528 0.827161729
vn 0.567594707 0.68977946 0.449489236
vn 0.571252882 0.820632935 -0.0152217261
vn -0.713229537 -0.531760812 -0.456655145
vn -0.720844805 0.633863389 -0.280356616
vn -0.558233917 0.349293649 0.752574861
vn -0.603779078 0.694790006 0.390791029

# Mesh 'mesh_0' with 64 faces
g mesh_0
usemtl material_0
f  1//1 2//2 3//3
f  4//4 5//5 6//6
f  4//4 7//7 5//5
f  8//8 9//9 10//10
f  11//11 12//12 13//13
f  14//14 15//15 16//16
f  17//17 18//18 19//19
f  19//19 18//18 20//20
f  21//21 4//4 6//6
f  22//22 17//17 19//19
f  23//23 20//20 24//24
f  2//2 9//9 8//8
f  3//3 2//2 8//8
f  10//10 25//25 26//26
f  10//10 26//26 5//5
f  27//27 10//10 5//5
f  7//7 27//27 5//5
f  28//28 27//27 7//7
f  25//25 10//10 29//29
f  29//29 10//10 30//30
f  10//10 9//9 30//30
f  31//31 32//32 13//13
f  12//12 31//31 13//13
f  33//33 14//14 16//16
f  16//16 34//34 33//33
f  18//18 34//34 16//16
f  24//24 18//18 16//16
f  20//20 18//18 24//24
f  16//16 15//15 32//32
f  16//16 32//32 31//31
f  16//16 10//10 24//24
f  10//10 27//27 24//24
f  23//23 24//24 27//27
f  28//28 23//23 27//27
f  20//20 23//23 28//28
f  7//7 20//20 28//28
f  19//19 20//20 7//7
f  4//4 19//19 7//7
f  3//3 12//12 1//1
f  12//12 11//11 1//1
f  1//1 11//11 2//2
f  11//11 13//13 2//2
f  2//2 13//13 9//9
f  13//13 32//32 9//9
f  9//9 32//32 30//30
f  32//32 15//15 30//30
f  30//30 15//15 29//29
f  15//15 14//14 29//29
f  29//29 14//14 25//25
f  14//14 33//33 25//25
f  25//25 33//33 26//26
f  33//33 34//34 26//26
f  26//26 34//34 5//5
f  34//34 18//18 5//5
f  5//5 18//18 6//6
f  18//18 17//17 6//6
f  6//6 17//17 21//21
f  17//17 22//22 21//21
f  31//31 12//12 3//3
f  8//8 31//31 3//3
f  16//16 31//31 8//8
f  10//10 16//16 8//8
f  22//22 19//19 4//4
f  21//21 22//22 4//4

