# File produced by Open Asset Import Library (http://www.assimp.sf.net)
# (assimp v5.2.0)

mtllib mrRM_arm_2_link_visual_vis_3.mtl

# 36 vertex positions
v  -0.0015556952 -0.00230511394 -0.0176673923
v  -0.00154613238 -0.00230183103 0.0202742908
v  -0.00278138765 -0.000555937353 -0.0176672358
v  -0.002771826 -0.000552648562 0.0202744491
v  -0.00241111009 0.00154760608 -0.0176675096
v  -0.00240154727 0.00155088899 0.0202741735
v  -0.000661925762 0.00277323858 -0.0176680572
v  -0.000652368471 0.00277652033 0.0202736259
v  0.00144160981 0.00240302086 -0.0176685546
v  0.00145117263 0.00240630377 0.0202731285
v  0.00266724685 0.000653816503 -0.0176687129
v  0.00267680828 0.000657105236 0.0202729702
v  0.00229702471 -0.00144969916 -0.0176684372
v  0.00230658753 -0.00144641625 0.0202732459
v  0.000547828153 -0.00267539592 -0.0176678915
v  0.000557372405 -0.00267205574 0.0202737935
v  0.00248795678 -0.0024500424 -0.0202732347
v  0.00135586329 -0.00313019659 -0.0202730689
v  0.00285180262 0.0019728702 -0.0202740692
v  0.0016559225 0.00307024433 -0.0202742219
v  0.000228120451 -0.00345190219 -0.0202729385
v  0.000314743898 0.00345201907 -0.0202740971
v  -0.00134877139 -0.00320617063 -0.0202727411
v  -0.00134053011 0.00323170703 -0.0202738419
v  -0.00285215117 -0.00198687986 -0.0202728286
v  -0.00255936454 0.00245798845 -0.020273637
v  0.00248906272 -0.00244994811 -0.0172447301
v  0.00285200705 0.00197508303 -0.0172599852
v  0.00135617971 -0.00313046202 -0.0172508825
v  0.00165585754 0.00307062687 -0.0172743816
v  0.000314826 0.00345200673 -0.0172812305
v  0.000227940633 -0.00345191057 -0.0172568876
v  -0.00134017307 0.00323151099 -0.0172865745
v  -0.00134883379 -0.00320578716 -0.0172655713
v  -0.00285177142 -0.00198493293 -0.0172790084
v  -0.0025581806 0.00245821942 -0.0172944851

# 0 UV coordinates

# 36 vertex normals
vn -0.416609824 -0.909085333 0.000184162345
vn -0.441339552 -0.519792676 0.731460869
vn -0.937402964 -0.348246545 0.000266397052
vn -0.938469172 -0.0764164999 0.33680293
vn -0.909079432 0.416622758 0.000193055545
vn -0.619910777 0.526702821 0.581631005
vn -0.348238736 0.937405944 6.66068263e-06
vn -0.0463320017 0.571356237 0.819393218
vn 0.416606098 0.909087002 -0.000183640484
vn 0.526793957 0.620109975 0.581336141
vn 0.937407136 0.348235309 -0.00026639321
vn 0.938639164 0.0764829516 0.336313725
vn 0.909089208 -0.416601419 -0.000193057844
vn 0.520034552 -0.441465199 0.731213093
vn 0.348234713 -0.937407315 -5.61637898e-06
vn 0.0661879554 -0.810793817 0.581577659
vn 0.701902509 -0.622264385 -0.346583217
vn 0.251531124 -0.657961965 -0.709801435
vn 0.788612664 0.169195414 -0.59115392
vn 0.387609899 0.580915987 -0.715747952
vn -0.00815215893 -0.699709237 -0.714381278
vn 0.0987277478 0.693382978 -0.713773608
vn -0.338618875 -0.608291149 -0.71785748
vn -0.190595806 0.673167706 -0.714505732
vn -0.780872762 -0.191926777 -0.594476163
vn -0.715883732 0.606665492 -0.345640719
vn 0.868686855 -0.353289962 0.34723106
vn 0.690771937 0.414913684 0.592182994
vn 0.257025301 -0.535224497 0.804656863
vn 0.341181844 0.752295315 0.563601375
vn -0.00106394698 0.701801956 0.712371171
vn 0.0904606581 -0.692310214 0.715907335
vn -0.246762767 0.541309834 0.803798318
vn -0.269319117 -0.778416812 0.567040145
vn -0.674534917 -0.438959301 0.593563139
vn -0.875760078 0.337784559 0.344885319

# Mesh 'mesh_0' with 58 faces
g mesh_0
usemtl material_0
f  1//1 2//2 3//3
f  2//2 4//4 3//3
f  3//3 4//4 5//5
f  4//4 6//6 5//5
f  5//5 6//6 7//7
f  6//6 8//8 7//7
f  7//7 8//8 9//9
f  8//8 10//10 9//9
f  9//9 10//10 11//11
f  10//10 12//12 11//11
f  11//11 12//12 13//13
f  12//12 14//14 13//13
f  13//13 14//14 15//15
f  14//14 16//16 15//15
f  15//15 16//16 1//1
f  16//16 2//2 1//1
f  12//12 10//10 14//14
f  10//10 8//8 14//14
f  8//8 16//16 14//14
f  2//2 16//16 8//8
f  6//6 2//2 8//8
f  4//4 2//2 6//6
f  17//17 18//18 19//19
f  18//18 20//20 19//19
f  18//18 21//21 20//20
f  21//21 22//22 20//20
f  21//21 23//23 22//22
f  23//23 24//24 22//22
f  24//24 23//23 25//25
f  26//26 24//24 25//25
f  27//27 28//28 29//29
f  28//28 30//30 29//29
f  30//30 31//31 29//29
f  31//31 32//32 29//29
f  31//31 33//33 32//32
f  33//33 34//34 32//32
f  34//34 33//33 35//35
f  33//33 36//36 35//35
f  35//35 25//25 23//23
f  34//34 35//35 23//23
f  34//34 23//23 21//21
f  32//32 34//34 21//21
f  32//32 21//21 18//18
f  29//29 32//32 18//18
f  29//29 18//18 17//17
f  27//27 29//29 17//17
f  27//27 17//17 19//19
f  28//28 27//27 19//19
f  28//28 19//19 20//20
f  30//30 28//28 20//20
f  30//30 20//20 22//22
f  31//31 30//30 22//22
f  31//31 22//22 24//24
f  33//33 31//31 24//24
f  33//33 24//24 26//26
f  36//36 33//33 26//26
f  36//36 26//26 25//25
f  35//35 36//36 25//25

