# File produced by Open Asset Import Library (http://www.assimp.sf.net)
# (assimp v5.2.0)

mtllib mrRM_right_gripper_6_respondable_coll_1.mtl

# 8 vertex positions
v  -0.00514636328 -0.00756755052 -0.0165935699
v  0.00514639122 -0.0075675156 -0.0165091287
v  0.00514636468 0.00756085664 -0.0165121667
v  -0.00514638936 0.00756082172 -0.0165966097
v  -0.00503342459 0.00756744295 0.016362153
v  -0.00503339991 -0.00756092975 0.016365191
v  0.0051463698 0.00756750721 0.0165935345
v  0.00514640473 -0.00756086549 0.0165965669

# 0 UV coordinates

# 8 vertex normals
vn 0.664637685 0.335205168 0.66775316
vn -0.411037177 0.815463603 0.407513887
vn -0.580500364 -0.575663269 0.575874269
vn 0.57484442 -0.579484701 0.577712178
vn 0.585386753 -0.572496831 -0.574081659
vn 0.41571328 0.81287998 -0.407932132
vn -0.568552732 -0.581891656 -0.58150661
vn -0.658199728 0.336615235 -0.673396885

# Mesh 'mesh_0' with 12 faces
g mesh_0
usemtl material_0
f  1//1 2//2 3//3
f  4//4 1//1 3//3
f  1//1 4//4 5//5
f  6//6 1//1 5//5
f  3//3 7//7 5//5
f  4//4 3//3 5//5
f  6//6 8//8 2//2
f  1//1 6//6 2//2
f  8//8 7//7 3//3
f  2//2 8//8 3//3
f  5//5 7//7 8//8
f  6//6 5//5 8//8

