# File produced by Open Asset Import Library (http://www.assimp.sf.net)
# (assimp v5.2.0)

mtllib mrRM_right_gripper_6_visual_vis_1.mtl

# 77 vertex positions
v  -0.00332943164 0.000500109803 -0.0159941055
v  -0.00519863935 0.00360853155 -0.0159512628
v  -0.0033760753 0.00363570801 -0.015988661
v  -0.00331422756 -0.000521971553 -0.0159958806
v  -0.00508868787 -0.00378292543 -0.0159640983
v  -0.00326612359 -0.00375574897 -0.0160014946
v  -0.000175249384 -0.000475292967 -0.0159870833
v  -0.000190453342 0.0005467874 -0.0159853082
v  0.000224874137 -0.000469710183 -0.0157744307
v  0.000209670179 0.000552370155 -0.0157726575
v  0.00107460027 -0.000457271235 -0.0156586003
v  0.00105939631 0.000564809132 -0.0156568252
v  0.00182985375 0.000328314491 -0.0155250747
v  -0.00490368949 0.00360065489 -0.00432295864
v  -0.00482182018 -0.00379124377 -0.00432210416
v  -0.00451731216 -0.00722228782 0.010779676
v  -0.00384993665 -0.00747120241 -0.00397654995
v  -0.00471800566 0.00726457126 0.0118775126
v  -0.00444374559 0.0070746108 -0.00418532779
v  0.00496379193 0.00387694361 -0.00454552704
v  0.00455262465 0.0072626234 -0.00421983423
v  0.00519842049 -0.00364917889 -0.00486144936
v  0.00449317042 -0.00734678563 -0.00415462255
v  0.00357105187 -0.00710447785 0.00910030585
v  0.00478493422 -0.00708403671 0.0111943884
v  0.00464553712 -0.00965941977 0.0111982012
v  0.00361295859 -0.0096711237 0.00909259543
v  0.00162624486 -0.00713114068 0.00779454317
v  0.00166605669 -0.00969781447 0.00778533937
v  -0.000673587783 -0.00973234233 0.00762683619
v  -0.000710787077 -0.00716562988 0.00763613358
v  -0.00281388941 -0.0071987058 0.00866760034
v  -0.00277896249 -0.00976545457 0.00865941588
v  -0.00408600038 -0.00978827849 0.0106065543
v  -0.00424446445 -0.0097946981 0.0129464045
v  -0.00449242163 0.00966061372 0.0129720122
v  -0.00223846268 -0.00976964924 0.0157056525
v  -0.004335518 0.00966703147 0.0106539382
v  -0.00250512408 0.00968542881 0.0157055743
v  -0.00300818426 0.00729644718 0.00871719513
v  -0.00304060848 0.00968964398 0.00872498751
v  -0.000920193444 0.00732928561 0.00769306859
v  -0.0009548901 0.00972244609 0.00770197436
v  0.00181998592 0.00974925794 0.015998723
v  0.00212736172 -0.00970521942 0.0160015468
v  0.00140014826 0.00736352894 0.00785030611
v  0.0013630148 0.0097565949 0.00785904657
v  0.0032917778 0.00978303701 0.00915413443
v  0.00333105656 0.00739000086 0.00914676394
v  0.00431474298 0.00979463197 0.0112401191
v  0.00459476421 0.00740301562 0.0114816492
v  0.00415770942 0.00978827104 0.0135582266
v  0.004487067 -0.00966584031 0.0135381352
v  0.00508517725 0.00375245372 -0.0107368389
v  0.00519512873 -0.00363900326 -0.0107496735
v  0.00456632953 -0.00364453672 -0.0129495757
v  0.00445637805 0.00374692003 -0.0129367402
v  0.00328632328 -0.00366096431 -0.0144544598
v  0.0031763718 0.00373049267 -0.0144416243
v  0.00182643975 -0.00368139474 -0.0151950615
v  0.00171648804 0.00371006224 -0.0151822269
v  0.000861444743 0.000561001827 -0.015160027
v  0.00081480114 0.00369660114 -0.0151545824
v  4.55162626e-05 0.000547614531 -0.0144401928
v  -1.12734483e-06 0.00368321384 -0.0144347474
v  -0.00175385864 0.000519888301 -0.0138875823
v  -0.0018005023 0.00365548767 -0.0138821369
v  -0.00320703723 0.000496509601 -0.0128729027
v  -0.00325368089 0.00363210891 -0.0128674582
v  0.000876648701 -0.00046107854 -0.0151618021
v  0.000924752734 -0.00369485584 -0.015167417
v  0.000108824272 -0.00370824314 -0.0144475829
v  6.07202128e-05 -0.000474465836 -0.014441967
v  -0.00169055071 -0.00373596931 -0.0138949724
v  -0.00173865468 -0.000502192066 -0.0138893565
v  -0.00314372918 -0.00375934807 -0.0128802927
v  -0.00319183315 -0.000525570766 -0.0128746778

# 0 UV coordinates

# 77 vertex normals
vn 0.390657276 0.411489695 -0.823445916
vn -0.291543692 0.532145023 -0.794873595
vn 0.552970529 0.583116472 -0.595146
vn 0.210707277 -0.429820985 -0.877984166
vn -0.581754327 -0.585000873 -0.565098047
vn 0.808455229 -0.392991424 -0.438129932
vn 0.124020293 -0.71340853 -0.689686239
vn 0.214085609 0.720780373 -0.659274578
vn 0.265343934 -0.706996262 -0.655552328
vn 0.164851099 0.715711653 -0.678661108
vn 0.333724648 -0.49714908 -0.800918639
vn 0.203983307 0.710884273 -0.673078239
vn 0.365964532 0.0578537099 -0.928828835
vn -0.840791106 0.517663538 -0.158412829
vn -0.644259453 -0.733789325 -0.215598702
vn -0.971943736 -0.231113389 -0.0437257513
vn -0.230112791 -0.852372766 -0.46958378
vn -0.973582685 0.221107349 -0.0569937155
vn -0.275465846 0.813777685 -0.511746466
vn 0.857584417 0.290224373 -0.424639702
vn 0.213971674 0.948111355 -0.235161662
vn 0.853282511 -0.305828542 -0.422348142
vn 0.214273587 -0.955898941 -0.200858131
vn 0.654912531 -0.573159456 -0.492521822
vn 0.984178901 -0.177088305 -0.00563088758
vn 0.952917159 -0.0294933654 -0.301793277
vn 0.69166702 0.0134720104 -0.722091019
vn 0.293593884 -0.456776798 -0.839736521
vn 0.323434412 0.00840981957 -0.946213186
vn -0.192953289 0.000766285462 -0.981207609
vn -0.0903650299 -0.849666536 -0.519519866
vn -0.556839883 -0.483046383 -0.675718665
vn -0.657658517 -0.0065470906 -0.753287673
vn -0.896903455 -0.0895326212 -0.433068305
vn -0.97329396 -0.0645571053 0.220297888
vn -0.804511189 0.533313334 0.261416554
vn -0.483676523 -0.00662585068 0.875221789
vn -0.552293658 0.804416716 -0.218827456
vn -0.430270135 0.476933688 0.766421556
vn -0.631076694 0.538048446 -0.55878979
vn -0.492554098 0.561516345 -0.664898455
vn -0.206520513 0.710862339 -0.67232722
vn -0.0947870016 0.56769675 -0.817762613
vn 0.308753371 0.487842023 0.81650573
vn 0.36117807 0.0058418694 0.932478666
vn 0.280667931 0.464231193 -0.8400684
vn 0.280180693 0.466782629 -0.838816226
vn 0.394439995 0.81581378 -0.42292425
vn 0.649574161 0.579972744 -0.491614729
vn 0.758535206 0.608073711 -0.234244883
vn 0.964062333 0.262543827 -0.0406765714
vn 0.735882938 0.639176667 0.223449141
vn 0.90674299 -0.00375581952 0.42166698
vn 0.683524966 0.723422408 -0.0972301066
vn 0.452548921 -0.889507234 -0.063056618
vn 0.649724841 -0.704167962 -0.28636542
vn 0.580913246 0.723618805 -0.372713894
vn 0.586697817 -0.45712176 -0.668449879
vn 0.494242311 0.587066948 -0.641152799
vn 0.0429221503 -0.602594316 -0.796892643
vn 0.0152785415 0.61296922 -0.789959073
vn -0.193195924 0.748558879 -0.634298861
vn -0.454157829 0.326593697 -0.828901231
vn -0.395450145 0.709409118 -0.583401978
vn -0.263489515 0.802851975 -0.53479141
vn -0.285341531 0.70787704 -0.646134853
vn -0.351425469 0.706837952 -0.613905787
vn -0.0819342285 0.510608375 -0.855900764
vn 0.315040171 0.926523805 -0.205677405
vn -0.218609095 -0.641616166 -0.735213459
vn -0.317862362 -0.472693175 -0.82190311
vn -0.313634485 -0.809646845 -0.496089995
vn -0.286613882 -0.717439651 -0.634927571
vn -0.264193445 -0.713803113 -0.648603797
vn -0.330277324 -0.7148422 -0.616374493
vn -0.0201711413 -0.921391666 -0.388111353
vn 0.735170364 -0.498607248 -0.45925501

# Mesh 'mesh_0' with 142 faces
g mesh_0
usemtl material_0
f  1//1 2//2 3//3
f  2//2 1//1 4//4
f  5//5 2//2 4//4
f  6//6 5//5 4//4
f  7//7 4//4 1//1
f  8//8 7//7 1//1
f  9//9 7//7 8//8
f  10//10 9//9 8//8
f  9//9 10//10 11//11
f  10//10 12//12 11//11
f  11//11 12//12 13//13
f  14//14 2//2 5//5
f  15//15 14//14 5//5
f  14//14 15//15 16//16
f  15//15 17//17 16//16
f  18//18 14//14 16//16
f  19//19 14//14 18//18
f  20//20 14//14 19//19
f  21//21 20//20 19//19
f  22//22 23//23 17//17
f  15//15 22//22 17//17
f  24//24 25//25 26//26
f  27//27 24//24 26//26
f  28//28 24//24 27//27
f  29//29 28//28 27//27
f  28//28 29//29 30//30
f  31//31 28//28 30//30
f  32//32 31//31 30//30
f  33//33 32//32 30//30
f  33//33 34//34 32//32
f  34//34 16//16 32//32
f  34//34 35//35 16//16
f  16//16 35//35 36//36
f  18//18 16//16 36//36
f  36//36 35//35 37//37
f  38//38 18//18 36//36
f  39//39 36//36 37//37
f  40//40 18//18 38//38
f  41//41 40//40 38//38
f  42//42 40//40 41//41
f  43//43 42//42 41//41
f  39//39 37//37 44//44
f  37//37 45//45 44//44
f  46//46 42//42 43//43
f  47//47 46//46 43//43
f  46//46 47//47 48//48
f  49//49 46//46 48//48
f  49//49 48//48 50//50
f  51//51 49//49 50//50
f  50//50 52//52 51//51
f  45//45 53//53 44//44
f  53//53 52//52 44//44
f  53//53 25//25 52//52
f  26//26 25//25 53//53
f  25//25 51//51 52//52
f  20//20 51//51 25//25
f  21//21 51//51 20//20
f  22//22 20//20 25//25
f  22//22 25//25 23//23
f  54//54 20//20 22//22
f  55//55 54//54 22//22
f  54//54 55//55 56//56
f  57//57 54//54 56//56
f  57//57 56//56 58//58
f  59//59 57//57 58//58
f  13//13 59//59 58//58
f  60//60 13//13 58//58
f  61//61 59//59 13//13
f  61//61 13//13 62//62
f  63//63 61//61 62//62
f  62//62 64//64 63//63
f  64//64 65//65 63//63
f  64//64 66//66 65//65
f  66//66 67//67 65//65
f  66//66 68//68 67//67
f  68//68 69//69 67//67
f  70//70 13//13 60//60
f  71//71 70//70 60//60
f  70//70 71//71 72//72
f  73//73 70//70 72//72
f  73//73 72//72 74//74
f  75//75 73//73 74//74
f  75//75 74//74 76//76
f  77//77 75//75 76//76
f  69//69 3//3 2//2
f  14//14 69//69 2//2
f  54//54 69//69 14//14
f  20//20 54//54 14//14
f  67//67 69//69 54//54
f  57//57 67//67 54//54
f  67//67 57//57 65//65
f  57//57 59//59 65//65
f  65//65 59//59 61//61
f  63//63 65//65 61//61
f  5//5 6//6 76//76
f  15//15 5//5 76//76
f  55//55 15//15 76//76
f  22//22 15//15 55//55
f  55//55 76//76 74//74
f  56//56 55//55 74//74
f  56//56 74//74 72//72
f  58//58 56//56 72//72
f  60//60 58//58 72//72
f  71//71 60//60 72//72
f  51//51 21//21 49//49
f  49//49 21//21 46//46
f  46//46 21//21 42//42
f  21//21 19//19 42//42
f  42//42 19//19 40//40
f  40//40 19//19 18//18
f  16//16 17//17 32//32
f  32//32 17//17 31//31
f  17//17 23//23 31//31
f  23//23 28//28 31//31
f  28//28 23//23 24//24
f  24//24 23//23 25//25
f  48//48 47//47 43//43
f  41//41 48//48 43//43
f  41//41 38//38 48//48
f  38//38 50//50 48//48
f  50//50 38//38 52//52
f  38//38 36//36 52//52
f  52//52 36//36 44//44
f  36//36 39//39 44//44
f  77//77 76//76 6//6
f  4//4 77//77 6//6
f  1//1 3//3 69//69
f  68//68 1//1 69//69
f  1//1 68//68 66//66
f  8//8 1//1 66//66
f  8//8 66//66 64//64
f  10//10 8//8 64//64
f  62//62 10//10 64//64
f  62//62 12//12 10//10
f  13//13 12//12 62//62
f  70//70 11//11 13//13
f  9//9 11//11 70//70
f  73//73 9//9 70//70
f  7//7 9//9 73//73
f  75//75 7//7 73//73
f  4//4 7//7 75//75
f  77//77 4//4 75//75

