# File produced by Open Asset Import Library (http://www.assimp.sf.net)
# (assimp v5.2.0)

mtllib mrRM_arm_base_link_visual_vis_2.mtl

# 155 vertex positions
v  0.00858040154 -0.0802395344 0.0297813341
v  0.00728781242 -0.0802395344 0.0290127322
v  0.00728781149 -0.0832952335 0.0290127322
v  0.00858040061 -0.0832952335 0.0297813322
v  0.00987287331 -0.0802395344 0.0290611349
v  0.00987287331 -0.083295241 0.0290611349
v  0.00989486463 -0.0802395418 0.0275466945
v  0.0098948041 -0.083295241 0.0275466945
v  0.00859923568 -0.0802395344 0.0267996732
v  0.00859923381 -0.083295241 0.0267996751
v  0.00730528403 -0.0802395344 0.0275241621
v  0.00730528403 -0.0832952335 0.0275241621
v  0.014308122 -0.0802924111 0.0134226065
v  0.0126076043 -0.0802607611 0.00851571374
v  0.0157166347 -0.0803688318 0.00851571467
v  0.0119571947 -0.0802607611 0.00926929526
v  0.0160147827 -0.080295451 0.0126305157
v  0.0135160312 -0.0802965909 0.0151292654
v  0.0165042542 -0.0803688318 0.00886070821
v  0.0119571825 -0.0803688243 0.0324728452
v  0.0177214425 -0.0803052336 0.0134226084
v  0.0143081211 -0.0803067163 0.0168359857
v  0.0272970386 -0.0802607611 0.0160559434
v  0.0221259743 -0.0803619102 0.0230213404
v  0.0128580397 -0.0803688243 0.033177726
v  0.0160147808 -0.0803163722 0.0176280066
v  0.0274602305 -0.0803688318 0.0331777334
v  0.0213338863 -0.0803517774 0.0213146806
v  0.0177214406 -0.0803194717 0.0168359876
v  0.0221259762 -0.0803476125 0.0196080189
v  0.0238326341 -0.0803688318 0.0238134302
v  0.0291968714 -0.0803688318 0.0322551131
v  0.030009523 -0.0803688318 0.0306708235
v  0.0185135193 -0.0803152993 0.0151292682
v  0.023832636 -0.0803507119 0.0188159291
v  0.0255392939 -0.0803688318 0.0230213422
v  0.0300095286 -0.0803688318 0.0213268436
v  0.0255392957 -0.08036042 0.0196080208
v  0.0296396781 -0.0803688318 0.0192352533
v  0.0263313893 -0.0803705528 0.0213146824
v  0.028677538 -0.0803688318 0.0174991544
v  0.0263670869 -0.0723415688 0.0256490111
v  0.0249127392 -0.0723415688 0.0223131198
v  0.0238676257 -0.0723415688 0.0263187289
v  0.0281968284 -0.0723415688 0.0238192715
v  0.0235299077 -0.0723415688 0.022721529
v  0.021368105 -0.0723415688 0.0256490074
v  0.019538356 -0.0723415688 0.0238192677
v  0.025250461 -0.0723415688 0.0209113304
v  0.0288666058 -0.0723415688 0.0213197526
v  0.0281968303 -0.0723415762 0.0188202821
v  0.0224847961 -0.0723415688 0.021728158
v  0.0188686457 -0.0723415688 0.021319747
v  0.0195383579 -0.0723415688 0.0188202783
v  0.0242053494 -0.0723415688 0.0199179593
v  0.0263670925 -0.0723415688 0.0169905405
v  0.0238676313 -0.0723415688 0.0163207594
v  0.0228225179 -0.0723415688 0.0203263685
v  0.0213681106 -0.0723415688 0.0169905387
v  0.0263313875 -0.0833659321 0.0213146824
v  0.0255392939 -0.0833659321 0.0230213422
v  0.0255392957 -0.0833659321 0.0196080208
v  0.0238326322 -0.0833659321 0.0238134321
v  0.023832636 -0.0833659321 0.0188159309
v  0.0221259762 -0.0833659321 0.0196080189
v  0.0221259743 -0.0833659321 0.0230213404
v  0.0213338844 -0.0833659321 0.0213146806
v  0.0185135193 -0.0833659917 0.0151292691
v  0.0177214388 -0.0833659917 0.0168359876
v  0.0177214406 -0.0833659917 0.0134226084
v  0.016014779 -0.0833659917 0.0176280085
v  0.0160147827 -0.0833659917 0.0126305167
v  0.014308122 -0.0833659917 0.0134226065
v  0.0143081201 -0.0833659917 0.0168359857
v  0.0135160312 -0.0833659917 0.0151292663
v  0.0126076061 -0.074346371 0.00851571187
v  0.0119571956 -0.074346371 0.00926929433
v  0.0157166366 -0.074346371 0.00851571467
v  0.0165042561 -0.074346371 0.00886070728
v  0.0194282718 -0.074346371 0.0108100781
v  0.019441694 -0.0743464306 0.0117036682
v  0.0185617413 -0.0743464306 0.014918617
v  0.0169056877 -0.0743464306 0.0167198163
v  0.0156000471 -0.0743464306 0.0201014262
v  0.0119571835 -0.0743463635 0.0324728414
v  0.0158158764 -0.0743464306 0.0240227561
v  0.0178719349 -0.0743464306 0.0270176455
v  0.0209753644 -0.0743464306 0.0290921275
v  0.0128580406 -0.0743463635 0.0331777222
v  0.0274602324 -0.0743464306 0.0331777297
v  0.024862783 -0.0743464306 0.0296018701
v  0.0286562033 -0.0743464306 0.0325423554
v  0.0286443904 -0.0742855817 0.0319308043
v  0.0287583023 -0.0743469074 0.0323243141
v  0.0194282718 -0.0778260306 0.0108100781
v  0.0194416922 -0.0778260306 0.0117036682
v  0.0185617413 -0.0778260306 0.0149186179
v  0.0169056877 -0.0778260306 0.0167198163
v  0.0156000461 -0.0778260306 0.0201014262
v  0.0158158764 -0.0778260306 0.0240227561
v  0.0178719331 -0.0778260306 0.0270176474
v  0.0209753644 -0.0778260306 0.0290921293
v  0.0248627812 -0.0778260306 0.029601872
v  0.0286443904 -0.0777651817 0.0319308043
v  0.0287583023 -0.0778265074 0.0323243141
v  0.0286562033 -0.0778260306 0.0325423554
v  0.0272970386 -0.0778260306 0.0160559416
v  0.028677538 -0.0778260306 0.0174991544
v  0.0296396781 -0.0778260306 0.0192352533
v  0.0300095286 -0.0778260306 0.0213268436
v  0.030009523 -0.0778260306 0.0306708235
v  0.0291968733 -0.0778260306 0.0322551131
v  0.0274602324 -0.0778260306 0.0331777334
v  0.0228225179 -0.0734293014 0.0203263704
v  0.0224847961 -0.0734293014 0.021728158
v  0.0235299077 -0.0734293014 0.022721529
v  0.0242053494 -0.0734293014 0.0199179593
v  0.0249127392 -0.0734293014 0.0223131198
v  0.0252504591 -0.0734293014 0.0209113304
v  0.0209414568 -0.0779971629 0.0196303707
v  0.0204888191 -0.0779971629 0.0213197488
v  0.0204888191 -0.0742401034 0.0213197488
v  0.0209414586 -0.0742401034 0.0196303688
v  0.022178188 -0.0779971629 0.0183936302
v  0.022178188 -0.0742401034 0.0183936302
v  0.0238676295 -0.0779971629 0.0179409403
v  0.0238676295 -0.0742401034 0.0179409403
v  0.0255569983 -0.0779971629 0.018393632
v  0.0255570002 -0.0742401034 0.0183936302
v  0.0267937388 -0.0779971629 0.0196303725
v  0.0267937388 -0.0742401034 0.0196303725
v  0.0272464361 -0.0779971629 0.0213197526
v  0.0272464361 -0.0742401034 0.0213197526
v  0.026793737 -0.0779971629 0.023009181
v  0.0267937388 -0.0742401034 0.023009181
v  0.0255569965 -0.0779971629 0.0242459215
v  0.0255569965 -0.0742401034 0.0242459197
v  0.0238676257 -0.0779971629 0.0246985499
v  0.0238676257 -0.0742401034 0.0246985499
v  0.0221781842 -0.0779971629 0.0242459197
v  0.0221781842 -0.0742401034 0.0242459197
v  0.0209414549 -0.0779971629 0.0230091792
v  0.0209414568 -0.0742401034 0.0230091773
v  0.0188686457 -0.073835738 0.0213197488
v  0.0195383579 -0.073835738 0.0188202783
v  0.0213681087 -0.0738357455 0.0169905387
v  0.0238676313 -0.0738357455 0.0163207594
v  0.0263670906 -0.0738357455 0.0169905424
v  0.0281968303 -0.0738357455 0.0188202821
v  0.0288666058 -0.0738357455 0.0213197526
v  0.0281968284 -0.0738357455 0.0238192715
v  0.0263670869 -0.0738357455 0.0256490111
v  0.0238676257 -0.073835738 0.0263187289
v  0.021368105 -0.073835738 0.0256490074
v  0.019538356 -0.073835738 0.0238192677

# 0 UV coordinates

# 155 vertex normals
vn -0.202253938 -3.39460257e-07 0.979333043
vn -0.94878906 1.71246285e-07 0.315910548
vn -0.764076412 3.213162e-08 0.645125747
vn 0.17467694 -3.95532112e-07 0.984625816
vn 0.746008694 -2.56655397e-07 0.665936291
vn 0.93999505 -7.48835419e-06 0.341188133
vn 0.948201358 -1.12715697e-05 -0.317669779
vn 0.758354962 -1.15873463e-05 -0.651841819
vn 0.19228591 -4.13299495e-06 -0.981338978
vn -0.179895774 -4.03392988e-07 -0.983685672
vn -0.747507334 -9.01149519e-08 -0.664253473
vn -0.940864384 1.15230172e-07 -0.338783294
vn -0.363996565 -0.81420958 -0.452293366
vn -0.453783989 -0.583785772 -0.673256397
vn 0.0874540582 -0.719156027 -0.689323187
vn -0.669886768 -0.724743485 -0.161240742
vn 0.100453205 -0.743425965 -0.661231458
vn -0.669875383 -0.734793007 -0.106519423
vn 0.423894286 -0.519927859 -0.741612315
vn -0.46322906 -0.825588167 0.322215736
vn 0.454961747 -0.816239417 -0.356037915
vn -0.543729186 -0.726425767 0.420314491
vn 0.347888261 -0.829842627 -0.436273903
vn -0.377348572 -0.847439349 0.373436302
vn -0.176745802 -0.573920012 0.799610376
vn -0.106309243 -0.738026619 0.666344643
vn 0.222931683 -0.716521502 0.660982907
vn -0.669567704 -0.735113978 -0.106238142
vn 0.421964645 -0.728469372 0.539701939
vn -0.425060242 -0.724397421 -0.542744994
vn -0.00112575293 -0.910548031 0.413401842
vn 0.630803764 -0.46418801 0.621784747
vn 0.689624488 -0.715929389 0.108917855
vn 0.558408558 -0.825362563 0.0834066123
vn 0.121295854 -0.586663246 -0.800695658
vn 0.484202862 -0.728745461 0.484228909
vn 0.825518847 -0.556008518 -0.0968154222
vn 0.331313163 -0.90254885 -0.27502194
vn 0.548758209 -0.803673446 -0.230159342
vn 0.671679854 -0.740840614 -0.00111765531
vn 0.637220621 -0.557142198 -0.532487035
vn 0.346906453 0.56649965 0.74748522
vn -0.464489788 0.834058046 -0.29765147
vn -0.0619300418 0.717873335 0.693413615
vn 0.569545269 0.717873394 0.400344908
vn 0.025530966 0.834057808 -0.551085949
vn -0.473882884 0.56649971 0.674175799
vn -0.631481469 0.717874527 0.293065608
vn -0.490020424 0.834057748 0.253431737
vn 0.820793629 0.566500783 0.0733119994
vn 0.631477714 0.71787262 -0.293078452
vn 0.490020663 0.834057212 -0.25343284
vn -0.820795417 0.566498578 -0.0733099803
vn -0.569546103 0.717874348 -0.400341779
vn -0.0255299155 0.834057927 0.55108577
vn 0.473891795 0.566497922 -0.674171031
vn 0.0619395487 0.717875004 -0.693411112
vn 0.464489698 0.834058046 0.297651798
vn -0.34691444 0.566498935 -0.747481942
vn 0.964053929 -0.265706778 6.493309e-07
vn 0.48405093 -0.728963971 0.484052002
vn 0.423520893 -0.726434946 -0.541223049
vn -4.47001611e-07 -0.740685523 0.671851814
vn -0.123700418 -0.587672234 -0.799587131
vn -0.54122299 -0.726435006 -0.423521012
vn -0.484051794 -0.728963971 0.484051138
vn -0.928885698 -0.341350824 0.143703476
vn 0.928885996 -0.341349959 -0.143705055
vn 0.643752038 -0.576037467 0.503750145
vn 0.423522025 -0.726435304 -0.541221678
vn 0.0866842866 -0.823694646 0.560368657
vn -0.123700336 -0.587672174 -0.799587071
vn -0.54122293 -0.726434886 -0.423521042
vn -0.503740132 -0.576036811 0.643760443
vn -0.928887308 -0.341350287 0.143694922
vn -0.257940859 0.340729147 -0.904085338
vn -0.296224177 0.942627072 -0.153965309
vn 0.225490019 0.562012136 -0.795799434
vn 0.419962943 0.556010544 -0.717274964
vn 0.760973811 0.595798552 -0.256793827
vn 0.81732589 0.558105528 0.143165976
vn 0.68772918 0.564446986 0.456539184
vn 0.729480028 0.560724616 0.391723096
vn 0.69745779 0.714145124 0.0595772602
vn -0.459158838 0.877535522 0.138219371
vn 0.751274288 0.567567289 -0.336829901
vn 0.5429039 0.560885429 -0.625030398
vn 0.164519906 0.806700945 -0.56759733
vn -0.2880992 0.467520088 0.835717499
vn 0.131309837 0.839634955 0.527039647
vn 0.26789555 0.727914631 -0.631167412
vn 0.459641933 0.692325532 0.556250572
vn 0.743680239 0.568831265 -0.351241827
vn 0.929674566 0.304575622 0.207217172
vn 0.70195657 0.263498694 -0.661683679
vn 0.827197015 0.558106244 0.065287374
vn 0.636106968 0.716016233 0.287556112
vn 0.571331918 0.712629855 0.407109767
vn 0.805419743 0.562394738 0.187112793
vn 0.676045656 0.718841612 -0.161953688
vn 0.618256032 0.560887635 -0.550603747
vn 0.349933833 0.563743591 -0.748157322
vn 0.18742916 0.709232032 -0.679602981
vn 0.51882875 0.728768468 -0.446892858
vn 0.8198241 0.572603703 0.00365552655
vn 0.634515584 0.172122911 0.753500998
vn 0.51290834 0.602319419 -0.611666858
vn 0.5847857 0.709704101 -0.392868608
vn 0.571308613 0.803497732 -0.16732569
vn 0.512336433 0.858264506 -0.0298890434
vn 0.675870717 0.704745471 0.215714455
vn 0.400170624 0.815788388 0.417555749
vn 0.241753325 3.92204839e-07 0.970337749
vn 0.463929415 0.60302335 0.64894712
vn 0.931012332 0.353553027 -0.0906439424
vn 0.273656785 0.750000238 -0.602172494
vn -0.273656666 0.750000596 0.602172196
vn -0.463929504 0.603023171 -0.648947299
vn -0.931012034 0.353553623 0.0906442329
vn -0.907077849 1.20500559e-07 -0.42096293
vn -0.996036053 2.08134509e-07 0.0889509767
vn -0.779513419 -0.624992073 -0.0417578556
vn -0.654200733 -0.624994338 -0.425914675
vn -0.575064003 0 -0.818108499
vn -0.353594095 -0.624994397 -0.695954859
vn -0.0889595076 0 -0.996035218
vn 0.0417640842 -0.624996483 -0.779509544
vn 0.420982569 -4.52523807e-07 -0.907068729
vn 0.425924122 -0.624994814 -0.654194236
vn 0.818107784 -2.43815379e-07 -0.575064898
vn 0.695953131 -0.624994278 -0.353597969
vn 0.996034324 0 -0.0889699534
vn 0.779509783 -0.624996603 0.041758392
vn 0.907070041 -2.89482699e-07 0.420979828
vn 0.65419513 -0.624994695 0.425922751
vn 0.575055242 1.59156968e-07 0.818114579
vn 0.353582084 -0.624995589 0.695959926
vn 0.0889583826 1.63539625e-07 0.996035397
vn -0.0417504683 -0.624992371 0.779513538
vn -0.42095685 0 0.90708071
vn -0.425915122 -0.624994814 0.654200077
vn -0.818117201 4.49130766e-07 0.575051486
vn -0.69596231 -0.624993861 0.353580326
vn -0.779512703 -0.624993026 0.0417553671
vn -0.695957839 -0.624994278 -0.353588611
vn -0.425922304 -0.624994159 -0.654195964
vn -0.0417590849 -0.624997139 -0.779509246
vn 0.353599936 -0.624994516 -0.695951819
vn 0.654194534 -0.624994576 -0.425924122
vn 0.779509544 -0.624996603 -0.0417631269
vn 0.695953429 -0.624994457 0.353596777
vn 0.425917208 -0.624995172 0.654198468
vn 0.0417598784 -0.624993205 0.779512346
vn -0.353588134 -0.624993265 0.695958972
vn -0.654199123 -0.624994576 0.425917119

# Mesh 'mesh_0' with 280 faces
g mesh_0
usemtl material_0
f  1//1 2//2 3//3
f  4//4 1//1 3//3
f  5//5 1//1 4//4
f  6//6 5//5 4//4
f  7//7 5//5 6//6
f  8//8 7//7 6//6
f  9//9 7//7 8//8
f  10//10 9//9 8//8
f  11//11 9//9 10//10
f  12//12 11//11 10//10
f  2//2 11//11 12//12
f  3//3 2//2 12//12
f  13//13 14//14 15//15
f  16//16 14//14 13//13
f  17//17 13//13 15//15
f  18//18 16//16 13//13
f  19//19 17//17 15//15
f  20//20 16//16 18//18
f  21//21 17//17 19//19
f  22//22 20//20 18//18
f  21//21 19//19 23//23
f  22//22 24//24 20//20
f  20//20 24//24 25//25
f  24//24 22//22 26//26
f  25//25 24//24 27//27
f  28//28 24//24 26//26
f  28//28 26//26 29//29
f  30//30 28//28 29//29
f  24//24 31//31 27//27
f  31//31 32//32 27//27
f  33//33 32//32 31//31
f  29//29 34//34 30//30
f  34//34 35//35 30//30
f  36//36 33//33 31//31
f  33//33 36//36 37//37
f  35//35 34//34 38//38
f  37//37 36//36 39//39
f  36//36 40//40 39//39
f  40//40 38//38 39//39
f  34//34 21//21 38//38
f  38//38 41//41 39//39
f  38//38 21//21 23//23
f  41//41 38//38 23//23
f  42//42 43//43 44//44
f  45//45 43//43 42//42
f  43//43 46//46 44//44
f  44//44 46//46 47//47
f  47//47 46//46 48//48
f  49//49 43//43 45//45
f  50//50 49//49 45//45
f  51//51 49//49 50//50
f  46//46 52//52 48//48
f  48//48 52//52 53//53
f  53//53 52//52 54//54
f  55//55 49//49 51//51
f  56//56 55//55 51//51
f  57//57 55//55 56//56
f  52//52 58//58 54//54
f  58//58 55//55 57//57
f  54//54 58//58 59//59
f  59//59 58//58 57//57
f  60//60 61//61 62//62
f  61//61 63//63 62//62
f  63//63 64//64 62//62
f  65//65 64//64 63//63
f  66//66 65//65 63//63
f  67//67 65//65 66//66
f  68//68 69//69 70//70
f  69//69 71//71 70//70
f  71//71 72//72 70//70
f  73//73 72//72 71//71
f  74//74 73//73 71//71
f  75//75 73//73 74//74
f  28//28 30//30 65//65
f  67//67 28//28 65//65
f  24//24 28//28 67//67
f  66//66 24//24 67//67
f  66//66 63//63 24//24
f  63//63 31//31 24//24
f  36//36 31//31 63//63
f  61//61 36//36 63//63
f  61//61 60//60 36//36
f  60//60 40//40 36//36
f  38//38 40//40 60//60
f  62//62 38//38 60//60
f  35//35 38//38 62//62
f  64//64 35//35 62//62
f  30//30 35//35 64//64
f  65//65 30//30 64//64
f  26//26 22//22 74//74
f  71//71 26//26 74//74
f  29//29 26//26 71//71
f  69//69 29//29 71//71
f  34//34 29//29 69//69
f  68//68 34//34 69//69
f  21//21 34//34 68//68
f  70//70 21//21 68//68
f  17//17 21//21 70//70
f  72//72 17//17 70//70
f  13//13 17//17 72//72
f  73//73 13//13 72//72
f  18//18 13//13 73//73
f  75//75 18//18 73//73
f  22//22 18//18 75//75
f  74//74 22//22 75//75
f  76//76 77//77 78//78
f  77//77 79//79 78//78
f  79//79 77//77 80//80
f  80//80 77//77 81//81
f  81//81 77//77 82//82
f  82//82 77//77 83//83
f  83//83 77//77 84//84
f  77//77 85//85 84//84
f  84//84 85//85 86//86
f  86//86 85//85 87//87
f  87//87 85//85 88//88
f  85//85 89//89 88//88
f  88//88 89//89 90//90
f  91//91 88//88 90//90
f  92//92 91//91 90//90
f  93//93 91//91 92//92
f  94//94 93//93 92//92
f  95//95 80//80 96//96
f  80//80 81//81 96//96
f  96//96 81//81 97//97
f  81//81 82//82 97//97
f  97//97 82//82 98//98
f  82//82 83//83 98//98
f  98//98 83//83 99//99
f  83//83 84//84 99//99
f  99//99 84//84 100//100
f  84//84 86//86 100//100
f  100//100 86//86 101//101
f  86//86 87//87 101//101
f  101//101 87//87 102//102
f  87//87 88//88 102//102
f  102//102 88//88 103//103
f  88//88 91//91 103//103
f  103//103 91//91 104//104
f  91//91 93//93 104//104
f  104//104 93//93 105//105
f  93//93 94//94 105//105
f  105//105 94//94 106//106
f  94//94 92//92 106//106
f  95//95 96//96 107//107
f  97//97 107//107 96//96
f  107//107 97//97 108//108
f  97//97 98//98 108//108
f  108//108 98//98 109//109
f  98//98 99//99 109//109
f  109//109 99//99 100//100
f  110//110 109//109 100//100
f  100//100 101//101 110//110
f  101//101 102//102 110//110
f  102//102 103//103 110//110
f  110//110 103//103 111//111
f  103//103 104//104 111//111
f  111//111 104//104 112//112
f  112//112 104//104 105//105
f  106//106 112//112 105//105
f  14//14 76//76 15//15
f  76//76 78//78 15//15
f  15//15 78//78 19//19
f  78//78 79//79 19//19
f  79//79 95//95 19//19
f  79//79 80//80 95//95
f  95//95 107//107 19//19
f  107//107 23//23 19//19
f  23//23 107//107 41//41
f  107//107 108//108 41//41
f  41//41 108//108 39//39
f  108//108 109//109 39//39
f  39//39 109//109 37//37
f  109//109 110//110 37//37
f  37//37 110//110 33//33
f  110//110 111//111 33//33
f  33//33 111//111 32//32
f  111//111 112//112 32//32
f  112//112 106//106 32//32
f  32//32 106//106 27//27
f  106//106 113//113 27//27
f  106//106 92//92 113//113
f  92//92 90//90 113//113
f  27//27 113//113 25//25
f  90//90 89//89 113//113
f  113//113 89//89 25//25
f  25//25 89//89 20//20
f  89//89 85//85 20//20
f  20//20 85//85 16//16
f  85//85 77//77 16//16
f  16//16 77//77 14//14
f  77//77 76//76 14//14
f  114//114 115//115 116//116
f  117//117 114//114 116//116
f  118//118 117//117 116//116
f  119//119 117//117 118//118
f  52//52 115//115 58//58
f  115//115 114//114 58//58
f  58//58 114//114 55//55
f  114//114 117//117 55//55
f  55//55 117//117 49//49
f  117//117 119//119 49//49
f  49//49 119//119 43//43
f  119//119 118//118 43//43
f  43//43 118//118 46//46
f  118//118 116//116 46//46
f  46//46 116//116 52//52
f  116//116 115//115 52//52
f  120//120 121//121 122//122
f  123//123 120//120 122//122
f  124//124 120//120 123//123
f  125//125 124//124 123//123
f  126//126 124//124 125//125
f  127//127 126//126 125//125
f  128//128 126//126 127//127
f  129//129 128//128 127//127
f  130//130 128//128 129//129
f  131//131 130//130 129//129
f  132//132 130//130 131//131
f  133//133 132//132 131//131
f  134//134 132//132 133//133
f  135//135 134//134 133//133
f  136//136 134//134 135//135
f  137//137 136//136 135//135
f  138//138 136//136 137//137
f  139//139 138//138 137//137
f  140//140 138//138 139//139
f  141//141 140//140 139//139
f  142//142 140//140 141//141
f  143//143 142//142 141//141
f  121//121 142//142 143//143
f  122//122 121//121 143//143
f  123//123 122//122 144//144
f  145//145 123//123 144//144
f  125//125 123//123 145//145
f  146//146 125//125 145//145
f  127//127 125//125 146//146
f  147//147 127//127 146//146
f  129//129 127//127 147//147
f  148//148 129//129 147//147
f  131//131 129//129 148//148
f  149//149 131//131 148//148
f  133//133 131//131 149//149
f  150//150 133//133 149//149
f  135//135 133//133 150//150
f  151//151 135//135 150//150
f  137//137 135//135 151//151
f  152//152 137//137 151//151
f  139//139 137//137 152//152
f  153//153 139//139 152//152
f  141//141 139//139 153//153
f  154//154 141//141 153//153
f  143//143 141//141 154//154
f  155//155 143//143 154//154
f  122//122 143//143 155//155
f  144//144 122//122 155//155
f  144//144 53//53 145//145
f  53//53 54//54 145//145
f  145//145 54//54 146//146
f  54//54 59//59 146//146
f  146//146 59//59 147//147
f  59//59 57//57 147//147
f  147//147 57//57 148//148
f  57//57 56//56 148//148
f  148//148 56//56 149//149
f  56//56 51//51 149//149
f  149//149 51//51 150//150
f  51//51 50//50 150//150
f  150//150 50//50 151//151
f  50//50 45//45 151//151
f  151//151 45//45 152//152
f  45//45 42//42 152//152
f  152//152 42//42 153//153
f  42//42 44//44 153//153
f  153//153 44//44 154//154
f  44//44 47//47 154//154
f  154//154 47//47 155//155
f  47//47 48//48 155//155
f  155//155 48//48 144//144
f  48//48 53//53 144//144

