# File produced by Open Asset Import Library (http://www.assimp.sf.net)
# (assimp v5.2.0)

mtllib mrRM_arm_1_link_respondable_coll_1.mtl

# 100 vertex positions
v  4.68281833e-05 -0.0250594653 -0.0648297593
v  0.00668990938 -0.0250507332 -0.0644353852
v  0.010780707 -0.0250452049 -0.0596543513
v  0.010940616 -0.0250446424 -0.0556592904
v  -0.00324449036 -0.0250631981 -0.0622943379
v  -0.0112423571 -0.025071362 -0.0464452878
v  0.00390534126 -0.0250505209 -0.0333440006
v  -0.0102638481 -0.0236874036 0.0432085469
v  -0.0148343565 -0.0230121352 -0.0403757133
v  0.00680679688 -0.0250350162 0.0381170809
v  -0.0159964785 -0.0183040034 -0.0365008153
v  -0.00510243978 -0.0250472799 0.0458471477
v  -0.0038899011 -0.0250438973 0.0566197261
v  0.0156145077 -0.0250196625 0.0594900586
v  0.00194102677 -0.0250343438 0.0669891536
v  0.0160458088 -0.0250185523 0.062736854
v  0.0148376115 -0.025019614 0.066254504
v  0.00394153362 -0.0250313636 0.0687197298
v  0.0114442511 -0.0250237118 0.0692344084
v  0.00768724503 -0.0250286702 0.0699277297
v  -0.0125853596 -0.0198312178 0.043069195
v  -0.0133990003 -0.0131638423 0.0229417104
v  -0.0126388585 0.0198004078 0.0430627689
v  -0.0151654268 -0.0131312758 -0.0181244407
v  -0.0134115797 0.0131217996 0.0229087602
v  -0.0160458069 0.0182381328 -0.0365067385
v  -0.0152008012 0.0130736902 -0.0181286894
v  -0.0114454515 0.0229776967 0.0430423729
v  -0.0148963984 0.0229481813 -0.0403831638
v  -0.00809246115 0.0250332318 0.0435177945
v  -0.0113099087 0.0250152014 -0.0464534126
v  0.00383772422 0.0250393823 -0.0333521217
v  0.00632816134 0.0250409041 -0.0447005033
v  0.0067391796 0.0250548869 0.0381089598
v  -0.00517004961 0.0250374936 0.0458390266
v  -0.00395751139 0.0250408761 0.056611605
v  0.0155468909 0.0250702426 0.0594819337
v  0.00187341659 0.0250504892 0.0669810325
v  0.0159781873 0.0250713509 0.0627286658
v  0.0147699947 0.0250702891 0.0662463829
v  0.00387392426 0.0250534695 0.0687116086
v  0.0113766929 0.0250661932 0.0692262873
v  0.00761962449 0.025061233 0.0699195489
v  -0.008683539 0.0250178222 -0.0521615148
v  0.0132394535 0.0250494145 -0.0497549139
v  -0.00929390825 0.0250161365 -0.0574731566
v  0.016029099 0.0250514615 -0.0585027263
v  0.0115229217 0.0250432175 -0.0677669793
v  -0.00762151834 0.0250173248 -0.0644341782
v  -7.46152e-05 0.0250268504 -0.0699277446
v  0.0076831216 -0.0219739936 0.0699272379
v  0.0114401272 -0.0219690334 0.0692339167
v  0.00393740973 -0.0219763853 0.0687192306
v  0.0148334885 -0.0219649356 0.0662540123
v  0.00193690287 -0.0219793674 0.0669886619
v  0.0160417445 -0.0219638757 0.0627363548
v  0.0156103848 -0.021964984 0.0594895631
v  -0.00389402523 -0.021988919 0.0566192307
v  0.00680267299 -0.0219803397 0.0381165855
v  -0.00518994313 -0.0219924059 0.0459109135
v  -0.00792928692 -0.0216774587 0.0433470905
v  -0.0123788854 -0.0207304955 -0.0411582626
v  -0.0106069474 -0.0220427308 -0.0466168597
v  0.00390121783 -0.0219959039 -0.033344496
v  -0.0129621914 -0.0174337458 -0.0365686342
v  0.0109364931 -0.0219900254 -0.0556597859
v  -0.00324871088 -0.0219366997 -0.0622948445
v  4.26040533e-05 -0.0219329689 -0.0648303255
v  0.0107765831 -0.0219905898 -0.0596548468
v  0.00668577012 -0.0219845567 -0.0644358844
v  -0.00954672787 -0.0198265724 0.0430828854
v  -0.0121348118 -0.0131272748 -0.0183094647
v  -0.0130091822 0.0173761025 -0.0365742818
v  -0.010397275 -0.0131595805 0.0227579083
v  -0.0104327612 0.0131281149 0.0227536447
v  -0.00960022584 0.0198039711 0.0430764593
v  -0.0121701863 0.0130778104 -0.0183137134
v  -0.0085664168 0.0214024875 0.0431372039
v  -0.0124347759 0.0206728652 -0.0411649756
v  -0.00740916654 0.0219161771 0.0435428768
v  0.00674330303 0.0220003296 0.0381094553
v  -0.00524930563 0.0219824836 0.0459037833
v  -0.0106663853 0.0219881795 -0.0466240011
v  -0.0039533875 0.0219859704 0.0566121005
v  0.00384184765 0.0219847653 -0.03335163
v  0.00633234344 0.0219862871 -0.0447000116
v  0.0155510139 0.0220156852 0.0594824292
v  0.00187754061 0.0219955221 0.0669815317
v  0.0159823708 0.0220167935 0.0627291575
v  0.0147741186 0.0220157336 0.0662468746
v  0.00387804792 0.0219985042 0.0687121004
v  0.0113808168 0.0220116358 0.069226779
v  0.00762374792 0.0220066775 0.0699200407
v  -0.00845197402 0.0219607223 -0.0513419323
v  0.0132435774 0.0219947975 -0.0497544184
v  -0.00908651017 0.0219243839 -0.0573394746
v  0.0160332229 0.0219968446 -0.0585022308
v  0.0115270531 0.0219827611 -0.0677664876
v  -0.00761729758 0.0218908172 -0.0644336715
v  -7.042777e-05 0.0219248552 -0.0699272379

# 0 UV coordinates

# 100 vertex normals
vn -0.228785753 -0.62544632 -0.745971859
vn 0.39162606 -0.476961076 -0.786852658
vn 0.723642111 -0.573076367 -0.384610742
vn 0.594273567 -0.803033948 0.0444463678
vn -0.694428504 -0.534382582 -0.481875837
vn -0.664478898 -0.686038673 -0.296342045
vn 0.678822815 -0.72089541 0.139676064
vn -0.510189533 -0.719162881 0.471711159
vn -0.913489521 -0.0797632337 -0.398967296
vn 0.663249731 -0.722937822 -0.193547741
vn -0.937743723 0.0677221268 -0.340661764
vn -0.695062876 -0.538416386 0.4764404
vn -0.751804352 -0.612282872 0.244744346
vn 0.68867445 -0.708893061 -0.152308896
vn -0.437119097 -0.804265618 0.402596444
vn 0.694936633 -0.715722501 0.0693137497
vn 0.656994402 -0.612187386 0.439982951
vn -0.267343014 -0.837583005 0.476426691
vn 0.30375433 -0.719750106 0.624254107
vn -0.0623931326 -0.249682292 0.966315627
vn -0.673876941 -0.111511499 0.730379939
vn -0.949983239 -0.153920934 -0.27173537
vn -0.911955953 0.0612211302 0.405694664
vn -0.850678623 0.220439956 0.477233768
vn -0.918388963 0.295541734 -0.263091147
vn -0.879948735 -0.0892347246 -0.466612786
vn -0.905433059 0.361373246 0.222711787
vn -0.602700174 0.324401051 0.729051828
vn -0.897533596 0.298228502 -0.324797124
vn -0.359139115 0.79327333 0.491667032
vn -0.756634831 0.560009837 -0.337480158
vn 0.697495043 0.710696757 0.0917109102
vn 0.522245467 0.728454888 0.443410933
vn 0.684354007 0.713495553 -0.150279045
vn -0.687205732 0.564946771 0.456709445
vn -0.753454983 0.610330462 0.244544983
vn 0.68675822 0.710699856 -0.15254119
vn -0.439287424 0.803214312 0.402334869
vn 0.693003535 0.717617095 0.0690788329
vn 0.655344069 0.614099622 0.439779371
vn -0.269595265 0.837010801 0.47616303
vn 0.301807702 0.720764637 0.62402755
vn -0.0630676374 0.249822319 0.966235697
vn -0.727348387 0.684545279 -0.0486012958
vn 0.60024941 0.723616183 0.340705276
vn -0.605104625 0.79338944 -0.0661928654
vn 0.79690361 0.580943346 -0.165679291
vn 0.311686575 0.741601944 -0.594035387
vn -0.570098341 0.728378713 -0.380068779
vn -0.336491674 0.337500691 -0.879128277
vn -0.0579583421 0.458115101 0.887001276
vn 0.386725575 0.460880548 0.798769295
vn -0.390034646 0.607255757 0.692180097
vn 0.448934585 0.841174603 0.301468253
vn -0.482758671 0.803288758 0.34881407
vn 0.884516001 0.458097965 0.0881902725
vn 0.671088696 0.710546196 -0.211575195
vn -0.521157026 0.836340785 0.170086652
vn 0.37551111 0.924435556 -0.0664096326
vn -0.768227398 0.564460158 0.302012324
vn 0.154691905 0.770864666 0.617930412
vn -0.213038906 0.848568261 -0.484299809
vn -0.461357594 0.848814189 -0.258192986
vn 0.82529676 0.561361313 0.0613082945
vn 0.732208014 0.353729039 -0.582019866
vn 0.584284008 0.803410709 0.114645079
vn -0.600845277 0.565014303 -0.565458894
vn -0.15148887 0.848443806 -0.507143199
vn 0.792306721 0.572689474 -0.210420787
vn 0.430565596 0.261958957 -0.863707602
vn 0.847374201 0.134131372 0.513775945
vn 0.979495049 -0.162523478 0.119061254
vn 0.888584495 -0.299084246 -0.347801954
vn 0.889888287 0.303513646 -0.340555817
vn 0.853019893 0.351066828 -0.386146575
vn 0.697353899 -0.0975039303 0.710063756
vn 0.891880274 0.22078976 0.394716948
vn 0.464805901 -0.479680538 0.744219244
vn -0.110221602 -0.901051402 -0.419472992
vn -0.299945682 -0.748850226 0.590978742
vn 0.370557755 -0.925816953 -0.0744980723
vn -0.783693731 -0.56088227 0.266899168
vn -0.308378279 -0.933253706 -0.184228778
vn -0.518894851 -0.837691069 0.170357361
vn 0.829807341 -0.556809604 0.0371866971
vn 0.617245257 -0.726837635 0.301189929
vn 0.673005819 -0.708798945 -0.211346045
vn -0.480585814 -0.804477632 0.349074483
vn 0.885750413 -0.455678642 0.0883350223
vn 0.451209545 -0.839859545 0.301738292
vn -0.388383567 -0.608080685 0.692384243
vn 0.387963414 -0.45957455 0.798921525
vn -0.0567194559 -0.45797646 0.887153029
vn -0.625533462 -0.763534367 -0.160384402
vn 0.5148139 -0.721282721 0.463376611
vn -0.576173604 -0.817306161 0.00588719733
vn 0.814284801 -0.578346193 0.0495570824
vn 0.492795229 -0.740332067 -0.457232267
vn -0.730091751 -0.486864954 -0.479508698
vn -0.0734839141 -0.338418424 -0.938122094

# Mesh 'mesh_0' with 206 faces
g mesh_0
usemtl material_0
f  1//1 2//2 3//3
f  1//1 3//3 4//4
f  5//5 1//1 4//4
f  6//6 5//5 4//4
f  7//7 6//6 4//4
f  8//8 6//6 7//7
f  6//6 8//8 9//9
f  10//10 8//8 7//7
f  9//9 8//8 11//11
f  12//12 8//8 10//10
f  13//13 12//12 10//10
f  14//14 13//13 10//10
f  15//15 13//13 14//14
f  16//16 15//15 14//14
f  15//15 16//16 17//17
f  18//18 15//15 17//17
f  18//18 17//17 19//19
f  20//20 18//18 19//19
f  8//8 21//21 11//11
f  11//11 21//21 22//22
f  21//21 23//23 22//22
f  24//24 11//11 22//22
f  23//23 25//25 22//22
f  26//26 11//11 24//24
f  25//25 23//23 27//27
f  27//27 26//26 24//24
f  23//23 26//26 27//27
f  23//23 28//28 26//26
f  28//28 29//29 26//26
f  28//28 30//30 29//29
f  30//30 31//31 29//29
f  31//31 30//30 32//32
f  33//33 31//31 32//32
f  30//30 34//34 32//32
f  30//30 35//35 34//34
f  35//35 36//36 34//34
f  36//36 37//37 34//34
f  36//36 38//38 37//37
f  38//38 39//39 37//37
f  40//40 39//39 38//38
f  41//41 40//40 38//38
f  40//40 41//41 42//42
f  41//41 43//43 42//42
f  44//44 31//31 33//33
f  45//45 44//44 33//33
f  46//46 44//44 45//45
f  47//47 46//46 45//45
f  46//46 47//47 48//48
f  49//49 46//46 48//48
f  50//50 49//49 48//48
f  51//51 52//52 53//53
f  52//52 54//54 53//53
f  53//53 54//54 55//55
f  54//54 56//56 55//55
f  56//56 57//57 55//55
f  57//57 58//58 55//55
f  57//57 59//59 58//58
f  59//59 60//60 58//58
f  60//60 59//59 61//61
f  62//62 61//61 59//59
f  59//59 63//63 62//62
f  59//59 64//64 63//63
f  62//62 65//65 61//61
f  63//63 64//64 66//66
f  67//67 63//63 66//66
f  68//68 67//67 66//66
f  69//69 68//68 66//66
f  68//68 69//69 70//70
f  65//65 71//71 61//61
f  65//65 72//72 71//71
f  72//72 65//65 73//73
f  72//72 74//74 71//71
f  74//74 75//75 71//71
f  75//75 76//76 71//71
f  75//75 77//77 76//76
f  77//77 72//72 73//73
f  77//77 73//73 76//76
f  76//76 73//73 78//78
f  73//73 79//79 78//78
f  80//80 78//78 79//79
f  81//81 80//80 79//79
f  82//82 80//80 81//81
f  79//79 83//83 81//81
f  84//84 82//82 81//81
f  83//83 85//85 81//81
f  86//86 85//85 83//83
f  87//87 84//84 81//81
f  84//84 87//87 88//88
f  87//87 89//89 88//88
f  89//89 90//90 88//88
f  90//90 91//91 88//88
f  90//90 92//92 91//91
f  92//92 93//93 91//91
f  72//72 24//24 74//74
f  24//24 22//22 74//74
f  75//75 74//74 22//22
f  25//25 75//75 22//22
f  75//75 72//72 77//77
f  27//27 24//24 77//77
f  24//24 72//72 77//77
f  83//83 94//94 86//86
f  94//94 95//95 86//86
f  94//94 96//96 95//95
f  96//96 97//97 95//95
f  97//97 96//96 98//98
f  96//96 99//99 98//98
f  100//100 98//98 99//99
f  68//68 1//1 67//67
f  1//1 68//68 70//70
f  1//1 5//5 67//67
f  2//2 1//1 70//70
f  63//63 67//67 5//5
f  3//3 2//2 70//70
f  6//6 63//63 5//5
f  69//69 3//3 70//70
f  4//4 3//3 69//69
f  66//66 4//4 69//69
f  7//7 4//4 66//66
f  64//64 7//7 66//66
f  62//62 63//63 6//6
f  9//9 62//62 6//6
f  11//11 62//62 9//9
f  65//65 62//62 11//11
f  10//10 7//7 64//64
f  59//59 10//10 64//64
f  59//59 57//57 10//10
f  57//57 14//14 10//10
f  65//65 11//11 26//26
f  73//73 65//65 26//26
f  57//57 56//56 14//14
f  56//56 16//16 14//14
f  73//73 26//26 79//79
f  26//26 29//29 79//79
f  17//17 16//16 56//56
f  54//54 17//17 56//56
f  79//79 29//29 31//31
f  83//83 79//79 31//31
f  83//83 31//31 94//94
f  44//44 94//94 31//31
f  94//94 44//44 96//96
f  44//44 46//46 96//96
f  54//54 52//52 17//17
f  52//52 19//19 17//17
f  96//96 46//46 99//99
f  46//46 49//49 99//99
f  49//49 50//50 99//99
f  50//50 100//100 99//99
f  50//50 48//48 100//100
f  48//48 98//98 100//100
f  48//48 47//47 98//98
f  47//47 97//97 98//98
f  47//47 45//45 97//97
f  45//45 95//95 97//97
f  95//95 45//45 33//33
f  86//86 95//95 33//33
f  33//33 32//32 86//86
f  32//32 85//85 86//86
f  85//85 32//32 34//34
f  81//81 85//85 34//34
f  81//81 34//34 87//87
f  34//34 37//37 87//87
f  87//87 37//37 89//89
f  37//37 39//39 89//89
f  89//89 39//39 40//40
f  90//90 89//89 40//40
f  90//90 40//40 92//92
f  40//40 42//42 92//92
f  92//92 42//42 43//43
f  93//93 92//92 43//43
f  93//93 43//43 91//91
f  43//43 41//41 91//91
f  91//91 41//41 38//38
f  88//88 91//91 38//38
f  88//88 38//38 36//36
f  84//84 88//88 36//36
f  84//84 36//36 82//82
f  36//36 35//35 82//82
f  82//82 35//35 80//80
f  35//35 30//30 80//80
f  78//78 80//80 30//30
f  78//78 30//30 28//28
f  76//76 78//78 28//28
f  23//23 76//76 28//28
f  23//23 21//21 76//76
f  21//21 71//71 76//76
f  71//71 21//21 8//8
f  61//61 71//71 8//8
f  61//61 8//8 12//12
f  60//60 61//61 12//12
f  60//60 12//12 13//13
f  58//58 60//60 13//13
f  58//58 13//13 55//55
f  13//13 15//15 55//55
f  55//55 15//15 53//53
f  15//15 18//18 53//53
f  53//53 18//18 20//20
f  51//51 53//53 20//20
f  51//51 20//20 52//52
f  20//20 19//19 52//52
f  72//72 22//22 24//24
f  27//27 75//75 77//77
f  27//27 22//22 25//25
f  75//75 74//74 72//72
f  72//72 74//74 22//22
f  27//27 25//25 75//75
f  27//27 24//24 22//22

