# File produced by Open Asset Import Library (http://www.assimp.sf.net)
# (assimp v5.2.0)

mtllib mrRM_base_link_visual_vis_1.mtl

# 78 vertex positions
v  0.0383529924 -0.00488487771 -0.137966558
v  0.0383352451 -0.00484555773 -0.138909072
v  0.0383552834 0.00284020649 -0.137705088
v  0.0383370705 0.00279704412 -0.138673931
v  0.0383250639 0.00238183094 -0.139319599
v  0.0383225121 0.0019579744 -0.139462903
v  0.0383223034 -0.00415008608 -0.139584497
v  0.0383254141 -0.00437401887 -0.139423087
v  0.0382449888 -0.00679814303 -0.137369543
v  0.0382779427 -0.00685229711 -0.135618746
v  0.0369228944 -0.00685275812 -0.13559325
v  0.0368899368 -0.00679860404 -0.137344047
v  0.0382372476 -0.00542048085 -0.137755975
v  0.0382377356 -0.00653145462 -0.137750119
v  0.0368826874 -0.00653191516 -0.137724638
v  0.0368821993 -0.00542094186 -0.137730479
v  0.0382124856 -0.0050961189 -0.139066458
v  0.0382299945 -0.00516535575 -0.138136923
v  0.0368749462 -0.00516581675 -0.138111427
v  0.0368574336 -0.0050965799 -0.139040962
v  0.038198974 -0.00452741468 -0.139774218
v  0.0368439257 -0.00452787522 -0.139748737
v  0.0381948017 0.00198955485 -0.139878273
v  0.0381946228 -0.0042142896 -0.139999971
v  0.0368395709 -0.00421475014 -0.139974475
v  0.0368397534 0.00198909407 -0.139852777
v  0.0382110514 0.00299119181 -0.138996392
v  0.0381977223 0.00247455877 -0.139714211
v  0.036842674 0.00247409823 -0.139688715
v  0.0368560031 0.00299073127 -0.138970897
v  0.0368757583 0.00303189852 -0.137920007
v  0.0382320844 0.0031207283 -0.137876153
v  0.0382351279 0.00436842488 -0.137691796
v  0.0382356085 0.00328344014 -0.137685925
v  0.0368805565 0.00328297936 -0.137660429
v  0.0368800797 0.00436796434 -0.1376663
v  0.0382742807 0.00469132839 -0.135604873
v  0.0382421464 0.00463573541 -0.137313932
v  0.0368870981 0.00463527441 -0.137288436
v  0.0369192287 0.00469086785 -0.135579377
v  0.0382819138 0.0032533498 -0.135225117
v  0.0382815003 0.00444866065 -0.135225579
v  0.0369264483 0.00444820011 -0.135200083
v  0.0369268619 0.00325288926 -0.135199636
v  0.0383081213 0.00298868259 -0.133836851
v  0.0382891446 0.0029957213 -0.134845421
v  0.0369340964 0.00299526053 -0.134819925
v  0.036953073 0.00298822182 -0.13381137
v  0.0383176804 -0.00490501057 -0.133471444
v  0.0383153409 0.00273105456 -0.13345769
v  0.0369602926 0.00273059378 -0.133432209
v  0.0369626284 -0.00490547158 -0.133445948
v  0.0382916816 -0.0051583685 -0.134857878
v  0.0383106172 -0.00515956432 -0.133851513
v  0.0369555652 -0.00516002486 -0.133826017
v  0.0369366333 -0.00515882904 -0.134832397
v  0.0382850021 -0.00660906732 -0.135239214
v  0.0382846221 -0.00541292131 -0.135237828
v  0.0369295701 -0.00541338231 -0.135212332
v  0.0369299501 -0.00660952786 -0.135213718
v  0.0383682325 -0.00652309414 -0.137185931
v  0.0383946933 -0.00656657433 -0.135780245
v  0.0383653864 -0.00641837437 -0.13733536
v  0.0383648984 -0.00530364597 -0.137341276
v  0.0383633599 0.00316793518 -0.137269944
v  0.0383628793 0.00425691437 -0.1372758
v  0.0383656137 0.00436111074 -0.137128621
v  0.0383912399 0.00440538395 -0.135765567
v  0.0383935273 0.00432856986 -0.13564539
v  0.0383939408 0.00313808536 -0.135644943
v  0.0384057723 0.00271651708 -0.135023579
v  0.0384247489 0.00270947884 -0.134015188
v  0.0384273641 0.00261602923 -0.133877754
v  0.0384311229 -0.00466678804 -0.133809671
v  0.0384271219 -0.00487884227 -0.1340262
v  0.0384081863 -0.00487764692 -0.135032609
v  0.0383965708 -0.00529632345 -0.135657564
v  0.0383969508 -0.00648883358 -0.13565895

# 0 UV coordinates

# 78 vertex normals
vn 0.990270913 -0.120801598 -0.0690689981
vn 0.985560894 -0.157235265 -0.0628231317
vn 0.987804115 0.146309942 -0.0532599725
vn 0.984137535 0.1585363 -0.0796211958
vn 0.970212221 0.127110645 -0.206231073
vn 0.982664704 0.0208667014 -0.184213564
vn 0.987202108 -0.058623407 -0.148308173
vn 0.963434398 -0.180697739 -0.197844699
vn 0.578689575 -0.783390105 -0.226756364
vn 0.580258131 -0.778361142 0.239696547
vn 0.00345463632 -0.986157656 0.165774852
vn -0.00736185024 -0.913003385 -0.407885581
vn 0.615723372 -0.31245926 -0.723362863
vn 0.623744965 -0.427147925 -0.654589057
vn -0.017794488 -0.306768179 -0.951617897
vn -0.0145575125 -0.619452417 -0.784899175
vn 0.571661055 -0.773281515 -0.274297774
vn 0.563711822 -0.768348396 -0.303100109
vn -0.00422389852 -0.970258415 -0.242034391
vn -0.008362161 -0.887567878 -0.460601091
vn 0.57882148 -0.570350885 -0.582808375
vn -0.0139863268 -0.655049086 -0.755456746
vn 0.589097559 0.114888184 -0.799852967
vn 0.603414237 -0.282465041 -0.74572432
vn -0.0184026156 -0.190571353 -0.981500924
vn -0.0184161682 0.222506806 -0.974757195
vn 0.466841787 0.836553931 -0.286768913
vn 0.585052252 0.449547797 -0.674996734
vn -0.0140819941 0.676612854 -0.736204326
vn -0.00644307304 0.945570111 -0.325354517
vn -0.0276282765 0.917818487 -0.396037728
vn 0.680320323 0.660276294 -0.318118632
vn 0.614870071 0.300385565 -0.729179919
vn 0.614414632 0.376193166 -0.693522513
vn -0.0182811692 0.25407204 -0.967012465
vn -0.0152168823 0.602662563 -0.797851086
vn 0.585213482 0.794457972 0.162363157
vn 0.569337547 0.764534771 -0.30222702
vn -0.00451680133 0.974936843 -0.222435698
vn 0.00650931802 0.931848824 0.362788588
vn 0.642409623 0.308885902 0.701355398
vn 0.651079297 0.441875428 0.617123842
vn 0.0177420992 0.315179408 0.948866248
vn 0.0146190049 0.614965618 0.788418472
vn 0.585987508 0.787894428 0.189316928
vn 0.57990396 0.770807683 0.263755351
vn 0.00341789005 0.979919553 0.199363947
vn 0.00705645559 0.919985116 0.39188987
vn 0.639744818 -0.291206241 0.711284399
vn 0.641454279 0.429057419 0.635960758
vn 0.0177990533 0.306045949 0.951850295
vn 0.0149905533 -0.618634641 0.785535753
vn 0.586305618 -0.78903693 0.183484048
vn 0.58036536 -0.772265017 0.258423507
vn 0.00394657487 -0.981382132 0.192024812
vn 0.00756284036 -0.922723532 0.385388076
vn 0.644180477 -0.316474766 0.696329832
vn 0.649805009 -0.433814347 0.624146283
vn 0.0179917011 -0.309841365 0.950618029
vn 0.0148284072 -0.629673898 0.77671802
vn 0.974215627 -0.216628328 -0.063055411
vn 0.96627754 -0.246870995 0.0732294768
vn 0.981612682 -0.113057934 -0.153799593
vn 0.988391817 -0.0482302643 -0.14406763
vn 0.98188138 0.104440004 -0.158117816
vn 0.988343 0.0465832129 -0.144942001
vn 0.976013601 0.193006486 -0.100727499
vn 0.961478472 0.273944974 0.0226569362
vn 0.990935087 0.0987884849 0.091041334
vn 0.995184124 0.0412789248 0.0889073089
vn 0.989486158 0.13966842 0.0375484787
vn 0.987713039 0.155945942 0.0101872366
vn 0.978249907 0.144385412 0.148929864
vn 0.988544226 -0.0403419361 0.145439714
vn 0.982025862 -0.178760782 0.0605787225
vn 0.987786353 -0.155553207 0.00901816878
vn 0.99106729 -0.0959944427 0.0925787836
vn 0.995236218 -0.0417750366 0.0880900249

# Mesh 'mesh_0' with 128 faces
g mesh_0
usemtl material_0
f  1//1 2//2 3//3
f  2//2 4//4 3//3
f  5//5 4//4 6//6
f  4//4 7//7 6//6
f  7//7 4//4 2//2
f  8//8 7//7 2//2
f  9//9 10//10 11//11
f  12//12 9//9 11//11
f  13//13 14//14 15//15
f  16//16 13//13 15//15
f  17//17 18//18 19//19
f  20//20 17//17 19//19
f  21//21 17//17 20//20
f  22//22 21//21 20//20
f  23//23 24//24 25//25
f  26//26 23//23 25//25
f  27//27 28//28 29//29
f  30//30 27//27 29//29
f  27//27 30//30 31//31
f  32//32 27//27 31//31
f  33//33 34//34 35//35
f  36//36 33//33 35//35
f  37//37 38//38 39//39
f  40//40 37//37 39//39
f  41//41 42//42 43//43
f  44//44 41//41 43//43
f  45//45 46//46 47//47
f  48//48 45//45 47//47
f  49//49 50//50 51//51
f  52//52 49//49 51//51
f  53//53 54//54 55//55
f  56//56 53//53 55//55
f  57//57 58//58 59//59
f  60//60 57//57 59//59
f  10//10 57//57 60//60
f  11//11 10//10 60//60
f  14//14 9//9 12//12
f  15//15 14//14 12//12
f  18//18 13//13 16//16
f  19//19 18//18 16//16
f  24//24 21//21 22//22
f  25//25 24//24 22//22
f  28//28 23//23 26//26
f  29//29 28//28 26//26
f  34//34 32//32 31//31
f  35//35 34//34 31//31
f  38//38 33//33 36//36
f  39//39 38//38 36//36
f  42//42 37//37 40//40
f  43//43 42//42 40//40
f  46//46 41//41 44//44
f  47//47 46//46 44//44
f  50//50 45//45 48//48
f  51//51 50//50 48//48
f  54//54 49//49 52//52
f  55//55 54//54 52//52
f  58//58 53//53 56//56
f  59//59 58//58 56//56
f  61//61 62//62 10//10
f  9//9 61//61 10//10
f  63//63 61//61 9//9
f  14//14 63//63 9//9
f  64//64 63//63 14//14
f  13//13 64//64 14//14
f  1//1 64//64 13//13
f  18//18 1//1 13//13
f  2//2 1//1 18//18
f  17//17 2//2 18//18
f  8//8 2//2 17//17
f  21//21 8//8 17//17
f  7//7 8//8 21//21
f  24//24 7//7 21//21
f  6//6 7//7 24//24
f  23//23 6//6 24//24
f  5//5 6//6 23//23
f  28//28 5//5 23//23
f  4//4 5//5 28//28
f  27//27 4//4 28//28
f  3//3 4//4 27//27
f  32//32 3//3 27//27
f  65//65 3//3 32//32
f  34//34 65//65 32//32
f  66//66 65//65 34//34
f  33//33 66//66 34//34
f  67//67 66//66 33//33
f  38//38 67//67 33//33
f  68//68 67//67 38//38
f  37//37 68//68 38//38
f  69//69 68//68 37//37
f  42//42 69//69 37//37
f  70//70 69//69 42//42
f  41//41 70//70 42//42
f  71//71 70//70 41//41
f  46//46 71//71 41//41
f  72//72 71//71 46//46
f  45//45 72//72 46//46
f  73//73 72//72 45//45
f  50//50 73//73 45//45
f  74//74 73//73 50//50
f  49//49 74//74 50//50
f  75//75 74//74 49//49
f  54//54 75//75 49//49
f  76//76 75//75 54//54
f  53//53 76//76 54//54
f  77//77 76//76 53//53
f  58//58 77//77 53//53
f  78//78 77//77 58//58
f  57//57 78//78 58//58
f  62//62 78//78 57//57
f  10//10 62//62 57//57
f  67//67 68//68 69//69
f  69//69 66//66 67//67
f  69//69 70//70 66//66
f  70//70 65//65 66//66
f  65//65 70//70 3//3
f  70//70 71//71 3//3
f  1//1 3//3 71//71
f  76//76 1//1 71//71
f  1//1 76//76 77//77
f  64//64 1//1 77//77
f  64//64 77//77 78//78
f  78//78 63//63 64//64
f  78//78 61//61 63//63
f  78//78 62//62 61//61
f  76//76 71//71 72//72
f  75//75 76//76 72//72
f  74//74 75//75 72//72
f  73//73 74//74 72//72

