# File produced by Open Asset Import Library (http://www.assimp.sf.net)
# (assimp v5.2.0)

mtllib mrRM_endpoint_bracket_link_respondable_coll_1.mtl

# 20 vertex positions
v  0.020088831 0.00137269497 0.0250499304
v  0.0200891607 0.0013726966 0.0217390694
v  0.0200539455 0.0172038171 0.0217711441
v  0.020054156 0.0205414463 0.0250620358
v  0.0200591534 0.0205414705 -0.0250664148
v  0.0200582985 0.0172038376 -0.0218862761
v  0.020049205 -0.0203563701 -0.0250803847
v  0.0200488884 -0.020356372 -0.0219081659
v  -0.0199520998 0.0016049759 -0.0250843633
v  -0.00100145 -0.0205414686 -0.0250824839
v  -0.0010017663 -0.0205414705 -0.0219102651
v  -0.0199524164 0.00160497439 -0.0219121445
v  -0.0199243147 0.0172045082 -0.0218901429
v  -0.0199234486 0.0205414705 -0.0250704009
v  -0.019928446 0.0205414463 0.0250581093
v  -0.0199286658 0.0172044281 0.0217671581
v  -0.0200892314 0.00149426609 0.0250843633
v  -0.0200888999 0.00149426761 0.0217735022
v  0.0200887714 0.00137269497 0.0250499304
v  0.0200582985 0.0172038376 -0.0218862165

# 0 UV coordinates

# 18 vertex normals
vn 0.57696414 -0.577112138 0.577973962
vn 0.40723446 -0.407204509 -0.81752342
vn 0.943027079 -0.234399363 -0.23612918
vn 0.816588998 0.408730567 0.407580346
vn 0.727637708 0.48508814 -0.48500815
vn 0.727407157 -0.485416204 0.485025555
vn 0.817700922 -0.407087594 -0.406995058
vn 0.414061844 -0.814196646 0.406984836
vn -0.906726956 -0.334038466 -0.257418901
vn -0.182077438 -0.650774598 -0.737116158
vn -0.371393293 -0.565373003 0.736491919
vn -0.828113914 -0.305458814 0.470023662
vn -0.872952461 -0.217776433 0.43649435
vn -0.66644609 0.334317505 -0.666394353
vn -0.727438092 0.487397224 0.482988268
vn -0.728679657 -0.480718821 -0.487786233
vn -0.820655406 -0.401709765 0.406391352
vn -0.411913544 -0.814201534 -0.409149438

# Mesh 'mesh_0' with 32 faces
g mesh_0
usemtl material_0
f  1//1 2//2 3//3
f  4//4 1//1 3//3
f  5//5 4//4 3//3
f  6//6 5//5 3//3
f  7//7 5//5 6//6
f  8//8 7//7 6//6
f  9//9 10//10 11//11
f  12//12 9//9 11//11
f  9//9 12//12 13//13
f  14//14 9//9 13//13
f  15//15 14//14 13//13
f  16//16 15//15 13//13
f  17//17 15//15 16//16
f  18//18 17//17 16//16
f  10//10 7//7 8//8
f  11//11 10//10 8//8
f  19//1 4//4 15//15
f  17//17 19//1 15//15
f  15//15 4//4 5//5
f  14//14 15//15 5//5
f  5//5 7//7 10//10
f  10//10 14//14 5//5
f  10//10 9//9 14//14
f  11//11 8//8 20//6
f  20//6 13//13 11//11
f  13//13 12//12 11//11
f  2//2 18//18 16//16
f  3//3 2//2 16//16
f  16//16 13//13 20//6
f  3//3 16//16 20//6
f  19//1 17//17 18//18
f  2//2 19//1 18//18

