# File produced by Open Asset Import Library (http://www.assimp.sf.net)
# (assimp v5.2.0)

mtllib mrRM_left_led_link_visual_vis_1.mtl

# 100 vertex positions
v  0.000527596683 -0.0138838254 -0.0143829416
v  0.000524707488 -0.0140036028 -0.0125150019
v  0.000275109342 -0.0107028093 -0.0125153698
v  0.000259825145 -0.0106120845 -0.0139418645
v  3.78177392e-05 -0.00857699756 -0.0190947428
v  0.00025067071 -0.0112191765 -0.0211306922
v  0.000112827838 -0.00927548856 -0.0178596582
v  0.000379599194 -0.0121324304 -0.0195128303
v  0.000465891149 -0.0129612135 -0.0179112758
v  0.000178894756 -0.00990885217 -0.0166362692
v  -0.000393431663 -0.0041465587 -0.0224834029
v  -0.000345856097 -0.00541987317 -0.0255669206
v  -0.0002549169 -0.00537348865 -0.0217723139
v  -0.0002190753 -0.0070268386 -0.0246364754
v  -7.14407433e-05 -0.00863550045 -0.0237078294
v  -0.000145328246 -0.00660119439 -0.0210633129
v  -0.000561782799 0.00138697203 -0.0232073106
v  -0.000444198609 0.0018297577 -0.0265135095
v  -0.000629433547 -3.9034865e-05 -0.0232047196
v  -0.000478560396 -3.40794941e-05 -0.0265116412
v  -0.000480965886 -0.00189429987 -0.0265122652
v  -0.000613386859 -0.00145739119 -0.0232045464
v  -9.34452983e-05 0.00655335654 -0.0210626349
v  -0.00013398593 0.00859027635 -0.0237055831
v  -0.000146535865 0.00532373181 -0.0217712577
v  -0.000175988214 0.0069772508 -0.0246353354
v  -0.000268329546 0.00536357891 -0.0255681444
v  -0.000273157086 0.0040889373 -0.0224857815
v  -6.50815564e-05 0.00987657718 -0.0166352876
v  0.000170676969 0.0129481442 -0.0179096665
v  -9.47715525e-05 0.00923962798 -0.0178588014
v  2.23123679e-05 0.0121092135 -0.0195119176
v  -6.30505747e-05 0.0111886365 -0.0211265888
v  -9.34795244e-05 0.00853707734 -0.0190939233
v  0.000468425278 0.0138807297 0.0143895373
v  0.000550024153 0.0140028633 0.0125202416
v  -9.40817627e-05 0.010672519 0.012518418
v  -0.000162039636 0.0105795264 0.013945369
v  -0.000499958405 0.00852601975 0.0190948956
v  -5.47773197e-05 0.0111892065 0.0211325884
v  -0.000439134048 0.00922851544 0.0178614017
v  6.16311299e-05 0.0121107856 0.0195164569
v  0.000200761526 0.0129478388 0.0179159343
v  -0.000355722412 0.009867521 0.0166382603
v  -0.000524495728 0.00408125762 0.0224838778
v  -0.000457351853 0.00535853533 0.0255688671
v  -0.000542765541 0.00531096291 0.0217729006
v  -0.000338442769 0.00697223656 0.0246377122
v  -0.000245643838 0.0085875215 0.0237093568
v  -0.00054914481 0.00654273061 0.0210631453
v  -0.000649081543 -0.00190042821 0.0265111048
v  -0.000650423579 -3.93820737e-05 0.0265114177
v  -0.000431662716 -3.21864936e-05 0.0232047234
v  -0.000459788251 -0.00145521725 0.0232053809
v  -0.000342362269 -0.00660907011 0.0210633911
v  -6.86215644e-05 -0.00863656495 0.0237094685
v  -0.000465166639 -0.00538012059 0.0217723027
v  -0.000304128713 -0.00702929869 0.0246367641
v  -0.000480691378 -0.00542563293 0.0255650934
v  -0.000510904589 -0.00415208703 0.0224824138
v  0.000650223927 -0.0129535692 0.0179154743
v  0.000598484883 -0.0121249333 0.0195159819
v  0.000165834281 -0.00927348807 0.017861519
v  0.000259707624 -0.00990469847 0.0166396182
v  0.00063002645 0.0140053276 -0.0125126783
v  3.07220507e-05 0.0106765218 -0.012514391
v  0.000463403936 -0.0140054496 0.0125179626
v  0.000324232824 -0.0107010128 0.0125178657
v  0.000505996926 -0.0135139106 -0.0162003245
v  0.000225170617 -0.0103303138 -0.0153296543
v  9.02887332e-05 -0.0100285867 -0.0225236621
v  -5.24736279e-05 -0.00766640343 -0.0201585423
v  -0.000427507039 -0.00369637576 -0.0261852741
v  -0.00051632378 -0.00283114775 -0.0229553878
v  -0.000367417641 0.00363548077 -0.0261869077
v  -0.00042552533 0.00276723853 -0.0229587425
v  -0.00010341411 0.00999049377 -0.0225202199
v  -8.96568963e-05 0.00762212463 -0.020158045
v  0.000518120476 0.0138829974 -0.0143829463
v  0.000345632579 0.0135077219 -0.0161993224
v  -2.50817175e-05 0.0103007965 -0.0153286234
v  1.03701987e-05 0.0105847204 -0.0139409117
v  0.000338805781 0.0135062328 0.0162059478
v  -0.000259944587 0.0102937426 0.0153323524
v  -0.000153849614 0.00998956617 0.0225254018
v  -0.00053082325 0.00761142932 0.020158587
v  -0.000630361203 0.00182446465 0.0265133344
v  -0.000559813285 0.00363009633 0.0261870679
v  -0.000493345433 0.00276448787 0.0229560472
v  -0.00045276052 0.00138803339 0.0232057273
v  -0.000583101937 -0.00370251364 0.0261834897
v  -0.00049372192 -0.00283443253 0.0229549743
v  0.000436256611 -0.0112128761 0.0211350583
v  0.000189499042 -0.0100264261 0.0225266051
v  -0.000166518599 -0.00767089799 0.0201605503
v  1.36692352e-05 -0.0085781822 0.0190974008
v  0.000535776897 -0.0138829332 0.0143867042
v  0.000608014117 -0.0135090556 0.0162050948
v  0.000300987158 -0.0103265857 0.0153329149
v  0.000325343426 -0.0106091863 0.013944759

# 0 UV coordinates

# 100 vertex normals
vn -0.996659517 -0.0816691145 0.000360470702
vn -0.997143507 -0.0754021183 -0.00441238005
vn -0.997630119 -0.0688046068 -0.00035437569
vn -0.99657011 -0.0824761987 0.00677348999
vn -0.996071696 -0.0879797563 0.0100402357
vn -0.995428264 -0.0936859325 0.0185858309
vn -0.995338976 -0.0959354639 0.00984172523
vn -0.994913638 -0.0999848396 0.0122409631
vn -0.995642722 -0.0932264253 0.00211351062
vn -0.99542582 -0.0954368562 0.00441105058
vn -0.995518804 -0.0918327644 0.0225617699
vn -0.9970783 -0.0750755295 0.0140862409
vn -0.996645153 -0.0772530064 0.0270271096
vn -0.997223496 -0.0692132488 0.0274745803
vn -0.996718764 -0.07595516 0.027974369
vn -0.997223735 -0.0698315874 0.0258559417
vn -0.996879101 0.0747292265 -0.0254455954
vn -0.998270869 0.0528749973 -0.025681043
vn -0.999114275 0.0139237726 -0.0397094712
vn -0.998913169 0.00983796734 -0.0455591194
vn -0.999007523 -0.0297309887 -0.033165209
vn -0.998463094 -0.0435977243 -0.034213677
vn -0.999710858 0.00902374461 0.0222893339
vn -0.99975127 0.010568968 0.019639222
vn -0.998760223 0.0401103795 0.0294821896
vn -0.999311507 0.0267452635 0.0257171337
vn -0.997214198 0.0700152889 0.0257210489
vn -0.995118856 0.0917348489 0.0363763385
vn -0.997182786 0.0749063939 -0.0039347359
vn -0.995762706 0.0881097317 0.0263303127
vn -0.998586237 0.0510928147 0.0146617591
vn -0.99728775 0.0628021955 0.0383820012
vn -0.999783516 0.0196707584 0.00678661931
vn -0.999957561 0.00634467369 -0.00669287704
vn -0.981078207 0.191071376 -0.0312635079
vn -0.981666148 0.189868525 -0.0167791564
vn -0.982149363 0.187224209 -0.018161485
vn -0.980941713 0.191647679 -0.0320115946
vn -0.99060452 0.127243295 0.0501183309
vn -0.990187347 0.134245023 0.0388236195
vn -0.986937344 0.159982473 0.0189830288
vn -0.986272037 0.164725214 0.0115453005
vn -0.984142065 0.1773756 -0.0015445177
vn -0.984376967 0.176019043 0.00437935069
vn -0.999657154 -0.00781529211 0.0249930061
vn -0.999522805 0.0293785222 0.00953898951
vn -0.998009741 0.0499062724 0.0385478921
vn -0.996511638 0.0796600208 0.0248787403
vn -0.995794415 0.0729707107 0.0553973801
vn -0.995907068 0.0553719737 0.0714359507
vn -0.998618782 0.00575696584 -0.0522244126
vn -0.997806847 0.00504972599 -0.0660008937
vn -0.998218358 0.00375241297 -0.0595502891
vn -0.998203456 0.026902508 -0.0535362102
vn -0.991391242 -0.130913571 0.00225145253
vn -0.990025342 -0.140620634 -0.00870268419
vn -0.995366931 -0.0961001962 -0.0030664946
vn -0.992715895 -0.119760431 -0.0131408172
vn -0.998968542 -0.0444855802 -0.00910337083
vn -0.999903858 -0.013164225 0.00436148467
vn -0.992948294 -0.116567843 0.0215764288
vn -0.989631653 -0.143114984 0.0121369911
vn -0.988974154 -0.148077875 -0.00174521049
vn -0.991892576 -0.127079293 -7.6904973e-05
vn -0.983321786 0.181403175 0.0130872792
vn -0.985491693 0.169009492 0.0155519461
vn -0.998491049 -0.0531913377 0.0136487084
vn -0.998658657 -0.0492147803 0.016084522
vn -0.996241689 -0.0864629596 -0.00517725153
vn -0.996141434 -0.0877619684 0.00055303413
vn -0.995229602 -0.0921700746 0.0319820121
vn -0.99610877 -0.0847219974 0.0242816471
vn -0.998963654 -0.0425874628 -0.0160615034
vn -0.998037159 -0.0617401861 -0.0104841758
vn -0.998697102 0.0508483052 -0.00430069165
vn -0.997099459 0.0760703087 0.00240855059
vn -0.999803603 0.0107815806 0.0166326687
vn -0.999945402 0.00527743902 0.00902299955
vn -0.987755835 0.153455079 0.0281050298
vn -0.989357412 0.131359518 0.0625833273
vn -0.991882682 0.123285331 0.0311381016
vn -0.988371551 0.152056649 -0.000726080849
vn -0.981572628 0.189543724 -0.0242564771
vn -0.981847048 0.188311934 -0.022696143
vn -0.992458761 0.114947647 0.0425760187
vn -0.993230462 0.102994874 0.0537162386
vn -0.998798192 -0.00213518995 -0.0489652455
vn -0.998686433 0.0404960848 -0.0313938856
vn -0.999753416 0.00724709686 -0.0209880434
vn -0.998391688 -0.0265179519 -0.050109271
vn -0.998580873 -0.0375688896 -0.0377467722
vn -0.99955368 -0.00819227472 -0.0287285186
vn -0.985289514 -0.169761807 -0.0196391642
vn -0.985023379 -0.171007693 -0.0220315121
vn -0.985822082 -0.166673735 -0.0193589944
vn -0.984503567 -0.17410928 -0.0209484939
vn -0.99772799 -0.0627486631 0.0245250762
vn -0.995243669 -0.0813117474 0.0536523089
vn -0.995750129 -0.0877710357 0.0278932881
vn -0.997942746 -0.0641109794 0.000265662617

# Mesh 'mesh_0' with 100 faces
g mesh_0
usemtl material_0
f  1//1 2//2 3//3
f  4//4 1//1 3//3
f  5//5 6//6 7//7
f  6//6 8//8 7//7
f  8//8 9//9 7//7
f  9//9 10//10 7//7
f  11//11 12//12 13//13
f  12//12 14//14 13//13
f  14//14 15//15 13//13
f  15//15 16//16 13//13
f  17//17 18//18 19//19
f  18//18 20//20 19//19
f  20//20 21//21 19//19
f  21//21 22//22 19//19
f  23//23 24//24 25//25
f  24//24 26//26 25//25
f  26//26 27//27 25//25
f  27//27 28//28 25//25
f  29//29 30//30 31//31
f  30//30 32//32 31//31
f  32//32 33//33 31//31
f  33//33 34//34 31//31
f  35//35 36//36 37//37
f  38//38 35//35 37//37
f  39//39 40//40 41//41
f  40//40 42//42 41//41
f  42//42 43//43 41//41
f  43//43 44//44 41//41
f  45//45 46//46 47//47
f  46//46 48//48 47//47
f  48//48 49//49 47//47
f  49//49 50//50 47//47
f  51//51 52//52 53//53
f  54//54 51//51 53//53
f  55//55 56//56 57//57
f  56//56 58//58 57//57
f  58//58 59//59 57//57
f  59//59 60//60 57//57
f  61//61 62//62 63//63
f  64//64 61//61 63//63
f  37//37 36//36 65//65
f  66//66 37//37 65//65
f  67//67 68//68 3//3
f  2//2 67//67 3//3
f  9//9 69//69 70//70
f  10//10 9//9 70//70
f  15//15 71//71 72//72
f  16//16 15//15 72//72
f  21//21 73//73 74//74
f  22//22 21//21 74//74
f  27//27 75//75 76//76
f  28//28 27//27 76//76
f  33//33 77//77 78//78
f  34//34 33//33 78//78
f  79//79 80//80 81//81
f  82//82 79//79 81//81
f  43//43 83//83 84//84
f  44//44 43//43 84//84
f  49//49 85//85 86//86
f  50//50 49//49 86//86
f  87//87 88//88 89//89
f  90//90 87//87 89//89
f  59//59 91//91 92//92
f  60//60 59//59 92//92
f  93//93 94//94 95//95
f  96//96 93//93 95//95
f  97//97 98//98 99//99
f  100//100 97//97 99//99
f  1//1 4//4 70//70
f  69//69 1//1 70//70
f  6//6 5//5 72//72
f  71//71 6//6 72//72
f  12//12 11//11 74//74
f  73//73 12//12 74//74
f  18//18 17//17 76//76
f  75//75 18//18 76//76
f  24//24 23//23 78//78
f  77//77 24//24 78//78
f  30//30 29//29 81//81
f  80//80 30//30 81//81
f  35//35 38//38 84//84
f  83//83 35//35 84//84
f  40//40 39//39 86//86
f  85//85 40//40 86//86
f  46//46 45//45 89//89
f  88//88 46//46 89//89
f  51//51 54//54 92//92
f  91//91 51//51 92//92
f  56//56 55//55 95//95
f  94//94 56//56 95//95
f  61//61 64//64 99//99
f  98//98 61//61 99//99
f  79//79 82//82 66//66
f  65//65 79//79 66//66
f  87//87 90//90 53//53
f  52//52 87//87 53//53
f  93//93 96//96 63//63
f  62//62 93//93 63//63
f  97//97 100//100 68//68
f  67//67 97//97 68//68

