# File produced by Open Asset Import Library (http://www.assimp.sf.net)
# (assimp v5.2.0)

mtllib mrRM_left_hit_sensor_link_visual_vis_1.mtl

# 144 vertex positions
v  -0.00671101268 0.0173937697 0.0306301042
v  -0.0067110383 0.0178718586 0.0292817242
v  0.00671922322 0.0173945259 0.0306301173
v  0.00671919761 0.0178726148 0.0292817373
v  -0.00671098242 0.01787192 -0.0292815566
v  0.00671925349 0.0178726763 -0.0292815436
v  -0.00671095401 0.0173938293 -0.0306299962
v  0.0067192819 0.0173945855 -0.0306299832
v  0.00671930378 0.015960265 0.0310795978
v  -0.00671093212 0.0159595087 0.0310795847
v  -0.00670913607 -0.0159603804 0.0310795847
v  0.00672109937 -0.0159596242 0.0310795978
v  0.00672118086 -0.0173938945 0.0306301173
v  -0.00670905504 -0.0173946507 0.0306301042
v  -0.00671087299 0.0159595702 -0.0310794655
v  0.00671936292 0.0159603264 -0.0310794525
v  0.00672115898 -0.0159595646 -0.0310794525
v  -0.00670907693 -0.0159603208 -0.0310794655
v  -0.00670899684 -0.0173945911 -0.0306299962
v  0.00672123907 -0.0173938349 -0.0306299832
v  0.0067212088 -0.017871974 0.0292816777
v  -0.0067090271 -0.0178727303 0.0292816646
v  -0.00670897122 -0.0178727303 -0.0292816162
v  0.00672126468 -0.017871974 -0.0292816032
v  -0.00727957953 3.46506713e-05 -0.00942665804
v  -0.00727944681 -0.00230689882 -0.010396597
v  0.00727968849 3.54674048e-05 -0.00942670275
v  0.00727982121 -0.00230607949 -0.010396583
v  -0.00727939 -0.00327678584 -0.0127381673
v  0.00727987802 -0.0032759665 -0.0127381533
v  -0.00727944262 -0.00230689882 -0.0150797367
v  0.00727976486 -0.00230607949 -0.0150797227
v  -0.00727957347 3.46529887e-05 -0.0160496254
v  0.00727963401 3.54721924e-05 -0.0160496123
v  -0.00727970619 0.00237617712 -0.0150797367
v  0.0072795013 0.00237699645 -0.0150797227
v  -0.007279763 0.00334606413 -0.0127381673
v  0.00727950502 0.00334688346 -0.0127381533
v  -0.00727971038 0.00237617712 -0.010396597
v  0.00727955764 0.00237699645 -0.010396583
v  -0.00727953855 3.46311172e-05 0.00934832823
v  0.00727967033 3.5449073e-05 0.0093483422
v  0.00727980118 -0.00230607949 0.0103182867
v  -0.0072794077 -0.00230689882 0.0103182727
v  0.0072798538 -0.0032759665 0.0126598468
v  -0.00727935508 -0.00327678584 0.0126598328
v  0.00727979699 -0.00230607949 0.0150013575
v  -0.00727941189 -0.00230689882 0.0150014032
v  0.00727966428 3.54442964e-05 0.0159713067
v  -0.0072795446 3.46275665e-05 0.0159712937
v  0.00727953343 0.00237699645 0.0150014171
v  -0.00727967545 0.00237617712 0.0150014032
v  0.00727948081 0.00334688346 0.0126598468
v  -0.00727972807 0.00334606413 0.0126598328
v  0.00727953762 0.00237699645 0.0103182867
v  -0.00727967126 0.00237617712 0.0103182727
v  -0.00411934825 0.00228343089 -0.0106046135
v  -0.00411939807 0.00320909102 -0.0128393136
v  -0.00411934406 0.00228343089 -0.0150740733
v  -0.00411922345 4.87107827e-05 -0.00967895985
v  -0.0041192174 4.87115831e-05 -0.0159997344
v  -0.00411909679 -0.002186022 -0.0106046135
v  -0.0041190926 -0.00218596193 -0.0150740733
v  -0.00411904231 -0.00311162206 -0.0128393136
v  -0.00505549368 0.00228337827 -0.0150740743
v  -0.00505536702 4.8660153e-05 -0.0159997344
v  -0.00505554816 0.0032090384 -0.0128393145
v  -0.00505549833 0.00228337827 -0.0106046144
v  -0.00505537307 4.86581121e-05 -0.00967896078
v  -0.00505524641 -0.00218607462 -0.0106046144
v  -0.00505519239 -0.00311167468 -0.0128393145
v  -0.00505524222 -0.00218601455 -0.0150740743
v  -0.00622719293 0.00100164034 -0.011756476
v  -0.00622721436 0.00139639538 -0.0127095561
v  -0.00622719107 0.00100164232 -0.0136625757
v  -0.00622713706 4.8591206e-05 -0.0140573364
v  -0.00622713938 4.85887613e-05 -0.0113617163
v  -0.00622708397 -0.000904455606 -0.0136625757
v  -0.00622708537 -0.000904456654 -0.011756476
v  -0.00622706255 -0.00129916368 -0.0127095561
v  -0.00718074571 0.00100158865 -0.0136625767
v  -0.0071806917 4.85387973e-05 -0.0140573373
v  -0.00718063861 -0.000904509274 -0.0136625767
v  -0.00718061719 -0.00129921734 -0.0127095571
v  -0.00718064047 -0.000904510322 -0.0117564769
v  -0.00718069449 4.85363416e-05 -0.0113617172
v  -0.00718074758 0.00100158667 -0.0117564769
v  -0.007180769 0.00139634172 -0.0127095571
v  -0.00411937246 0.00228337198 0.014829807
v  -0.00411942229 0.00320903189 0.0125950472
v  -0.00411936827 0.00228337198 0.0103603564
v  -0.00411924766 4.86876415e-05 0.0157554653
v  -0.00411924161 4.86884346e-05 0.00943463854
v  -0.004119121 -0.002186022 0.014829807
v  -0.00411911681 -0.002186022 0.0103602968
v  -0.00411906652 -0.00311168213 0.0125950472
v  -0.00505551789 0.00228331937 0.0103603555
v  -0.0050553917 4.86369972e-05 0.00943463761
v  -0.00505557237 0.00320897927 0.0125950463
v  -0.00505552255 0.00228331937 0.0148298061
v  -0.00505539728 4.86349709e-05 0.0157554653
v  -0.00505527109 -0.00218607462 0.0148298061
v  -0.00505521661 -0.00311173475 0.0125950463
v  -0.00505526643 -0.00218607462 0.0103602959
v  -0.00622721715 0.00100161834 0.0135481237
v  -0.0062272381 0.00139633636 0.0125950444
v  -0.00622721529 0.00100162032 0.0116420342
v  -0.00622716127 4.85706551e-05 0.0112472642
v  -0.0062271636 4.85682103e-05 0.0139428843
v  -0.00622710772 -0.00090447563 0.0116420342
v  -0.00622710958 -0.000904477667 0.0135481237
v  -0.00622708676 -0.00129922363 0.0125950444
v  -0.00718076993 0.0010015677 0.0116420332
v  -0.00718071591 4.85170058e-05 0.0112472633
v  -0.00718066283 -0.000904529297 0.0116420332
v  -0.00718058273 -0.0012992773 0.0125950435
v  -0.00718060602 -0.000904531335 0.0135481227
v  -0.00718066003 4.85145611e-05 0.0139428833
v  -0.00718071312 0.00100156467 0.0135481227
v  -0.00718073454 0.00139628269 0.0125950435
v  0.00727868825 0.0170922447 -0.0303456634
v  0.00727875577 0.0158983059 -0.0307198633
v  0.00728054484 -0.0158974845 -0.0307198633
v  0.00728061143 -0.0170914847 -0.030345723
v  0.00728063285 -0.017489465 -0.0292232521
v  0.0072786645 0.0174902249 -0.0292231925
v  0.00728063751 -0.017489465 0.0292233266
v  0.00727866916 0.0174902249 0.0292233862
v  0.00727869058 0.0170921851 0.0303458571
v  0.00727876928 0.015691055 0.0308241863
v  0.00728054671 -0.0158975441 0.0307199974
v  0.00728061423 -0.0170914847 0.0303458571
v  -0.00727857463 -0.0174902827 -0.0292232651
v  -0.00727857137 -0.0174902827 0.0292233136
v  -0.00727859605 -0.0170923024 -0.0303457361
v  -0.00727866264 -0.0158983022 -0.0307199359
v  -0.00728045171 0.0158974882 -0.0307198763
v  -0.00727859465 -0.0170923024 0.0303457845
v  -0.00727866217 -0.0158983618 0.0307199843
v  -0.0072804396 0.0156902373 0.0308241732
v  -0.00728051923 0.017091427 -0.0303456765
v  -0.00728054298 0.0174894072 -0.0292232055
v  -0.0072805183 0.0170913674 0.0303458441
v  -0.00728053926 0.0174894072 0.0292233732

# 0 UV coordinates

# 144 vertex normals
vn 0.316837609 -0.646866083 -0.693670213
vn 0.294849634 -0.940825343 -0.167066798
vn -0.309187025 -0.670213342 -0.674698114
vn -0.298262 -0.941520214 -0.156778142
vn 0.29437232 -0.942686915 0.157118678
vn -0.298781186 -0.939597666 0.166991249
vn 0.312945902 -0.667857885 0.67530036
vn -0.32107982 -0.645579994 0.692917168
vn -0.217291549 -0.127418295 -0.967754543
vn 0.301631629 -0.173487812 -0.937507451
vn 0.221019328 0.127498612 -0.966899455
vn -0.341919452 0.168416977 -0.924514353
vn -0.321109623 0.645559311 -0.692922592
vn 0.31290108 0.667891741 -0.675287783
vn 0.24088873 -0.127741098 0.962109566
vn -0.34193781 -0.168457836 0.924500227
vn -0.244291753 0.127688393 0.961258113
vn 0.33716172 0.168826222 0.926185548
vn 0.316735536 0.646903396 0.693681896
vn -0.317204058 0.667117238 0.674044609
vn -0.255983084 0.956043661 -0.143014595
vn 0.35216856 0.91685915 -0.188007206
vn 0.252434373 0.956974506 0.143096372
vn -0.35704568 0.915055752 0.187593758
vn 0.731303811 0.0933270156 0.67563647
vn 0.58155185 -0.491135985 0.648523569
vn -0.581515431 -0.111305282 0.805885196
vn -0.819406271 -0.456969857 0.34605208
vn 0.819462419 -0.567746282 0.0783932284
vn -0.819396853 -0.567841232 -0.0783906356
vn 0.819457591 -0.456877947 -0.346051872
vn -0.819411993 -0.346104115 -0.456920087
vn 0.731312096 -0.0932431147 -0.675639153
vn -0.819434464 0.0783501267 -0.567792594
vn 0.819412291 0.34610191 -0.456921399
vn -0.73133707 0.543677092 -0.411778331
vn 0.819398403 0.56783843 -0.0783944279
vn -0.731341779 0.675600827 0.0932878479
vn 0.81940484 0.456974357 0.34604913
vn -0.819450617 0.346012235 0.456920326
vn 0.731313527 -0.0932504013 -0.675636709
vn -0.819436371 0.0783522278 -0.567789495
vn -0.581493378 -0.491210282 -0.648519874
vn 0.819455743 -0.456880867 -0.34605211
vn -0.819398463 -0.56783849 -0.0783936828
vn 0.819462001 -0.567746639 0.0783949792
vn -0.819404244 -0.45697397 0.346051157
vn 0.8194502 -0.346013308 0.456920415
vn -0.731301844 -0.093333289 0.675637841
vn 0.731300414 0.0933255702 0.675640464
vn -0.819451332 0.346008211 0.456922024
vn 0.819405377 0.456970304 0.346053272
vn -0.872686923 0.483690858 0.0667882264
vn 0.819397748 0.567839324 -0.0783952847
vn -0.58155793 0.648498654 -0.491161913
vn 0.581493497 0.491210192 -0.648519635
vn -0.581493735 -0.491199344 -0.648527741
vn -0.3365044 -0.932831883 -0.12880002
vn -0.731276393 -0.543754935 0.411783278
vn -0.731311083 0.0932444483 -0.675640047
vn -0.731302798 -0.093326807 0.675637841
vn -0.731337905 0.543674886 -0.411779761
vn -0.581550002 0.491140336 0.648522079
vn -0.33660835 0.932794809 0.128797293
vn 0.731329262 -0.411746413 0.543711782
vn 0.731301785 0.0933315605 0.675638139
vn 0.336609274 -0.932795227 0.128791273
vn 0.581558883 -0.648491621 -0.491169751
vn 0.731312513 -0.0932457447 -0.675638437
vn 0.731285036 0.411828369 -0.54370898
vn 0.336503446 0.932834446 -0.128784657
vn 0.581484973 0.648561716 0.491164684
vn -0.731284559 -0.411827058 -0.543710709
vn -0.33650291 -0.932834983 -0.128781527
vn -0.581486762 -0.64855808 0.491167426
vn -0.731301486 -0.0933259502 0.675639391
vn -0.731310606 0.0932445228 -0.675640702
vn -0.731332958 0.411748141 0.543705523
vn -0.581563294 0.648512065 -0.491137773
vn -0.336603731 0.932797849 0.128786877
vn 0.73132956 -0.411742449 0.543714345
vn 0.731300175 0.0933266208 0.675640702
vn 0.581488669 0.648570418 0.491149127
vn 0.336498708 0.932838798 -0.128764942
vn 0.731288195 0.411833227 -0.543701231
vn 0.731311798 -0.0932433605 -0.675639451
vn 0.581561387 -0.648498654 -0.49115774
vn 0.336607993 -0.932794452 0.128800854
vn -0.581493974 -0.4912045 -0.64852351
vn -0.336504489 -0.932833195 -0.128790781
vn -0.731274068 -0.54375726 0.411784261
vn -0.731312156 0.0932453796 -0.675638795
vn -0.731304169 -0.0933408812 0.675634265
vn -0.731336772 0.5436728 -0.411784708
vn -0.581550479 0.491136789 0.648524225
vn -0.336609155 0.932794929 0.128794312
vn 0.731326818 -0.411756516 0.543707311
vn 0.731302857 0.0933224857 0.675638199
vn 0.336609364 -0.932793915 0.128801003
vn 0.581559062 -0.648496032 -0.49116388
vn 0.73131305 -0.0932480767 -0.675637484
vn 0.731283724 0.411829174 -0.543710232
vn 0.336504221 0.932832956 -0.128792912
vn 0.581485331 0.648560166 0.491166621
vn -0.731286585 -0.411831558 -0.543704629
vn -0.336499661 -0.932837844 -0.128769159
vn -0.581488729 -0.648568571 0.491151541
vn -0.73130244 -0.0933280438 0.675637841
vn -0.731310666 0.0932445154 -0.675640523
vn -0.731330097 0.4117468 0.543710291
vn -0.581560612 0.648501635 -0.491154552
vn -0.336607635 0.932794392 0.128801718
vn 0.581552744 -0.49116084 0.648504019
vn 0.819436193 0.0784438774 0.567777038
vn 0.581483662 0.648576438 0.491147071
vn 0.336494446 0.932837784 -0.12878339
vn 0.731272697 0.411838859 -0.543717802
vn 0.581523061 -0.111233816 -0.805889606
vn 0.731328309 -0.543690443 -0.411776215
vn 0.336596906 -0.932801545 0.128777802
vn -0.898191392 -0.24777633 0.363124073
vn -0.823554814 -0.0571126975 0.5643543
vn -0.880184054 0.0954946354 0.464926571
vn -0.851219416 0.420226693 0.314380199
vn -0.886689901 0.459402263 0.0522551015
vn -0.918527603 -0.385144889 0.0892771706
vn -0.918560266 0.385066777 -0.0892775431
vn -0.886624038 -0.459528416 -0.05226475
vn -0.850515127 -0.423842937 -0.311418056
vn -0.865656972 -0.102044739 -0.490127414
vn -0.868640184 0.0490280427 -0.493011504
vn -0.848544657 0.298153311 -0.437123209
vn 0.917175531 0.388190299 0.0899861604
vn 0.884718239 0.463141471 -0.0526634455
vn 0.845859885 0.300668508 0.440589875
vn 0.878015459 0.0482009575 0.476199031
vn 0.878250897 -0.0962228626 0.468419105
vn 0.848562181 0.423732877 -0.31684801
vn 0.878229618 0.0968416929 -0.468331635
vn 0.863739371 -0.0538052097 -0.501058042
vn 0.848592758 -0.423658133 0.316866279
vn 0.884761155 -0.463059485 0.0526665784
vn 0.84060359 -0.308071017 -0.44550842
vn 0.917223275 -0.388077855 -0.0899840295

# Mesh 'mesh_0' with 276 faces
g mesh_0
usemtl material_0
f  1//1 2//2 3//3
f  2//2 4//4 3//3
f  4//4 2//2 5//5
f  6//6 4//4 5//5
f  6//6 5//5 7//7
f  8//8 6//6 7//7
f  1//1 3//3 9//9
f  10//10 1//1 9//9
f  11//11 10//10 9//9
f  12//12 11//11 9//9
f  12//12 13//13 11//11
f  13//13 14//14 11//11
f  8//8 7//7 15//15
f  16//16 8//8 15//15
f  17//17 16//16 15//15
f  18//18 17//17 15//15
f  18//18 19//19 17//17
f  19//19 20//20 17//17
f  13//13 21//21 14//14
f  21//21 22//22 14//14
f  23//23 22//22 21//21
f  24//24 23//23 21//21
f  23//23 24//24 20//20
f  19//19 23//23 20//20
f  25//25 26//26 27//27
f  26//26 28//28 27//27
f  26//26 29//29 28//28
f  29//29 30//30 28//28
f  29//29 31//31 30//30
f  31//31 32//32 30//30
f  31//31 33//33 32//32
f  33//33 34//34 32//32
f  33//33 35//35 34//34
f  35//35 36//36 34//34
f  35//35 37//37 36//36
f  37//37 38//38 36//36
f  37//37 39//39 38//38
f  39//39 40//40 38//38
f  39//39 25//25 40//40
f  25//25 27//27 40//40
f  41//41 42//42 43//43
f  44//44 41//41 43//43
f  44//44 43//43 45//45
f  46//46 44//44 45//45
f  46//46 45//45 47//47
f  48//48 46//46 47//47
f  48//48 47//47 49//49
f  50//50 48//48 49//49
f  50//50 49//49 51//51
f  52//52 50//50 51//51
f  52//52 51//51 53//53
f  54//54 52//52 53//53
f  54//54 53//53 55//55
f  56//56 54//54 55//55
f  56//56 55//55 42//42
f  41//41 56//56 42//42
f  57//57 58//58 59//59
f  59//59 60//60 57//57
f  59//59 61//61 60//60
f  61//61 62//62 60//60
f  61//61 63//63 62//62
f  63//63 64//64 62//62
f  65//65 66//66 61//61
f  59//59 65//65 61//61
f  67//67 65//65 59//59
f  58//58 67//67 59//59
f  68//68 67//67 58//58
f  57//57 68//68 58//58
f  69//69 68//68 57//57
f  60//60 69//69 57//57
f  70//70 69//69 60//60
f  62//62 70//70 60//60
f  71//71 70//70 62//62
f  64//64 71//71 62//62
f  72//72 71//71 64//64
f  63//63 72//72 64//64
f  66//66 72//72 63//63
f  61//61 66//66 63//63
f  65//65 67//67 68//68
f  68//68 69//69 65//65
f  69//69 66//66 65//65
f  69//69 70//70 66//66
f  70//70 72//72 66//66
f  70//70 71//71 72//72
f  73//73 74//74 75//75
f  75//75 76//76 73//73
f  76//76 77//77 73//73
f  76//76 78//78 77//77
f  78//78 79//79 77//77
f  78//78 80//80 79//79
f  75//75 81//81 76//76
f  81//81 82//82 76//76
f  76//76 82//82 78//78
f  82//82 83//83 78//78
f  78//78 83//83 80//80
f  83//83 84//84 80//80
f  80//80 84//84 79//79
f  84//84 85//85 79//79
f  79//79 85//85 77//77
f  85//85 86//86 77//77
f  77//77 86//86 73//73
f  86//86 87//87 73//73
f  73//73 87//87 74//74
f  87//87 88//88 74//74
f  74//74 88//88 75//75
f  88//88 81//81 75//75
f  81//81 88//88 87//87
f  87//87 86//86 81//81
f  86//86 82//82 81//81
f  86//86 85//85 82//82
f  85//85 83//83 82//82
f  85//85 84//84 83//83
f  89//89 90//90 91//91
f  91//91 92//92 89//89
f  91//91 93//93 92//92
f  93//93 94//94 92//92
f  93//93 95//95 94//94
f  95//95 96//96 94//94
f  97//97 98//98 93//93
f  91//91 97//97 93//93
f  99//99 97//97 91//91
f  90//90 99//99 91//91
f  100//100 99//99 90//90
f  89//89 100//100 90//90
f  101//101 100//100 89//89
f  92//92 101//101 89//89
f  102//102 101//101 92//92
f  94//94 102//102 92//92
f  103//103 102//102 94//94
f  96//96 103//103 94//94
f  104//104 103//103 96//96
f  95//95 104//104 96//96
f  98//98 104//104 95//95
f  93//93 98//98 95//95
f  97//97 99//99 100//100
f  100//100 101//101 97//97
f  101//101 98//98 97//97
f  101//101 102//102 98//98
f  102//102 104//104 98//98
f  102//102 103//103 104//104
f  105//105 106//106 107//107
f  107//107 108//108 105//105
f  108//108 109//109 105//105
f  108//108 110//110 109//109
f  110//110 111//111 109//109
f  110//110 112//112 111//111
f  107//107 113//113 108//108
f  113//113 114//114 108//108
f  108//108 114//114 110//110
f  114//114 115//115 110//110
f  110//110 115//115 112//112
f  115//115 116//116 112//112
f  112//112 116//116 111//111
f  116//116 117//117 111//111
f  111//111 117//117 109//109
f  117//117 118//118 109//109
f  109//109 118//118 105//105
f  118//118 119//119 105//105
f  105//105 119//119 106//106
f  119//119 120//120 106//106
f  106//106 120//120 107//107
f  120//120 113//113 107//107
f  113//113 120//120 119//119
f  119//119 114//114 113//113
f  119//119 118//118 114//114
f  118//118 117//117 114//114
f  117//117 115//115 114//114
f  117//117 116//116 115//115
f  121//121 122//122 34//34
f  122//122 123//123 34//34
f  36//36 121//121 34//34
f  34//34 123//123 32//32
f  123//123 124//124 32//32
f  124//124 125//125 32//32
f  126//126 121//121 36//36
f  125//125 30//30 32//32
f  38//38 126//126 36//36
f  125//125 127//127 30//30
f  126//126 38//38 53//53
f  128//128 126//126 53//53
f  53//53 38//38 40//40
f  55//55 53//53 40//40
f  128//128 53//53 51//51
f  129//129 128//128 51//51
f  130//130 129//129 51//51
f  49//49 130//130 51//51
f  49//49 131//131 130//130
f  42//42 55//55 40//40
f  27//27 42//42 40//40
f  131//131 49//49 47//47
f  132//132 131//131 47//47
f  127//127 132//132 47//47
f  27//27 28//28 42//42
f  28//28 43//43 42//42
f  45//45 127//127 47//47
f  43//43 28//28 45//45
f  127//127 45//45 30//30
f  28//28 30//30 45//45
f  44//44 26//26 25//25
f  26//26 44//44 29//29
f  41//41 44//44 25//25
f  25//25 39//39 41//41
f  39//39 56//56 41//41
f  56//56 39//39 54//54
f  44//44 46//46 29//29
f  39//39 37//37 54//54
f  133//133 29//29 46//46
f  29//29 133//133 31//31
f  134//134 133//133 46//46
f  133//133 135//135 31//31
f  135//135 136//136 31//31
f  136//136 33//33 31//31
f  33//33 136//136 137//137
f  134//134 46//46 48//48
f  138//138 134//134 48//48
f  139//139 138//138 48//48
f  50//50 139//139 48//48
f  140//140 139//139 50//50
f  35//35 33//33 137//137
f  141//141 35//35 137//137
f  35//35 141//141 142//142
f  37//37 35//35 142//142
f  50//50 52//52 140//140
f  52//52 143//143 140//140
f  37//37 142//142 144//144
f  143//143 52//52 144//144
f  54//54 37//37 144//144
f  52//52 54//54 144//144
f  142//142 5//5 2//2
f  144//144 142//142 2//2
f  5//5 142//142 141//141
f  144//144 2//2 1//1
f  7//7 5//5 141//141
f  143//143 144//144 1//1
f  7//7 141//141 137//137
f  1//1 10//10 143//143
f  15//15 7//7 137//137
f  10//10 140//140 143//143
f  15//15 137//137 136//136
f  10//10 11//11 140//140
f  18//18 15//15 136//136
f  11//11 139//139 140//140
f  18//18 136//136 135//135
f  11//11 14//14 139//139
f  19//19 18//18 135//135
f  14//14 138//138 139//139
f  19//19 135//135 133//133
f  14//14 22//22 138//138
f  23//23 19//19 133//133
f  22//22 134//134 138//138
f  23//23 133//133 134//134
f  22//22 23//23 134//134
f  129//129 3//3 4//4
f  128//128 129//129 4//4
f  3//3 129//129 130//130
f  128//128 4//4 6//6
f  9//9 3//3 130//130
f  126//126 128//128 6//6
f  9//9 130//130 131//131
f  126//126 6//6 8//8
f  12//12 9//9 131//131
f  121//121 126//126 8//8
f  12//12 131//131 132//132
f  8//8 16//16 121//121
f  13//13 12//12 132//132
f  16//16 122//122 121//121
f  13//13 132//132 127//127
f  16//16 17//17 122//122
f  21//21 13//13 127//127
f  17//17 123//123 122//122
f  21//21 127//127 125//125
f  17//17 20//20 123//123
f  24//24 21//21 125//125
f  20//20 124//124 123//123
f  24//24 125//125 124//124
f  20//20 24//24 124//124

