# File produced by Open Asset Import Library (http://www.assimp.sf.net)
# (assimp v5.2.0)

mtllib mrRM_rod_1_link_visual_vis_1.mtl

# 168 vertex positions
v  -0.00147873792 0.00560222054 -0.0393540338
v  0.00148271804 0.00560221821 -0.0393540412
v  0.00148271793 0.00502220029 -0.0391954631
v  -0.00147873804 0.00502220262 -0.0391954556
v  0.00148277439 0.00326196849 -0.0398057662
v  -0.0014787406 0.00326197059 -0.0398057625
v  0.00148277299 0.00264094467 -0.0402739532
v  -0.00147874199 0.00264094677 -0.0402739458
v  0.00148274947 -0.00374253071 -0.0495034494
v  -0.00147876551 -0.00374252838 -0.0495034456
v  0.00148274773 -0.00402495079 -0.0502701625
v  -0.00147876726 -0.00402494846 -0.0502701588
v  0.00148274598 -0.00374424667 -0.0511979908
v  -0.001478769 -0.00374424434 -0.0511979833
v  0.00148274575 -0.0026815678 -0.0517400615
v  -0.00147876923 -0.00268156547 -0.051740054
v  -0.00147876807 -0.000497968635 -0.0519996807
v  0.00148274691 -0.000497970905 -0.0519996881
v  -0.0014787676 0.00137236447 -0.052504994
v  0.00148274738 0.00137236225 -0.0525049977
v  -0.00147876621 0.00252518244 -0.0522277243
v  0.00148274878 0.00252518035 -0.0522277281
v  -0.00147876434 0.00296981656 -0.051503446
v  0.00148275064 0.00296981423 -0.0515034534
v  -0.00147873955 0.00606573606 -0.0403689779
v  0.00148271641 0.00606573373 -0.0403689854
v  -0.00147873838 0.00598956551 -0.0397705697
v  0.00148271758 0.00598956319 -0.0397705771
v  0.00148291804 -0.00250545959 0.0628345534
v  0.00148291595 -0.00418599835 0.0624469779
v  -0.00147853792 -0.00250545726 0.0628345609
v  -0.00147854001 -0.00418599602 0.0624469854
v  0.00148291257 -0.00544761913 0.0612709373
v  -0.00147854339 -0.0054476168 0.0612709448
v  0.00148290885 -0.005952226 0.0596216582
v  -0.00147854711 -0.00595222367 0.0596216619
v  -0.00147855014 -0.0055646426 0.057941135
v  0.00148290582 -0.00556464493 0.0579411276
v  -0.00147855177 -0.00438860478 0.0566795096
v  0.00148290419 -0.00438860711 0.0566795021
v  -0.00147855154 -0.00273938011 0.0561749265
v  0.00148290442 -0.00273938244 0.056174919
v  -0.00147854944 -0.00105884962 0.0565625057
v  0.00148290652 -0.00105885183 0.0565625019
v  -0.00147854618 0.000202797775 0.0577384643
v  0.00148290978 0.000202795491 0.0577384569
v  -0.00147854246 0.000707441475 0.0593877919
v  0.0014829135 0.000707439205 0.0593877882
v  0.00148291665 0.000319831219 0.0610682741
v  -0.00147853931 0.000319833489 0.0610682815
v  0.00148291828 -0.00085614674 0.0623300038
v  -0.00147853768 -0.00085614447 0.0623300076
v  0.00148289802 0.00150096253 0.0514048412
v  0.00148289546 -0.000341149367 0.050850641
v  -0.00147855794 0.00150096475 0.0514048487
v  -0.0014785605 -0.000341147097 0.0508506484
v  0.00148289371 -0.00206630444 0.0506172217
v  -0.00147856225 -0.00206630211 0.0506172292
v  0.00148289185 -0.00304808025 0.0500669777
v  -0.00147856411 -0.00304807792 0.0500669815
v  0.00148288975 -0.00336231221 0.0491740853
v  -0.00147856621 -0.00336230989 0.0491740927
v  -0.00147856772 -0.00313574634 0.048318319
v  0.00148288824 -0.00313574867 0.0483183116
v  -0.00147857959 0.00242962386 0.0402974561
v  0.00148287637 0.00242962153 0.0402974486
v  -0.00147857959 0.00453759311 0.0395070016
v  0.00148287637 0.00453759078 0.0395069942
v  -0.00148298929 0.00533216074 0.0398470461
v  0.00147852674 0.00533215841 0.0398470387
v  0.00148287904 0.00559711689 0.0404440612
v  -0.00147857692 0.00559711875 0.0404440686
v  0.00148289709 0.00304886466 0.0503490716
v  -0.00147855887 0.00304886699 0.0503490791
v  0.00148289825 0.00259927078 0.0510702319
v  -0.00147855771 0.00259927311 0.0510702357
v  0.00148273539 0.00549840275 -0.0307138897
v  0.00148273364 0.00430983352 -0.0311757661
v  -0.00147872057 0.00549840508 -0.0307138842
v  -0.00147872232 0.00430983584 -0.0311757606
v  0.00148273085 0.00379601074 -0.0323427618
v  -0.00147872511 0.00379601284 -0.032342758
v  -0.00147872721 0.00425780751 -0.0335313529
v  0.00148272875 0.00425780518 -0.0335313566
v  -0.00147872732 0.00542480592 -0.034045171
v  0.00148272864 0.00542480359 -0.0340451784
v  -0.00147872546 0.00661340822 -0.033583384
v  0.0014827305 0.00661340589 -0.0335833877
v  0.00148273329 0.00712724775 -0.0324163325
v  -0.00147872267 0.00712725008 -0.0324163288
v  -0.00147872069 0.0066654603 -0.0312277246
v  0.00148273527 0.00666545797 -0.0312277321
v  0.0014827312 -0.00149352837 -0.0593965761
v  0.00148273131 -0.00257283659 -0.0589212924
v  -0.00147878379 -0.00149352616 -0.0593965724
v  -0.00147878367 -0.00257283449 -0.058921285
v  0.00148272968 -0.00367213576 -0.0593484826
v  -0.0014787853 -0.00367213343 -0.0593484752
v  0.00148272712 -0.0041474211 -0.0604277886
v  -0.00147878786 -0.00414741877 -0.0604277849
v  0.00148272526 -0.0037202395 -0.0615270846
v  -0.00147878972 -0.00372023718 -0.0615270771
v  -0.00147878984 -0.00264084642 -0.0620023422
v  0.00148272514 -0.00264084851 -0.0620023459
v  0.00148272677 -0.00154163409 -0.0615751818
v  -0.00147878821 -0.00154163176 -0.0615751743
v  -0.00147878565 -0.00106634304 -0.0604958646
v  0.00148272933 -0.00106634537 -0.0604958721
v  0.00148286438 0.00546423998 0.0332015902
v  0.00148286251 0.00426974194 0.0327551998
v  -0.00147859158 0.00546424231 0.0332015939
v  -0.00147859345 0.00426974427 0.0327552073
v  0.00148285972 0.00386020425 0.0314915106
v  -0.00147859624 0.00386020634 0.031491518
v  -0.00147859822 0.00418700371 0.0304005183
v  0.00148285774 0.00418700138 0.0304005127
v  -0.00147859845 0.00534720393 0.0298715197
v  0.00148285751 0.0053472016 0.0298715122
v  0.00148285937 0.00654171826 0.0303178132
v  -0.00147859659 0.00654172059 0.0303178187
v  -0.0014785938 0.00707075046 0.0314780772
v  0.00148286216 0.00707074814 0.0314780697
v  -0.00147859182 0.00662438711 0.0326724909
v  0.00148286414 0.00662438525 0.0326724835
v  -0.00147873349 0.000500908471 -0.0352674164
v  0.00148278149 0.000500877271 -0.035267476
v  0.00148286414 0.000394027331 0.0349999033
v  0.00148277765 0.00016227478 -0.0370042995
v  -0.00147859182 0.000394029601 0.034999907
v  -0.00147873734 0.000162277051 -0.0370042957
v  0.0014828681 -0.000560156011 0.0373615585
v  0.0014827468 -0.00814030878 -0.0491311066
v  -0.00147858786 -0.000560153683 0.0373615623
v  -0.00147876819 -0.00814030599 -0.0491310991
v  0.00148288766 -0.00945090968 0.0504316241
v  -0.0014785683 -0.00945090689 0.0504316315
v  0.00148290803 -0.0104844281 0.0608999245
v  -0.00147854793 -0.0104844263 0.0608999319
v  0.00148271967 -0.00954492856 -0.0620335788
v  -0.00147879531 -0.00954492576 -0.0620335713
v  -0.00147879997 -0.00803628843 -0.064950861
v  0.00148271502 -0.0080362903 -0.0649508685
v  -0.00147880195 -0.00543598039 -0.0669090301
v  0.00148271304 -0.00543598272 -0.0669090375
v  -0.00147880055 -0.00206226949 -0.0674861521
v  0.00148271443 -0.00206227158 -0.0674861595
v  -0.00147879578 0.00115202111 -0.0663773715
v  0.00148271921 0.00115201878 -0.066377379
v  -0.00147879124 0.00286015519 -0.0647397563
v  0.00148272375 0.00286012399 -0.0647398159
v  -0.00147873291 0.0104830666 -0.038748946
v  0.00148272305 0.0104830647 -0.0387489498
v  0.00148288312 0.0104844933 0.0406012051
v  -0.00147851289 0.0104844952 0.0406012088
v  0.00148288766 0.0102353562 0.0429254323
v  -0.00147850835 0.010235358 0.0429254398
v  0.0014829248 0.00421712128 0.063636601
v  -0.00147847121 0.00421712361 0.0636366084
v  0.00148292806 0.00254601194 0.0658719316
v  -0.00147846795 0.00254601426 0.0658719391
v  0.00148292864 -0.000952146424 0.0674861372
v  -0.00147852732 -0.000952144153 0.0674861446
v  0.00148292561 -0.00464242185 0.0673928186
v  -0.00147853035 -0.00464236457 0.0673927888
v  0.00148291944 -0.00793553051 0.0655863732
v  -0.00147847657 -0.00793552771 0.0655863807
v  0.00148291443 -0.00940690376 0.0636649877
v  -0.00147854153 -0.0094069019 0.0636649951

# 0 UV coordinates

# 168 vertex normals
vn -0.614942133 -0.408329666 -0.674620688
vn 0.841819167 -0.279491931 -0.461762607
vn 0.721271336 -0.0480441935 -0.690984368
vn -0.721273601 0.094114691 -0.686226606
vn 0.803110957 0.252418846 -0.53971976
vn -0.803113341 0.307504982 -0.510342717
vn 0.559075058 0.566462159 -0.605438232
vn -0.559076726 0.628090382 -0.541235507
vn 0.709604442 0.611031473 -0.350859225
vn -0.709604681 0.638450503 -0.298064232
vn 0.572780252 0.811595023 -0.115049593
vn -0.572779 0.816977322 0.0668749884
vn 0.732547283 0.578394592 0.35893482
vn -0.732544541 0.455631018 0.505745888
vn 0.712633252 0.203976884 0.67122817
vn -0.897202015 0.128404513 0.422540903
vn -0.707937121 0.117271923 0.696471334
vn 0.80067867 0.128049299 0.585249603
vn -0.807947516 0.0581315011 0.586380005
vn 0.716922879 -0.0494377054 0.695397437
vn -0.581437588 -0.383723974 0.717416406
vn 0.581438839 -0.563498735 0.586854398
vn -0.710172713 -0.631555021 0.311115324
vn 0.710173428 -0.657885492 0.25067988
vn -0.5614869 -0.819460332 0.114966013
vn 0.561485648 -0.827475309 0.00430887565
vn -0.812282681 -0.551598132 -0.189568833
vn 0.72232002 -0.591484964 -0.35832873
vn 0.717869818 -0.0862267315 -0.6908167
vn 0.717874467 0.270714104 -0.641381443
vn -0.717872858 0.0375496559 -0.695160747
vn -0.717879117 0.380098939 -0.583244681
vn 0.808713675 0.469047248 -0.354932249
vn -0.808715165 0.524524212 -0.26618433
vn 0.459700465 0.887526274 -0.0311857387
vn -0.719253123 0.694319606 -0.0243944991
vn -0.717874289 0.64138025 0.270717531
vn 0.717876613 0.583246052 0.380101621
vn -0.717871785 0.420083553 0.555148542
vn 0.717874944 0.315053105 0.620803535
vn -0.808712542 0.0728657842 0.583673239
vn 0.808715045 -0.0317217596 0.587344587
vn -0.71787262 -0.270707309 0.64138639
vn 0.717874289 -0.380087942 0.583257794
vn -0.808717966 -0.469027847 0.354948133
vn 0.808715403 -0.524515092 0.266201735
vn -0.459705859 -0.887523651 0.0311810728
vn 0.719254673 -0.694318235 0.0243915189
vn 0.566495836 -0.759208798 -0.320444047
vn -0.566501975 -0.690407813 -0.449902803
vn 0.808716416 -0.354944438 -0.469033241
vn -0.808721721 -0.26618138 -0.52451551
vn 0.720680118 -0.070813708 -0.689641654
vn 0.708082914 0.167643547 -0.685940325
vn -0.720683217 0.0684060007 -0.689881504
vn -0.708085895 0.131293088 -0.693813086
vn 0.560769379 0.212271288 -0.800299048
vn -0.560772538 0.311760813 -0.767032862
vn 0.816443622 0.392118722 -0.423866451
vn -0.816444278 0.484864444 -0.313568443
vn 0.463548839 0.885369956 -0.0352487937
vn -0.722920239 0.690384626 -0.0274839457
vn -0.711857021 0.653720021 0.256728858
vn 0.711859226 0.619288325 0.331267685
vn -0.570519388 0.56889534 0.592339158
vn 0.570523202 0.4346838 0.696816564
vn -0.81848824 0.0621143542 0.571155667
vn 0.818366945 -0.0881040171 0.567902505
vn -0.731324255 -0.478981495 0.485532194
vn 0.907263994 -0.295475483 0.299276173
vn 0.724901795 -0.675684452 0.134044677
vn -0.724703133 -0.688754082 -0.0205734279
vn 0.710775912 -0.659962356 -0.243407607
vn -0.710781753 -0.631557584 -0.309716403
vn 0.727315962 -0.482120812 -0.488437474
vn -0.727320135 -0.347039491 -0.59208864
vn 0.731304586 -0.108162872 -0.673420012
vn 0.872656703 0.2861754 -0.395694107
vn -0.819431365 0.0658547506 -0.569381595
vn -0.872660279 0.382686883 -0.303339362
vn 0.475953966 0.879255533 -0.0194294509
vn -0.734504104 0.678438783 -0.0149882175
vn -0.81943363 0.464456409 0.335870296
vn 0.819430888 0.35606271 0.449168563
vn -0.731300056 0.108180366 0.673422039
vn 0.731302977 -0.0783283412 0.677540183
vn -0.630268395 -0.536719799 0.560975492
vn 0.907823741 -0.289905488 0.303003013
vn 0.630255342 -0.776198447 0.0171487965
vn -0.907818198 -0.419261307 0.00926553179
vn -0.6302706 -0.560973465 -0.536719441
vn 0.907822549 -0.303005666 -0.289906472
vn 0.581517756 -0.65921247 -0.476734668
vn 0.73130846 -0.108189814 -0.673411429
vn -0.731304824 -0.423698992 -0.534483254
vn -0.7313115 0.0783510208 -0.677528381
vn 0.731302321 0.399686337 -0.55267328
vn -0.731303811 0.534485877 -0.423697591
vn 0.731309831 0.673409581 -0.108191974
vn -0.731308818 0.677531302 0.0783500001
vn 0.630263686 0.560962617 0.536738813
vn -0.851453602 0.378918439 0.362557083
vn -0.734509289 0.014967409 0.678433597
vn 0.907821894 0.00924848206 0.419253886
vn 0.630258322 -0.53673321 0.560974121
vn -0.851451278 -0.362551689 0.37892884
vn -0.630267024 -0.776189029 0.0171474665
vn 0.907822132 -0.41925326 0.0092596747
vn 0.819658756 -0.0972101614 -0.564543784
vn 0.590095758 0.487244815 -0.64372313
vn -0.819352984 0.0572816618 -0.570420444
vn -0.590097427 0.664637864 -0.458303034
vn 0.617768705 0.786310673 -0.0087950388
vn -0.843627095 0.536895931 -0.00600279216
vn -0.735566676 0.571478009 0.363805771
vn 0.73556906 0.438319206 0.516540766
vn -0.475958228 0.03087724 0.878925681
vn 0.851454198 0.0184113905 0.524105668
vn 0.475966752 -0.599657655 0.643324494
vn -0.851456225 -0.357575297 0.383617252
vn -0.8726632 -0.481092215 0.0837212354
vn 0.872660697 -0.485782176 -0.0497883111
vn -0.630223572 -0.567770362 -0.529580235
vn 0.851486385 -0.383818984 -0.357286811
vn -0.782304108 -0.620057404 0.0594053678
vn 0.929082036 -0.368187994 0.0352722108
vn 0.897313297 -0.437765628 -0.0564805642
vn 0.805300057 -0.561332047 0.190783203
vn -0.897313654 -0.426875621 -0.112273425
vn -0.805300355 -0.52984643 0.265996575
vn 0.801454246 -0.537215769 -0.262812018
vn 0.807698131 -0.533970892 0.24999781
vn -0.801456213 -0.517108679 -0.300443828
vn -0.807698131 -0.568092167 0.157781303
vn 0.899312258 -0.397022128 -0.183332711
vn -0.899313509 -0.42225045 -0.11375314
vn 0.807030916 -0.589551985 0.0336102359
vn -0.807031333 -0.576757371 0.126693919
vn 0.793884099 -0.597758472 -0.111502632
vn -0.933859885 -0.351575315 -0.0655783191
vn -0.714994311 -0.566767335 -0.409338444
vn 0.71499151 -0.498439997 -0.490249634
vn -0.716008544 -0.327389807 -0.616560996
vn 0.716005325 -0.22406064 -0.661160529
vn -0.565523088 -0.00314760767 -0.824726462
vn 0.565519273 0.136736631 -0.813320994
vn -0.714443564 0.32012862 -0.62216413
vn 0.714440644 0.407277316 -0.568946242
vn -0.899752617 0.351454735 -0.258698344
vn 0.899751782 0.391573012 -0.192658395
vn -0.834647775 0.5451895 -0.0783037469
vn 0.962257922 0.26937446 -0.0386916101
vn 0.857848525 0.513618588 0.0170857664
vn -0.857684195 0.512787402 0.0377729349
vn 0.708324432 0.696255445 0.116210647
vn -0.708318591 0.688227355 0.156932771
vn 0.921174705 0.358136833 0.152233794
vn -0.921169341 0.337177873 0.194314346
vn 0.565302968 0.571190834 0.595124841
vn -0.565296233 0.463242173 0.682529628
vn 0.715333521 0.193781808 0.671376586
vn -0.715331674 0.0878515616 0.693240643
vn 0.716020107 -0.126859963 0.686455846
vn -0.716024101 -0.235612914 0.657111883
vn 0.71388799 -0.417822033 0.561950684
vn -0.713885486 -0.492302597 0.498001695
vn 0.450787872 -0.777921557 0.437753528
vn -0.71062237 -0.613153934 0.345047951

# Mesh 'mesh_0' with 356 faces
g mesh_0
usemtl material_0
f  1//1 2//2 3//3
f  4//4 1//1 3//3
f  4//4 3//3 5//5
f  6//6 4//4 5//5
f  5//5 7//7 6//6
f  7//7 8//8 6//6
f  7//7 9//9 8//8
f  9//9 10//10 8//8
f  10//10 9//9 11//11
f  12//12 10//10 11//11
f  11//11 13//13 12//12
f  13//13 14//14 12//12
f  14//14 13//13 15//15
f  16//16 14//14 15//15
f  17//17 16//16 15//15
f  18//18 17//17 15//15
f  19//19 17//17 18//18
f  20//20 19//19 18//18
f  21//21 19//19 20//20
f  22//22 21//21 20//20
f  23//23 21//21 22//22
f  24//24 23//23 22//22
f  25//25 23//23 24//24
f  26//26 25//25 24//24
f  27//27 25//25 26//26
f  28//28 27//27 26//26
f  1//1 27//27 28//28
f  2//2 1//1 28//28
f  29//29 30//30 31//31
f  30//30 32//32 31//31
f  30//30 33//33 32//32
f  33//33 34//34 32//32
f  33//33 35//35 34//34
f  35//35 36//36 34//34
f  36//36 35//35 37//37
f  35//35 38//38 37//37
f  37//37 38//38 39//39
f  38//38 40//40 39//39
f  39//39 40//40 41//41
f  40//40 42//42 41//41
f  41//41 42//42 43//43
f  42//42 44//44 43//43
f  43//43 44//44 45//45
f  44//44 46//46 45//45
f  45//45 46//46 47//47
f  46//46 48//48 47//47
f  48//48 49//49 47//47
f  49//49 50//50 47//47
f  49//49 51//51 50//50
f  51//51 52//52 50//50
f  51//51 29//29 52//52
f  29//29 31//31 52//52
f  53//53 54//54 55//55
f  54//54 56//56 55//55
f  54//54 57//57 56//56
f  57//57 58//58 56//56
f  58//58 57//57 59//59
f  60//60 58//58 59//59
f  59//59 61//61 60//60
f  61//61 62//62 60//60
f  62//62 61//61 63//63
f  61//61 64//64 63//63
f  63//63 64//64 65//65
f  64//64 66//66 65//65
f  65//65 66//66 67//67
f  66//66 68//68 67//67
f  67//67 68//68 69//69
f  68//68 70//70 69//69
f  70//70 71//71 69//69
f  71//71 72//72 69//69
f  71//71 73//73 72//72
f  73//73 74//74 72//72
f  73//73 75//75 74//74
f  75//75 76//76 74//74
f  75//75 53//53 76//76
f  53//53 55//55 76//76
f  77//77 78//78 79//79
f  78//78 80//80 79//79
f  78//78 81//81 80//80
f  81//81 82//82 80//80
f  82//82 81//81 83//83
f  81//81 84//84 83//83
f  83//83 84//84 85//85
f  84//84 86//86 85//85
f  85//85 86//86 87//87
f  86//86 88//88 87//87
f  89//89 87//87 88//88
f  90//90 87//87 89//89
f  90//90 89//89 91//91
f  89//89 92//92 91//91
f  92//92 77//77 91//91
f  77//77 79//79 91//91
f  93//93 94//94 95//95
f  94//94 96//96 95//95
f  94//94 97//97 96//96
f  97//97 98//98 96//96
f  97//97 99//99 98//98
f  99//99 100//100 98//98
f  99//99 101//101 100//100
f  101//101 102//102 100//100
f  102//102 101//101 103//103
f  101//101 104//104 103//103
f  104//104 105//105 103//103
f  105//105 106//106 103//103
f  106//106 105//105 107//107
f  105//105 108//108 107//107
f  108//108 93//93 107//107
f  93//93 95//95 107//107
f  109//109 110//110 111//111
f  110//110 112//112 111//111
f  110//110 113//113 112//112
f  113//113 114//114 112//112
f  114//114 113//113 115//115
f  113//113 116//116 115//115
f  115//115 116//116 117//117
f  116//116 118//118 117//117
f  117//117 118//118 119//119
f  120//120 117//117 119//119
f  120//120 119//119 121//121
f  119//119 122//122 121//121
f  121//121 122//122 123//123
f  122//122 124//124 123//123
f  124//124 109//109 123//123
f  109//109 111//111 123//123
f  125//125 126//126 127//127
f  126//126 125//125 128//128
f  129//129 125//125 127//127
f  125//125 130//130 128//128
f  127//127 131//131 129//129
f  132//132 128//128 130//130
f  131//131 133//133 129//129
f  134//134 132//132 130//130
f  133//133 131//131 135//135
f  136//136 133//133 135//135
f  136//136 135//135 137//137
f  138//138 136//136 137//137
f  132//132 134//134 139//139
f  134//134 140//140 139//139
f  140//140 141//141 139//139
f  141//141 142//142 139//139
f  141//141 143//143 142//142
f  143//143 144//144 142//142
f  143//143 145//145 144//144
f  145//145 146//146 144//144
f  145//145 147//147 146//146
f  147//147 148//148 146//146
f  147//147 149//149 148//148
f  149//149 150//150 148//148
f  149//149 151//151 150//150
f  151//151 152//152 150//150
f  153//153 152//152 151//151
f  154//154 153//153 151//151
f  153//153 154//154 155//155
f  154//154 156//156 155//155
f  157//157 155//155 156//156
f  158//158 157//157 156//156
f  159//159 157//157 158//158
f  160//160 159//159 158//158
f  161//161 159//159 160//160
f  162//162 161//161 160//160
f  163//163 161//161 162//162
f  164//164 163//163 162//162
f  165//165 163//163 164//164
f  166//166 165//165 164//164
f  167//167 165//165 166//166
f  168//168 167//167 166//166
f  168//168 138//138 167//167
f  138//138 137//137 167//167
f  145//145 103//103 147//147
f  103//103 145//145 143//143
f  103//103 106//106 147//147
f  102//102 103//103 143//143
f  102//102 143//143 141//141
f  100//100 102//102 141//141
f  149//149 147//147 106//106
f  140//140 100//100 141//141
f  107//107 149//149 106//106
f  98//98 100//100 140//140
f  16//16 98//98 140//140
f  96//96 98//98 16//16
f  140//140 14//14 16//16
f  96//96 16//16 17//17
f  95//95 96//96 17//17
f  134//134 14//14 140//140
f  12//12 14//14 134//134
f  10//10 12//12 134//134
f  19//19 95//95 17//17
f  95//95 19//19 107//107
f  107//107 19//19 149//149
f  21//21 149//149 19//19
f  149//149 21//21 23//23
f  10//10 134//134 130//130
f  8//8 10//10 130//130
f  151//151 149//149 23//23
f  6//6 8//8 130//130
f  25//25 151//151 23//23
f  6//6 130//130 125//125
f  151//151 25//25 27//27
f  83//83 6//6 125//125
f  6//6 83//83 4//4
f  82//82 83//83 125//125
f  83//83 85//85 4//4
f  1//1 4//4 85//85
f  87//87 1//1 85//85
f  27//27 1//1 87//87
f  80//80 82//82 125//125
f  87//87 90//90 27//27
f  90//90 151//151 27//27
f  80//80 125//125 129//129
f  151//151 90//90 121//121
f  90//90 91//91 121//121
f  154//154 151//151 121//121
f  91//91 120//120 121//121
f  91//91 79//79 120//120
f  120//120 79//79 117//117
f  117//117 79//79 115//115
f  79//79 80//80 115//115
f  80//80 114//114 115//115
f  114//114 80//80 129//129
f  112//112 114//114 129//129
f  121//121 123//123 154//154
f  112//112 129//129 111//111
f  123//123 69//69 154//154
f  123//123 111//111 69//69
f  69//69 72//72 154//154
f  154//154 72//72 156//156
f  72//72 74//74 156//156
f  111//111 67//67 69//69
f  129//129 67//67 111//111
f  156//156 74//74 158//158
f  67//67 129//129 133//133
f  65//65 67//67 133//133
f  65//65 133//133 63//63
f  133//133 136//136 63//63
f  62//62 63//63 136//136
f  158//158 74//74 76//76
f  60//60 62//62 136//136
f  76//76 45//45 158//158
f  76//76 55//55 45//45
f  55//55 43//43 45//45
f  55//55 56//56 43//43
f  45//45 47//47 158//158
f  47//47 50//50 158//158
f  43//43 56//56 41//41
f  56//56 58//58 41//41
f  58//58 60//60 41//41
f  60//60 39//39 41//41
f  39//39 60//60 136//136
f  37//37 39//39 136//136
f  50//50 52//52 158//158
f  52//52 160//160 158//158
f  160//160 52//52 162//162
f  52//52 31//31 162//162
f  162//162 31//31 164//164
f  31//31 32//32 164//164
f  164//164 32//32 166//166
f  37//37 136//136 138//138
f  36//36 37//37 138//138
f  32//32 34//34 166//166
f  34//34 36//36 138//138
f  166//166 34//34 168//168
f  168//168 34//34 138//138
f  152//152 26//26 24//24
f  28//28 26//26 152//152
f  150//150 152//152 24//24
f  22//22 150//150 24//24
f  20//20 150//150 22//22
f  150//150 20//20 108//108
f  20//20 18//18 108//108
f  150//150 108//108 105//105
f  18//18 93//93 108//108
f  148//148 150//150 105//105
f  93//93 18//18 94//94
f  148//148 105//105 104//104
f  146//146 148//148 104//104
f  144//144 146//146 104//104
f  101//101 144//144 104//104
f  142//142 144//144 101//101
f  99//99 142//142 101//101
f  18//18 15//15 94//94
f  139//139 142//142 99//99
f  94//94 15//15 97//97
f  97//97 139//139 99//99
f  15//15 139//139 97//97
f  15//15 13//13 139//139
f  139//139 13//13 132//132
f  11//11 132//132 13//13
f  9//9 132//132 11//11
f  128//128 132//132 9//9
f  7//7 128//128 9//9
f  5//5 128//128 7//7
f  128//128 5//5 126//126
f  5//5 84//84 126//126
f  84//84 5//5 3//3
f  81//81 126//126 84//84
f  86//86 84//84 3//3
f  86//86 3//3 2//2
f  78//78 126//126 81//81
f  88//88 86//86 2//2
f  28//28 88//88 2//2
f  88//88 28//28 152//152
f  89//89 88//88 152//152
f  127//127 126//126 78//78
f  89//89 152//152 122//122
f  152//152 153//153 122//122
f  92//92 89//89 122//122
f  119//119 92//92 122//122
f  119//119 118//118 92//92
f  118//118 77//77 92//92
f  118//118 116//116 77//77
f  77//77 116//116 78//78
f  116//116 113//113 78//78
f  113//113 127//127 78//78
f  110//110 127//127 113//113
f  122//122 153//153 124//124
f  127//127 110//110 109//109
f  124//124 153//153 70//70
f  124//124 70//70 109//109
f  153//153 71//71 70//70
f  155//155 71//71 153//153
f  71//71 155//155 73//73
f  70//70 68//68 109//109
f  68//68 127//127 109//109
f  157//157 73//73 155//155
f  127//127 68//68 131//131
f  68//68 66//66 131//131
f  131//131 66//66 64//64
f  135//135 131//131 64//64
f  61//61 135//135 64//64
f  75//75 73//73 157//157
f  61//61 59//59 135//135
f  75//75 157//157 46//46
f  53//53 75//75 46//46
f  44//44 53//53 46//46
f  53//53 44//44 54//54
f  157//157 48//48 46//46
f  48//48 157//157 49//49
f  44//44 42//42 54//54
f  42//42 57//57 54//54
f  57//57 42//42 59//59
f  42//42 40//40 59//59
f  59//59 40//40 135//135
f  38//38 135//135 40//40
f  51//51 49//49 157//157
f  159//159 51//51 157//157
f  159//159 161//161 51//51
f  161//161 29//29 51//51
f  161//161 163//163 29//29
f  163//163 30//30 29//29
f  163//163 165//165 30//30
f  135//135 38//38 137//137
f  38//38 35//35 137//137
f  165//165 33//33 30//30
f  137//137 35//35 33//33
f  165//165 167//167 33//33
f  167//167 137//137 33//33

