# File produced by Open Asset Import Library (http://www.assimp.sf.net)
# (assimp v5.2.0)

mtllib mrRM_rod_2_link_respondable_coll_1.mtl

# 30 vertex positions
v  0.0014771485 0.0091197975 -0.0653545409
v  0.00147738308 0.010508948 -0.0609296821
v  0.00147698587 0.00510505633 -0.0676883534
v  0.00147701299 -0.000351175637 -0.0678282529
v  0.00147724978 -0.00384218572 -0.0639290214
v  0.00147796678 0.00943230186 -0.0504439957
v  0.00147848576 -0.0105089508 -0.0422366224
v  0.00147880288 0.000288587413 -0.0363070741
v  0.00148294796 -0.0105080809 0.0388754047
v  0.00148272479 -0.000382903789 0.0359958634
v  0.00148349116 0.00813324377 0.0498243198
v  0.00148430001 -0.00339973648 0.0642779022
v  0.00148409535 0.00932979025 0.0620360225
v  0.00148447335 3.8994749e-05 0.0678281859
v  0.00148443668 0.00697872695 0.0668782517
v  -0.00148436741 0.00911977794 -0.065354377
v  -0.00148447009 0.00510503771 -0.0676881894
v  -0.00148413284 0.0105089284 -0.0609295182
v  -0.00148444297 -0.000351194554 -0.0678280964
v  -0.00148420618 -0.00384220481 -0.0639288574
v  -0.00148354913 0.0094322823 -0.0504438318
v  -0.00148271304 0.000288568495 -0.0363069102
v  -0.0014829702 -0.0105089098 -0.0422364585
v  -0.00147844804 -0.0105080996 0.0388755649
v  -0.0014786711 -0.000382922706 0.0359960273
v  -0.001477096 -0.00339975534 0.0642780662
v  -0.0014779648 0.00813322421 0.04982448
v  -0.00147730066 0.00932977069 0.0620361865
v  -0.00147692265 3.89758316e-05 0.0678283423
v  -0.00147701928 0.00697870832 0.0668784082

# 0 UV coordinates

# 30 vertex normals
vn 0.472588181 0.688442469 -0.550188482
vn 0.80526036 0.584413409 -0.100083575
vn 0.565448105 0.291443169 -0.771575928
vn 0.587408781 -0.203773201 -0.783216
vn 0.714419901 -0.582487524 -0.38770172
vn 0.715856612 0.67509973 0.178296655
vn 0.710589886 -0.6896981 -0.139206514
vn 0.719646752 0.642709076 0.262742132
vn 0.710406244 -0.697257459 0.0956824794
vn 0.461583287 0.854631364 -0.237794027
vn 0.715200543 0.677538574 -0.171550363
vn 0.716816843 -0.573336065 0.396811664
vn 0.8416453 0.531586289 0.0951275006
vn 0.593239188 -0.132597879 0.794030845
vn 0.348845273 0.674872458 0.65027231
vn -0.259036452 0.754539192 -0.602968216
vn -0.565537393 0.156589985 -0.809720397
vn -0.805272281 0.592596471 -0.0191305298
vn -0.587486148 -0.43014434 -0.685445786
vn -0.80595845 -0.535309732 -0.252733976
vn -0.564251542 0.754450202 0.335298479
vn -0.810127139 0.575102746 0.113801219
vn -0.558511436 -0.82543391 -0.0819983482
vn -0.834420323 -0.546001256 0.0750020891
vn -0.842058539 0.519661605 -0.144531056
vn -0.807827115 -0.534053743 0.24940303
vn -0.563587487 0.760302424 -0.322969615
vn -0.614659488 0.776439428 0.139052242
vn -0.593152821 -0.385871023 0.706592619
vn -0.348770231 0.408390462 0.843550026

# Mesh 'mesh_0' with 56 faces
g mesh_0
usemtl material_0
f  1//1 2//2 3//3
f  2//2 4//4 3//3
f  4//4 2//2 5//5
f  2//2 6//6 5//5
f  7//7 5//5 6//6
f  8//8 7//7 6//6
f  9//9 7//7 8//8
f  10//10 9//9 8//8
f  9//9 10//10 11//11
f  12//12 9//9 11//11
f  12//12 11//11 13//13
f  14//14 12//12 13//13
f  15//15 14//14 13//13
f  16//16 17//17 18//18
f  17//17 19//19 18//18
f  19//19 20//20 18//18
f  20//20 21//21 18//18
f  22//22 21//21 20//20
f  23//23 22//22 20//20
f  22//22 23//23 24//24
f  25//25 22//22 24//24
f  25//25 24//24 26//26
f  27//27 25//25 26//26
f  28//28 27//27 26//26
f  29//29 28//28 26//26
f  30//30 28//28 29//29
f  25//25 10//10 22//22
f  25//25 27//27 10//10
f  10//10 8//8 22//22
f  27//27 11//11 10//10
f  22//22 8//8 21//21
f  8//8 6//6 21//21
f  21//21 6//6 18//18
f  6//6 2//2 18//18
f  11//11 27//27 28//28
f  13//13 11//11 28//28
f  15//15 13//13 28//28
f  30//30 15//15 28//28
f  14//14 15//15 30//30
f  29//29 14//14 30//30
f  12//12 14//14 29//29
f  26//26 12//12 29//29
f  18//18 2//2 16//16
f  2//2 1//1 16//16
f  16//16 1//1 3//3
f  17//17 16//16 3//3
f  17//17 3//3 4//4
f  19//19 17//17 4//4
f  19//19 4//4 5//5
f  20//20 19//19 5//5
f  20//20 5//5 7//7
f  23//23 20//20 7//7
f  9//9 12//12 26//26
f  23//23 7//7 9//9
f  24//24 9//9 26//26
f  24//24 23//23 9//9

